<svg viewBox="0 0 512 512" version="1.1" xmlns="http://www.w3.org/2000/svg" desc="Created with imagetracer.js version 1.2.6" ><path fill="rgb(254,254,254)" stroke="rgb(254,254,254)" stroke-width="1" opacity="1" d="M 0 0 L 512 0 L 512 368.5 L 511 368.5 Q 508.6 358.4 501.5 353 L 492.5 348 L 484.5 347 L 483 345.5 L 483 308.5 L 481 301.5 L 476.5 297 L 469.5 295 L 314.5 295 Q 306.4 296.4 303 302.5 L 302 305.5 L 302 341 L 297.5 342 L 276 289.5 Q 284.5 283.5 289 273.5 Q 292.9 265.9 291 252.5 Q 287.6 239.4 278.5 232 L 264 224.5 L 264 185.5 L 265.5 185 Q 278.3 181.3 285 171.5 L 291 158.5 L 291 142.5 L 289 135.5 L 292 122.5 L 292 67.5 L 290 60.5 L 285.5 56 L 280.5 54 L 231.5 54 Q 225 55.5 222 60.5 L 220 67.5 L 220 75.5 L 223.5 83 L 231.5 84 L 236 79.5 L 236 70 L 276 70 L 276 124.5 Q 274.4 135.4 266.5 140 L 262.5 142 L 254.5 143 Q 243.6 141.4 239 133.5 L 236 125.5 L 236 106.5 L 233.5 103 L 228.5 101 L 222 104.5 Q 218.1 110.6 220 122.5 L 223 138.5 L 221 142.5 L 221 158.5 Q 224.5 172 234.5 179 L 248 185 L 248 224.5 L 246.5 226 L 239.5 228 L 228 237.5 L 221 252.5 L 221 267.5 Q 225.1 281.9 236 289.5 L 214.5 342 L 210 341 L 210 305.5 Q 208.6 299.4 203.5 297 L 197.5 295 L 104.5 295 L 99 297 L 97 300.5 L 97 306.5 L 101.5 311 L 194 311 L 194 346 L 114 346 Q 114.7 335.1 107.5 331 L 101.5 329 L 76.5 329 Q 69.1 330.1 66 335.5 Q 62.8 339 64 346 L 45 346 L 45 311 L 74.5 311 L 78 309 Q 79.8 306.6 79 300.5 L 76.5 297 L 71.5 295 L 42.5 295 L 35.5 297 L 31 301.5 L 29 308.5 L 29 345.5 L 27.5 347 L 19.5 348 Q 11.1 351.1 6 357.5 L 0.5 369 L 0 0 Z " /><path fill="rgb(254,254,254)" stroke="rgb(254,254,254)" stroke-width="1" opacity="1" d="M 237.5 153 Q 245.7 160.3 263.5 158 L 274.5 153 L 275 156.5 L 268.5 166 Q 263.5 171.5 251.5 170 Q 243.9 168.1 240 162.5 Q 235.8 159.1 237.5 153 Z " /><path fill="rgb(254,254,254)" stroke="rgb(254,254,254)" stroke-width="1" opacity="1" d="M 252.5 240 Q 268.1 239.4 273 249.5 Q 276.2 253.8 276 261.5 L 273 270.5 L 267.5 276 L 264.5 278 L 255.5 280 L 247.5 278 L 239 270.5 L 237 266.5 L 236 257.5 Q 238 247.5 245.5 243 L 252.5 240 Z " /><path fill="rgb(254,254,254)" stroke="rgb(254,254,254)" stroke-width="1" opacity="1" d="M 250 295 L 261.5 295 L 262 297.5 L 282 347.5 Q 266.1 356.6 267 382.5 Q 270 396.5 279.5 404 Q 287.5 411.7 302 412 L 302 447.5 Q 303.3 453.3 307.5 456 L 312.5 458 L 471.5 458 Q 478 456.5 481 451.5 L 483 445.5 L 483 407 Q 499.4 405.6 507 394.5 L 511.5 384 L 512 512 L 0.5 512 L 0 511.5 L 0 384.5 L 1 384.5 Q 3.4 395.6 11.5 401 Q 18.2 406.5 29 407 L 29 445.5 Q 30.1 452.9 35.5 456 L 40.5 458 L 199.5 458 Q 205.3 456.8 208 452.5 L 210 447.5 L 210 412 L 222.5 410 Q 231.4 406.4 237 399.5 Q 246.2 390.7 245 371.5 L 242 361.5 L 236 352 L 230 347.5 L 250 295 Z " /><path fill="rgb(254,254,254)" stroke="rgb(254,254,254)" stroke-width="1" opacity="1" d="M 318 311 L 466.5 311 L 467 311.5 L 467 346 L 448 346 L 448 339.5 L 441.5 331 L 435.5 329 L 410.5 329 Q 403.1 330.1 400 335.5 Q 397.1 339.4 398 346 L 318 346 L 318 311 Z " /><path fill="rgb(254,254,254)" stroke="rgb(254,254,254)" stroke-width="1" opacity="1" d="M 80 345 L 97.5 345 L 98 345.5 L 98 408 L 80.5 408 L 80 407.5 L 80 345 Z " /><path fill="rgb(254,254,254)" stroke="rgb(254,254,254)" stroke-width="1" opacity="1" d="M 414 345 L 431.5 345 L 432 345.5 L 432 408 L 414.5 408 L 414 407.5 L 414 345 Z " /><path fill="rgb(254,254,254)" stroke="rgb(254,254,254)" stroke-width="1" opacity="1" d="M 210 357 Q 221.1 357.7 226 365.5 Q 230.7 370.3 229 381.5 Q 226.6 390.1 219.5 394 L 210 396 L 210 357 Z " /><path fill="rgb(254,254,254)" stroke="rgb(254,254,254)" stroke-width="1" opacity="1" d="M 298.5 357 L 302 357.5 L 302 396 L 294.5 395 L 288 391 L 283 381.5 L 283 371.5 Q 285.6 364.1 291.5 360 L 298.5 357 Z " /><path fill="rgb(254,254,254)" stroke="rgb(254,254,254)" stroke-width="1" opacity="1" d="M 27.5 362 L 64 362 L 64 391 L 26.5 391 L 19 386.5 Q 15.3 382.7 15 375.5 Q 16.4 367.4 22.5 364 L 27.5 362 Z " /><path fill="rgb(254,254,254)" stroke="rgb(254,254,254)" stroke-width="1" opacity="1" d="M 114 362 L 194 362 L 194 391 L 114 391 L 114 362 Z " /><path fill="rgb(254,254,254)" stroke="rgb(254,254,254)" stroke-width="1" opacity="1" d="M 318 362 L 398 362 L 398 391 L 374.5 391 L 370 393 L 368 400.5 L 370 405 L 374.5 407 L 398 407 L 398 413.5 L 402.5 421 L 408.5 424 L 437.5 424 L 445 419.5 Q 449.2 415.3 448 407 L 467 407 L 467 442 L 318.5 442 L 318 441.5 L 318 407 L 345.5 407 L 350 403.5 L 351 396.5 L 347.5 392 L 345.5 391 L 318 391 L 318 362 Z " /><path fill="rgb(254,254,254)" stroke="rgb(254,254,254)" stroke-width="1" opacity="1" d="M 448 362 L 484.5 362 Q 491.7 363.8 495 369.5 L 497 377.5 Q 495.8 384.3 491.5 388 L 485.5 391 L 448 391 L 448 362 Z " /><path fill="rgb(254,254,254)" stroke="rgb(254,254,254)" stroke-width="1" opacity="1" d="M 45 407 L 64 407 L 64 413.5 L 68.5 421 L 74.5 424 L 103.5 424 L 111 419.5 L 113 416.5 L 114 407 L 194 407 L 194 442 L 45.5 442 L 45 441.5 L 45 407 Z " /><path fill="rgb(55,55,55)" stroke="rgb(55,55,55)" stroke-width="1" opacity="1" d="M 227.5 83 L 230 83.5 L 227.5 84 L 227.5 83 Z " /><path fill="rgb(55,55,55)" stroke="rgb(55,55,55)" stroke-width="1" opacity="1" d="M 254.5 239 L 258 239.5 L 254.5 240 L 254.5 239 Z " /><path fill="rgb(55,55,55)" stroke="rgb(55,55,55)" stroke-width="1" opacity="1" d="M 252.5 294 L 255 294.5 L 252.5 295 L 252.5 294 Z " /><path fill="rgb(55,55,55)" stroke="rgb(55,55,55)" stroke-width="1" opacity="1" d="M 257.5 294 L 260 294.5 L 257.5 295 L 257.5 294 Z " /><path fill="rgb(55,55,55)" stroke="rgb(55,55,55)" stroke-width="1" opacity="1" d="M 45.5 310 L 73 310.5 L 45 311 L 44.5 347 L 44 311.5 L 45.5 310 Z " /><path fill="rgb(55,55,55)" stroke="rgb(55,55,55)" stroke-width="1" opacity="1" d="M 103.5 310 L 194 310.5 L 103.5 311 L 103.5 310 Z " /><path fill="rgb(55,55,55)" stroke="rgb(55,55,55)" stroke-width="1" opacity="1" d="M 318.5 310 L 466.5 310 L 468 311.5 L 467.5 347 L 467 311 L 318.5 311 L 318.5 310 Z " /><path fill="rgb(55,55,55)" stroke="rgb(55,55,55)" stroke-width="1" opacity="1" d="M 80.5 344 L 98 344.5 L 80.5 345 L 80.5 344 Z " /><path fill="rgb(55,55,55)" stroke="rgb(55,55,55)" stroke-width="1" opacity="1" d="M 414.5 344 L 432 344.5 L 414.5 345 L 414.5 344 Z " /><path fill="rgb(55,55,55)" stroke="rgb(55,55,55)" stroke-width="1" opacity="1" d="M 28.5 361 L 64 361.5 L 28.5 362 L 28.5 361 Z " /><path fill="rgb(55,55,55)" stroke="rgb(55,55,55)" stroke-width="1" opacity="1" d="M 113.5 361 L 195 361.5 L 113.5 362 L 113.5 361 Z " /><path fill="rgb(55,55,55)" stroke="rgb(55,55,55)" stroke-width="1" opacity="1" d="M 317.5 361 L 399 361.5 L 317.5 362 L 317.5 361 Z " /><path fill="rgb(55,55,55)" stroke="rgb(55,55,55)" stroke-width="1" opacity="1" d="M 448.5 361 L 484 361.5 L 448.5 362 L 448.5 361 Z " /><path fill="rgb(55,55,55)" stroke="rgb(55,55,55)" stroke-width="1" opacity="1" d="M 44.5 407 L 45 441.5 L 44 441.5 L 44.5 407 Z " /><path fill="rgb(55,55,55)" stroke="rgb(55,55,55)" stroke-width="1" opacity="1" d="M 467.5 407 L 468 441.5 L 467 441.5 L 467.5 407 Z " /><path fill="rgb(0,0,0)" stroke="rgb(0,0,0)" stroke-width="1" opacity="1" d="M 230.5 55 L 281.5 55 L 289 60.5 L 291 65.5 L 291 126.5 L 288 138.5 L 290 142.5 L 291 153.5 Q 288.3 170.8 276.5 179 L 263 185.5 L 263 225.5 L 265.5 226 Q 276.6 229.4 283 237.5 Q 291.1 245.9 291 262.5 L 289 271.5 L 285 279.5 L 275 289.5 L 296 342 L 302.5 342 L 303 341.5 L 303 304.5 L 308.5 298 L 313.5 296 L 471.5 296 Q 477.3 297.3 480 301.5 L 482 306.5 L 482 347 L 493.5 349 L 505 357.5 Q 511.5 365 512 378.5 L 508 391.5 L 500.5 400 Q 494 406.3 482 406 L 482 446.5 Q 480.8 452.3 476.5 455 L 472.5 457 L 311.5 457 L 305 452.5 L 303 448.5 L 303 412.5 L 301.5 411 L 291.5 410 Q 281.8 406.7 276 399.5 L 268 383.5 L 268 370.5 L 272 359.5 L 283 346.5 L 261.5 294 L 255.5 295 L 250.5 294 L 229 347.5 Q 237.5 353.5 242 363.5 Q 245.4 371.1 244 383.5 Q 240.9 395.9 232.5 403 L 220.5 410 L 210.5 411 L 209 412.5 L 209 448.5 L 204.5 455 L 200.5 457 L 39.5 457 L 32 451.5 L 30 446.5 L 30 406 L 20.5 405 Q 11.5 401.5 6 394.5 L 1 384.5 L 0 374.5 Q 2.2 361.2 10.5 354 Q 17.5 347.2 30 347 L 30 306.5 Q 31.3 300.8 35.5 298 L 40.5 296 L 72.5 296 L 78 299.5 L 79 304.5 L 74.5 310 L 45.5 310 L 44 311.5 L 44 347 L 65 347 Q 63.4 335.6 70.5 332 L 74.5 330 L 103.5 330 L 111 335.5 Q 114.3 339.4 113 347 L 195 347 L 195 311.5 L 193.5 310 L 101.5 310 L 98 306.5 Q 96.5 298.5 101.5 297 L 103.5 296 L 198.5 296 Q 205 297.5 208 302.5 L 209 304.5 L 209 342 L 215.5 342 L 216 340.5 L 237 289.5 Q 227.3 283.2 223 271.5 L 221 256.5 Q 223.4 240.9 233.5 233 L 243.5 227 L 249 226 L 249 185.5 L 247.5 184 Q 234.2 181.3 228 171.5 L 222 159.5 L 221 147.5 L 224 135.5 Q 218.8 125.8 221 108.5 L 224.5 103 L 229.5 102 L 234 104 L 236 109.5 L 236 128.5 Q 238.4 137.1 245.5 141 Q 250.9 144.6 261.5 143 Q 270.1 140.6 274 133.5 L 276 128.5 L 276 69 L 236.5 69 Q 235.3 69.3 236 75.5 L 235 79.5 L 231.5 83 Q 225.4 83.8 223 82 Q 219.3 77.1 221 65.5 Q 222.3 59.8 226.5 57 L 230.5 55 Z M 236 152 L 236 157 L 239 163 Q 244 169 252 171 Q 264 173 269 167 Q 276 162 276 152 L 268 156 L 259 158 L 248 157 L 236 152 Z M 255 239 L 250 240 L 243 244 L 236 255 Q 234 266 239 272 Q 243 277 251 280 Q 262 282 268 277 Q 273 273 276 266 Q 278 252 272 247 Q 267 239 255 239 Z M 319 310 L 317 312 L 317 347 L 399 347 Q 398 339 401 336 L 409 330 L 438 330 L 442 332 Q 449 336 447 347 L 468 347 L 468 312 L 467 310 L 319 310 Z M 81 344 L 79 346 L 79 409 L 99 409 L 99 409 L 99 346 L 98 344 L 81 344 Z M 415 344 L 413 346 L 413 409 L 433 409 L 433 409 L 433 346 L 432 344 L 415 344 Z M 209 356 L 209 397 Q 218 397 224 392 L 230 381 Q 231 370 227 366 Q 222 357 209 356 Z M 300 356 L 292 359 Q 284 363 282 373 L 282 381 L 287 391 Q 292 397 303 397 L 303 357 L 300 356 Z M 29 361 L 23 363 Q 17 366 15 373 Q 14 382 17 386 Q 21 390 28 392 L 65 392 L 65 363 L 64 361 L 29 361 Z M 113 361 L 113 392 L 195 392 L 195 361 L 113 361 Z M 317 361 L 317 392 L 346 392 L 348 393 Q 352 395 350 403 L 346 406 L 317 406 L 317 443 L 318 443 L 467 443 L 468 442 L 468 408 L 467 406 L 447 406 L 447 415 L 444 420 L 439 423 L 408 423 L 406 422 Q 400 420 399 414 L 399 407 L 399 406 L 374 406 L 369 402 L 369 397 L 374 392 L 399 392 L 399 361 L 317 361 Z M 449 361 L 447 363 L 447 392 L 485 392 L 492 389 L 497 382 L 496 370 Q 492 363 484 361 L 449 361 Z M 46 406 L 44 408 L 44 442 L 46 443 L 195 443 L 195 406 L 113 406 L 112 417 L 105 423 L 74 423 L 68 420 L 65 414 L 65 406 L 46 406 Z " /><path fill="rgb(135,135,135)" stroke="rgb(135,135,135)" stroke-width="1" opacity="1" d="M 232.5 54 L 280 54.5 L 232.5 55 L 232.5 54 Z " /><path fill="rgb(135,135,135)" stroke="rgb(135,135,135)" stroke-width="1" opacity="1" d="M 236.5 69 L 276 69.5 L 236.5 70 L 236.5 69 Z " /><path fill="rgb(135,135,135)" stroke="rgb(135,135,135)" stroke-width="1" opacity="1" d="M 253.5 170 L 259 170.5 L 253.5 171 L 253.5 170 Z " /><path fill="rgb(135,135,135)" stroke="rgb(135,135,135)" stroke-width="1" opacity="1" d="M 248.5 185 L 249 224.5 L 248 224.5 L 248.5 185 Z " /><path fill="rgb(135,135,135)" stroke="rgb(135,135,135)" stroke-width="1" opacity="1" d="M 263.5 185 L 264 224.5 L 263 224.5 L 263.5 185 Z " /><path fill="rgb(135,135,135)" stroke="rgb(135,135,135)" stroke-width="1" opacity="1" d="M 194.5 311 L 195 346.5 L 194 346.5 L 194.5 311 Z " /><path fill="rgb(135,135,135)" stroke="rgb(135,135,135)" stroke-width="1" opacity="1" d="M 317.5 311 L 318 346.5 L 317 346.5 L 317.5 311 Z " /><path fill="rgb(135,135,135)" stroke="rgb(135,135,135)" stroke-width="1" opacity="1" d="M 64.5 341 L 65 345.5 L 64 345.5 L 64.5 341 Z " /><path fill="rgb(135,135,135)" stroke="rgb(135,135,135)" stroke-width="1" opacity="1" d="M 447.5 341 L 448 345.5 L 447 345.5 L 447.5 341 Z " /><path fill="rgb(135,135,135)" stroke="rgb(135,135,135)" stroke-width="1" opacity="1" d="M 113.5 342 L 114 346.5 L 113 346.5 L 113.5 342 Z " /><path fill="rgb(135,135,135)" stroke="rgb(135,135,135)" stroke-width="1" opacity="1" d="M 398.5 342 L 399 346.5 L 398 346.5 L 398.5 342 Z " /><path fill="rgb(135,135,135)" stroke="rgb(135,135,135)" stroke-width="1" opacity="1" d="M 79.5 345 L 80 408 L 98 408.5 L 80.5 409 L 79 407.5 L 79.5 345 Z " /><path fill="rgb(135,135,135)" stroke="rgb(135,135,135)" stroke-width="1" opacity="1" d="M 432.5 345 L 433 407.5 L 431.5 409 L 414.5 409 L 414.5 408 L 431.5 408 L 432 407.5 L 432.5 345 Z " /><path fill="rgb(135,135,135)" stroke="rgb(135,135,135)" stroke-width="1" opacity="1" d="M 64.5 362 L 65 390.5 L 63.5 392 L 29.5 392 L 29.5 391 L 64 391 L 64.5 362 Z " /><path fill="rgb(135,135,135)" stroke="rgb(135,135,135)" stroke-width="1" opacity="1" d="M 113.5 362 L 114 391 L 194 391 L 194 362.5 L 195 362.5 L 195 390.5 L 193.5 392 L 114.5 392 L 113 390.5 L 113.5 362 Z " /><path fill="rgb(135,135,135)" stroke="rgb(135,135,135)" stroke-width="1" opacity="1" d="M 317.5 362 L 318 391 L 345 391.5 L 318.5 392 L 317 390.5 L 317.5 362 Z " /><path fill="rgb(135,135,135)" stroke="rgb(135,135,135)" stroke-width="1" opacity="1" d="M 398.5 362 L 399 390.5 L 397.5 392 L 375.5 392 L 375.5 391 L 398 391 L 398.5 362 Z " /><path fill="rgb(135,135,135)" stroke="rgb(135,135,135)" stroke-width="1" opacity="1" d="M 447.5 362 L 448 391 L 483 391.5 L 448.5 392 L 447 390.5 L 447.5 362 Z " /><path fill="rgb(135,135,135)" stroke="rgb(135,135,135)" stroke-width="1" opacity="1" d="M 244.5 372 L 245 375.5 L 244 375.5 L 244.5 372 Z " /><path fill="rgb(135,135,135)" stroke="rgb(135,135,135)" stroke-width="1" opacity="1" d="M 267.5 372 L 268 374.5 L 267 374.5 L 267.5 372 Z " /><path fill="rgb(135,135,135)" stroke="rgb(135,135,135)" stroke-width="1" opacity="1" d="M 229.5 374 L 230 378.5 L 229 378.5 L 229.5 374 Z " /><path fill="rgb(135,135,135)" stroke="rgb(135,135,135)" stroke-width="1" opacity="1" d="M 282.5 374 L 283 378.5 L 282 378.5 L 282.5 374 Z " /><path fill="rgb(135,135,135)" stroke="rgb(135,135,135)" stroke-width="1" opacity="1" d="M 244.5 378 L 245 380.5 L 244 380.5 L 244.5 378 Z " /><path fill="rgb(135,135,135)" stroke="rgb(135,135,135)" stroke-width="1" opacity="1" d="M 267.5 378 L 268 380.5 L 267 380.5 L 267.5 378 Z " /><path fill="rgb(135,135,135)" stroke="rgb(135,135,135)" stroke-width="1" opacity="1" d="M 45.5 406 L 63.5 406 L 65 407.5 L 64.5 412 L 64 407 L 45.5 407 L 45.5 406 Z " /><path fill="rgb(135,135,135)" stroke="rgb(135,135,135)" stroke-width="1" opacity="1" d="M 114.5 406 L 193.5 406 L 195 407.5 L 195 441.5 L 193.5 443 L 45 442.5 L 194 442 L 194 407 L 114 407 L 113.5 411 L 113 407.5 L 114.5 406 Z " /><path fill="rgb(135,135,135)" stroke="rgb(135,135,135)" stroke-width="1" opacity="1" d="M 318.5 406 L 345 406.5 L 318 407 L 318 441.5 L 318.5 442 L 466.5 442 L 466.5 443 L 318.5 443 L 317 441.5 L 317 407.5 L 318.5 406 Z " /><path fill="rgb(135,135,135)" stroke="rgb(135,135,135)" stroke-width="1" opacity="1" d="M 374.5 406 L 397.5 406 L 399 407.5 L 398.5 411 L 398 407 L 374.5 407 L 374.5 406 Z " /><path fill="rgb(135,135,135)" stroke="rgb(135,135,135)" stroke-width="1" opacity="1" d="M 448.5 406 L 467 406.5 L 448 407 L 447.5 412 L 447 407.5 L 448.5 406 Z " /><path fill="rgb(135,135,135)" stroke="rgb(135,135,135)" stroke-width="1" opacity="1" d="M 75.5 423 L 103 423.5 L 75.5 424 L 75.5 423 Z " /><path fill="rgb(135,135,135)" stroke="rgb(135,135,135)" stroke-width="1" opacity="1" d="M 409.5 423 L 437 423.5 L 409.5 424 L 409.5 423 Z " /><path fill="rgb(135,135,135)" stroke="rgb(135,135,135)" stroke-width="1" opacity="1" d="M 41.5 457 L 198 457.5 L 41.5 458 L 41.5 457 Z " /><path fill="rgb(135,135,135)" stroke="rgb(135,135,135)" stroke-width="1" opacity="1" d="M 314.5 457 L 471 457.5 L 314.5 458 L 314.5 457 Z " /><path fill="rgb(92,92,92)" stroke="rgb(92,92,92)" stroke-width="1" opacity="1" d="M 209.5 307 L 210 340.5 L 209 340.5 L 209.5 307 Z " /><path fill="rgb(92,92,92)" stroke="rgb(92,92,92)" stroke-width="1" opacity="1" d="M 302.5 307 L 303 340.5 L 302 340.5 L 302.5 307 Z " /><path fill="rgb(92,92,92)" stroke="rgb(92,92,92)" stroke-width="1" opacity="1" d="M 98.5 345 L 99 407.5 L 98 407.5 L 98.5 345 Z " /><path fill="rgb(92,92,92)" stroke="rgb(92,92,92)" stroke-width="1" opacity="1" d="M 413.5 345 L 414 407.5 L 413 407.5 L 413.5 345 Z " /><path fill="rgb(92,92,92)" stroke="rgb(92,92,92)" stroke-width="1" opacity="1" d="M 210.5 356 L 212 356.5 L 210 357 L 209.5 396 L 209 357.5 L 210.5 356 Z " /><path fill="rgb(92,92,92)" stroke="rgb(92,92,92)" stroke-width="1" opacity="1" d="M 300.5 356 L 303 357.5 L 302.5 396 L 302 357 L 300.5 356 Z " /><path fill="rgb(92,92,92)" stroke="rgb(92,92,92)" stroke-width="1" opacity="1" d="M 267.5 375 L 268 377.5 L 267 377.5 L 267.5 375 Z " /><path fill="rgb(92,92,92)" stroke="rgb(92,92,92)" stroke-width="1" opacity="1" d="M 210.5 411 L 213 411.5 L 210 412 L 209.5 446 L 209 412.5 L 210.5 411 Z " /><path fill="rgb(92,92,92)" stroke="rgb(92,92,92)" stroke-width="1" opacity="1" d="M 299.5 411 L 303 412.5 L 302.5 446 L 302 412 Q 298.7 412.7 299.5 411 Z " /><path fill="rgb(212,212,212)" stroke="rgb(212,212,212)" stroke-width="1" opacity="1" d="M 220.5 67 L 221 75.5 L 220 75.5 L 220.5 67 Z " /><path fill="rgb(212,212,212)" stroke="rgb(212,212,212)" stroke-width="1" opacity="1" d="M 291.5 67 L 292 122.5 L 291 122.5 L 291.5 67 Z " /><path fill="rgb(212,212,212)" stroke="rgb(212,212,212)" stroke-width="1" opacity="1" d="M 220.5 109 L 221 122.5 L 220 122.5 L 220.5 109 Z " /><path fill="rgb(212,212,212)" stroke="rgb(212,212,212)" stroke-width="1" opacity="1" d="M 42.5 295 L 72 295.5 L 42.5 296 L 42.5 295 Z " /><path fill="rgb(212,212,212)" stroke="rgb(212,212,212)" stroke-width="1" opacity="1" d="M 104.5 295 L 198 295.5 L 104.5 296 L 104.5 295 Z " /><path fill="rgb(212,212,212)" stroke="rgb(212,212,212)" stroke-width="1" opacity="1" d="M 314.5 295 L 470 295.5 L 314.5 296 L 314.5 295 Z " /><path fill="rgb(212,212,212)" stroke="rgb(212,212,212)" stroke-width="1" opacity="1" d="M 29.5 308 L 30 345.5 L 28 346.5 L 29 345.5 L 29.5 308 Z " /><path fill="rgb(212,212,212)" stroke="rgb(212,212,212)" stroke-width="1" opacity="1" d="M 482.5 308 L 483 345.5 L 484 346.5 L 482 345.5 L 482.5 308 Z " /><path fill="rgb(212,212,212)" stroke="rgb(212,212,212)" stroke-width="1" opacity="1" d="M 76.5 329 L 102 329.5 L 76.5 330 L 76.5 329 Z " /><path fill="rgb(212,212,212)" stroke="rgb(212,212,212)" stroke-width="1" opacity="1" d="M 410.5 329 L 436 329.5 L 410.5 330 L 410.5 329 Z " /><path fill="rgb(212,212,212)" stroke="rgb(212,212,212)" stroke-width="1" opacity="1" d="M 45.5 346 L 64 346.5 L 45.5 347 L 45.5 346 Z " /><path fill="rgb(212,212,212)" stroke="rgb(212,212,212)" stroke-width="1" opacity="1" d="M 114.5 346 L 194 346.5 L 114.5 347 L 114.5 346 Z " /><path fill="rgb(212,212,212)" stroke="rgb(212,212,212)" stroke-width="1" opacity="1" d="M 318.5 346 L 398 346.5 L 318.5 347 L 318.5 346 Z " /><path fill="rgb(212,212,212)" stroke="rgb(212,212,212)" stroke-width="1" opacity="1" d="M 448.5 346 L 467 346.5 L 448.5 347 L 448.5 346 Z " /><path fill="rgb(212,212,212)" stroke="rgb(212,212,212)" stroke-width="1" opacity="1" d="M 29.5 407 L 30 445.5 L 29 445.5 L 29.5 407 Z " /><path fill="rgb(212,212,212)" stroke="rgb(212,212,212)" stroke-width="1" opacity="1" d="M 482.5 407 L 483 445.5 L 482 445.5 L 482.5 407 Z " /><path fill="rgb(212,212,212)" stroke="rgb(212,212,212)" stroke-width="1" opacity="1" d="M 398.5 411 L 399 413.5 L 398 413.5 L 398.5 411 Z " /></svg>