<?xml version="1.0" standalone="no"?>
<!DOCTYPE svg PUBLIC "-//W3C//DTD SVG 20010904//EN"
 "http://www.w3.org/TR/2001/REC-SVG-20010904/DTD/svg10.dtd">
<svg version="1.0" xmlns="http://www.w3.org/2000/svg"
 width="512.000000pt" height="512.000000pt" viewBox="0 0 512.000000 512.000000"
 preserveAspectRatio="xMidYMid meet">

<g transform="translate(0.000000,512.000000) scale(0.100000,-0.100000)"
fill="#000000" stroke="none">
<path d="M3140 4003 c-105 -4 -802 -53 -820 -57 -37 -9 113 -4 460 14 206 11
458 20 560 20 259 0 506 -34 695 -97 94 -31 254 -109 262 -128 2 -8 10 -12 17
-9 13 5 56 -31 56 -47 0 -6 5 -7 11 -4 15 10 49 -24 50 -49 1 -18 2 -19 6 -3
4 18 6 17 29 -4 13 -12 25 -34 25 -48 1 -18 3 -21 6 -8 5 18 6 18 24 1 11 -10
19 -30 19 -48 0 -24 3 -28 10 -16 9 13 12 12 25 -4 8 -11 15 -34 16 -50 0 -26
2 -27 8 -11 8 19 8 19 19 -2 7 -12 12 -37 12 -55 0 -22 3 -29 9 -19 11 16 25
-24 41 -117 18 -104 -3 -201 -73 -335 -32 -61 -50 -83 -83 -102 -24 -14 -53
-39 -65 -57 l-23 -32 44 31 c25 16 59 38 77 47 71 36 142 224 144 380 1 71 2
76 10 41 19 -87 0 -174 -83 -388 -49 -125 -68 -159 -47 -83 6 21 8 40 5 43
-10 10 -47 -10 -88 -48 -23 -21 -47 -39 -54 -39 -6 0 -32 -19 -58 -41 -61 -54
-97 -125 -102 -203 l-4 -61 14 48 c24 82 64 152 118 206 28 28 56 51 62 51 6
0 28 12 49 26 l38 26 -20 -41 c-12 -22 -31 -47 -43 -55 -19 -14 -20 -16 -5
-16 10 0 28 5 40 12 19 10 20 9 9 -4 -18 -22 -69 -41 -88 -34 -15 6 -15 8 2
28 l19 21 -31 -16 c-70 -36 -107 -106 -117 -221 l-4 -39 -104 -41 c-57 -23
-123 -50 -146 -59 -80 -32 -43 3 52 49 95 46 148 85 95 70 -14 -4 -63 -26
-110 -49 -70 -35 -86 -47 -88 -67 -3 -22 -15 -30 -110 -63 -59 -21 -142 -52
-185 -68 -43 -16 -82 -29 -87 -29 -4 0 -23 26 -40 57 -39 69 -130 166 -186
199 -82 48 -152 66 -259 67 -110 1 -166 -12 -270 -67 -73 -38 -170 -132 -213
-208 -33 -57 -41 -81 -20 -60 7 7 20 12 29 12 28 0 10 -40 -28 -62 -35 -21
-40 -38 -5 -19 29 15 31 14 24 -13 -4 -13 -22 -36 -39 -51 -30 -24 -33 -32
-33 -83 1 -139 64 -286 170 -392 104 -105 213 -150 360 -150 207 0 381 115
484 317 58 116 73 267 37 382 -17 54 -17 61 -3 61 8 0 31 5 49 12 26 9 41 10
66 0 28 -10 30 -10 13 3 -18 13 -17 14 10 21 15 4 41 2 56 -4 26 -9 28 -9 17
4 -6 8 -9 17 -6 20 8 8 47 8 77 -1 24 -7 24 -7 5 8 -20 15 -19 16 8 22 15 4
39 4 55 1 24 -6 25 -5 9 8 -16 13 -16 14 5 20 13 3 33 6 46 6 13 0 21 4 18 9
-3 4 13 16 36 24 l42 17 -27 -28 c-38 -39 -51 -82 -36 -118 l12 -29 8 46 c8
54 27 87 53 95 23 7 46 -19 46 -50 -1 -31 -36 -102 -57 -115 -10 -6 -13 -11
-8 -11 6 0 -78 -36 -185 -78 -180 -72 -266 -111 -248 -112 18 -1 270 90 445
160 124 50 196 73 202 67 31 -31 96 35 89 91 -3 25 -5 23 -27 -21 -15 -31 -28
-46 -37 -43 -7 3 -59 -11 -115 -29 -57 -19 -105 -35 -107 -35 -2 0 10 12 27
26 66 55 57 184 -13 184 -11 0 15 18 59 41 82 42 99 53 101 70 4 30 7 31 14 4
4 -16 9 -66 10 -110 1 -44 5 -91 10 -105 7 -23 8 -23 15 13 11 56 1 167 -19
205 -20 38 -10 90 30 160 25 42 55 62 34 21 -7 -11 -14 -89 -16 -172 -4 -120
-2 -147 7 -127 6 14 14 89 17 168 l5 142 37 0 c56 0 96 39 141 135 30 65 78
214 113 350 9 36 -5 -128 -20 -230 -12 -83 -47 -240 -105 -476 -11 -44 -42
-85 -83 -110 -17 -10 -25 -19 -17 -19 22 0 77 38 95 65 14 22 42 114 97 320
36 137 53 275 53 430 0 135 -3 158 -27 230 -14 44 -43 108 -64 142 -36 59
-173 223 -173 207 0 -5 -15 6 -32 22 -18 17 -46 39 -62 50 -326 217 -673 291
-1256 267z m125 -1568 c256 -67 431 -355 371 -610 -35 -146 -101 -249 -210
-326 -90 -64 -171 -89 -285 -89 -237 0 -389 114 -504 377 -7 16 -7 31 1 48 15
33 15 46 0 20 -12 -19 -12 -19 -18 5 -5 18 0 34 17 58 27 37 24 43 -7 10 l-20
-22 0 35 c0 28 7 38 35 58 22 15 35 32 35 45 0 12 7 31 15 42 8 12 12 24 8 27
-3 4 3 19 13 34 10 15 19 34 20 41 4 20 25 42 43 43 10 0 12 2 3 6 -6 2 -9 10
-5 16 5 9 3 9 -8 1 -8 -6 -24 -14 -37 -17 l-22 -5 21 29 c17 24 28 29 67 31
45 1 46 2 8 5 l-38 4 33 25 c19 14 48 25 68 25 35 1 36 1 7 8 l-30 6 28 13
c15 6 39 12 54 12 20 0 23 3 13 9 -13 9 30 26 114 44 46 10 155 6 210 -8z
m-541 -240 c-9 -14 -20 -25 -24 -25 -5 0 -16 -3 -26 -7 -16 -6 -16 -4 2 25 12
21 26 32 41 32 23 0 23 -1 7 -25z"/>
<path d="M3552 2110 c0 -14 2 -19 5 -12 2 6 2 18 0 25 -3 6 -5 1 -5 -13z"/>
<path d="M3572 2035 c-7 -15 -11 -30 -8 -32 7 -7 28 36 24 49 -2 6 -9 -2 -16
-17z"/>
<path d="M3585 1948 l-28 -43 26 23 c20 19 43 62 32 62 -1 0 -15 -19 -30 -42z"/>
<path d="M3610 1885 c-7 -8 -16 -13 -20 -10 -9 6 -20 -19 -26 -59 -2 -16 -11
-37 -20 -47 -10 -11 -14 -19 -10 -19 13 0 -44 -91 -91 -147 l-44 -52 38 6 c48
7 55 13 17 13 l-29 1 28 24 c15 14 39 25 52 25 13 0 27 5 30 10 4 7 -3 8 -21
4 -28 -7 -28 -7 -13 17 9 13 32 32 53 42 41 20 49 31 10 17 -36 -14 -36 -13
-20 19 9 16 30 38 48 50 35 22 32 29 -4 10 -19 -10 -20 -9 -14 17 4 16 15 38
25 49 21 23 34 45 28 45 -3 0 -10 -7 -17 -15z"/>
<path d="M3355 1510 c-25 -11 1 -11 35 0 20 6 21 8 5 8 -11 0 -29 -3 -40 -8z"/>
<path d="M2076 3933 c-17 -3 -30 -12 -33 -24 -5 -18 -7 -18 -22 -5 -14 13 -16
12 -16 -15 0 -25 3 -29 20 -25 11 3 26 6 33 6 6 0 12 7 12 15 0 8 10 17 23 19
21 4 135 22 187 30 14 2 -20 3 -75 3 -55 0 -113 -2 -129 -4z"/>
<path d="M2515 3924 l-140 -13 130 5 c123 5 272 22 185 21 -19 0 -98 -6 -175
-13z"/>
<path d="M1795 3904 c-144 -31 -254 -57 -710 -169 -209 -51 -423 -102 -475
-114 -52 -12 -109 -29 -127 -37 -17 -8 -36 -14 -42 -14 -7 0 -21 -9 -33 -20
-12 -11 -30 -20 -40 -20 -11 0 -17 -4 -14 -8 3 -5 -8 -22 -24 -37 -33 -32 -49
-101 -31 -132 11 -16 11 -16 6 4 -8 31 12 100 31 107 12 5 15 2 10 -11 -4 -10
3 -6 17 9 32 35 91 64 147 73 73 12 82 14 88 20 3 3 -4 5 -16 5 -26 0 -39 18
-18 26 24 9 74 -5 56 -16 -9 -5 -4 -8 14 -7 27 2 27 2 7 18 -20 16 -20 17 10
23 19 4 42 0 62 -10 l32 -17 -19 22 c-19 21 -19 21 5 22 33 2 31 2 59 -5 14
-3 19 -3 13 0 -25 11 -13 24 22 24 19 0 43 4 53 10 9 5 161 45 337 90 614 153
893 233 580 164z m-1260 -344 c4 -6 -9 -10 -32 -10 -28 0 -34 3 -23 10 20 13
47 13 55 0z m-89 -25 c-11 -8 -25 -15 -30 -15 -6 0 -2 7 8 15 11 8 25 15 30
15 6 0 2 -7 -8 -15z m-66 -40 c-7 -8 -17 -15 -22 -15 -6 0 -5 7 2 15 7 8 17
15 22 15 6 0 5 -7 -2 -15z"/>
<path d="M1815 3844 c-304 -131 -541 -257 -715 -383 -61 -44 -108 -68 -165
-87 -96 -30 -335 -73 -460 -81 -74 -5 -85 -8 -60 -15 61 -18 379 19 484 56 24
9 46 16 48 16 3 0 -37 -42 -89 -94 -270 -269 -323 -439 -249 -803 39 -195 82
-326 125 -384 37 -51 155 -148 286 -238 141 -97 171 -106 50 -16 -109 81 -278
226 -303 259 -13 17 -31 45 -40 63 -18 34 -99 314 -94 320 5 5 57 -111 57
-126 0 -7 4 -10 9 -7 12 8 27 -13 39 -54 6 -19 11 -27 11 -17 2 31 38 2 49
-40 7 -26 10 -31 11 -15 2 44 38 15 57 -47 l12 -36 1 33 c1 32 1 32 26 16 14
-9 25 -24 25 -33 0 -10 7 -26 15 -37 13 -17 14 -16 5 13 l-9 33 30 -15 c16 -9
31 -26 35 -40 3 -13 13 -30 22 -37 13 -11 14 -10 4 9 -26 47 -1 45 46 -4 19
-21 32 -30 28 -19 -6 17 -4 17 29 -3 38 -22 118 -28 145 -11 10 6 3 8 -22 4
-29 -5 -51 0 -100 24 -35 16 -72 37 -83 46 -11 9 6 3 38 -14 68 -35 119 -46
144 -31 15 9 11 10 -23 11 -33 0 -65 15 -175 83 -176 108 -239 155 -328 245
-81 82 -116 146 -131 239 -21 124 -2 222 66 353 128 244 537 557 1044 798 63
30 151 72 195 93 125 59 76 45 -90 -27z m-1041 -1530 c28 -27 67 -63 86 -78
49 -40 15 -20 -48 27 -28 22 -67 60 -85 86 -39 53 -60 91 -26 46 13 -16 46
-53 73 -81z"/>
<path d="M3381 3861 c-14 -24 2 -37 19 -15 7 8 20 12 27 9 9 -3 13 0 11 7 -7
22 -46 21 -57 -1z"/>
<path d="M2973 3855 c-8 -21 -3 -23 34 -18 22 4 30 9 26 19 -7 19 -52 18 -60
-1z"/>
<path d="M2130 3828 c-38 -18 -42 -22 -22 -25 12 -3 36 3 54 11 39 20 44 20
27 0 -7 -8 -31 -25 -53 -36 -47 -24 -34 -35 19 -18 45 15 73 53 55 75 -16 20
-26 19 -80 -7z"/>
<path d="M2587 3827 c-3 -8 -1 -20 3 -28 7 -11 10 -10 16 4 4 11 13 16 21 13
9 -4 13 -1 11 6 -6 18 -44 22 -51 5z"/>
<path d="M3767 3834 c-4 -4 -7 -16 -7 -27 0 -16 3 -17 15 -7 12 10 18 10 31
-1 14 -11 15 -10 12 11 -3 25 -35 39 -51 24z"/>
<path d="M1638 3823 c7 -3 16 -2 19 1 4 3 -2 6 -13 5 -11 0 -14 -3 -6 -6z"/>
<path d="M1820 3814 c-56 -19 -96 -60 -110 -115 -9 -33 -8 -57 4 -118 19 -93
41 -125 88 -129 47 -4 152 37 238 92 81 53 83 59 50 186 -21 79 -21 73 -4 -75
l6 -50 -54 -32 c-128 -77 -240 -111 -266 -81 -6 8 -18 41 -27 73 -36 142 -10
198 115 249 47 19 17 19 -40 0z"/>
<path d="M1560 3809 c-19 -6 -70 -19 -113 -31 -43 -11 -76 -22 -74 -25 5 -4
190 41 228 56 31 12 4 12 -41 0z"/>
<path d="M1831 3772 c-19 -9 -41 -28 -50 -42 -15 -25 -15 -25 13 2 15 15 46
34 69 42 24 8 34 15 22 15 -11 1 -35 -7 -54 -17z"/>
<path d="M2550 3744 c0 -4 10 -18 22 -31 l21 -23 -35 0 c-20 0 -41 7 -48 16
-8 8 -23 20 -34 26 -20 10 -20 9 2 -14 12 -13 19 -28 15 -31 -10 -11 -51 -8
-58 3 -3 6 -21 17 -38 26 l-32 15 28 -24 29 -24 -27 -6 c-18 -3 -40 3 -62 15
-19 11 -36 18 -39 15 -3 -3 7 -13 23 -22 l28 -16 -50 5 c-27 2 -61 7 -75 10
-14 4 -7 -1 15 -10 35 -13 63 -14 225 -5 359 21 879 12 1170 -20 202 -22 434
-100 598 -201 98 -60 268 -221 326 -308 20 -30 36 -51 36 -47 0 4 -15 31 -33
60 -181 283 -533 482 -927 526 -150 17 -425 31 -602 31 -127 1 -167 4 -182 15
-11 8 -25 15 -30 15 -6 0 -2 -6 9 -12 19 -12 19 -12 -5 -18 -16 -4 -34 -1 -50
10 -47 32 -55 33 -31 7 l24 -27 -27 0 c-15 0 -43 12 -62 26 -19 15 -34 22 -34
16 0 -6 10 -18 22 -26 22 -16 22 -16 -11 -16 -21 0 -47 10 -68 26 -18 14 -33
22 -33 18z"/>
<path d="M4086 3725 c-9 -25 -8 -26 19 -19 15 4 25 2 25 -5 0 -6 5 -11 11 -11
6 0 9 10 7 23 -4 28 -52 37 -62 12z"/>
<path d="M1805 3675 c-17 -16 -25 -35 -25 -59 0 -43 15 -56 16 -14 1 16 11 39
23 51 31 31 56 13 56 -41 0 -36 2 -39 14 -27 33 33 4 115 -41 115 -10 0 -30
-11 -43 -25z"/>
<path d="M1042 3578 c-18 -18 -16 -44 2 -29 7 6 21 9 30 5 9 -3 16 -2 16 3 0
10 -21 33 -30 33 -3 0 -11 -5 -18 -12z"/>
<path d="M657 3483 c-11 -10 -8 -51 3 -58 6 -3 10 1 10 9 0 8 9 21 20 29 11 8
17 17 13 20 -8 9 -38 9 -46 0z"/>
<path d="M4441 3344 c53 -55 108 -119 124 -142 25 -38 47 -60 29 -29 -48 81
-138 185 -209 240 -22 17 3 -14 56 -69z"/>
<path d="M1535 3362 c-71 -38 -156 -85 -187 -105 -62 -41 -112 -53 -69 -17 13
11 35 20 50 21 14 0 20 3 13 6 -6 2 -10 9 -6 14 8 14 -49 -14 -68 -33 -10 -10
-33 -18 -50 -19 -25 0 -28 -2 -14 -8 17 -7 16 -8 -7 -24 -15 -9 -39 -17 -54
-18 -23 0 -25 -2 -9 -8 17 -7 14 -11 -25 -34 -24 -15 -39 -27 -34 -27 19 -1
-40 -40 -60 -40 -15 0 -16 -3 -7 -9 10 -6 6 -15 -18 -35 -17 -14 -36 -26 -41
-26 -6 0 -8 -4 -5 -8 7 -12 -23 -52 -39 -52 -8 0 -12 -6 -9 -13 2 -7 -7 -26
-21 -41 -14 -15 -25 -31 -25 -36 0 -5 -11 -22 -25 -38 -25 -30 -24 -52 2 -27
8 8 19 15 25 15 16 0 -16 -43 -41 -56 -26 -13 -49 -34 -37 -34 4 0 16 5 27 11
20 10 20 9 5 -20 -9 -17 -25 -35 -36 -41 -11 -6 -20 -16 -20 -22 0 -7 6 -6 16
2 13 12 14 10 3 -16 -7 -16 -20 -38 -28 -48 -9 -11 -11 -16 -5 -13 8 5 10 -8
8 -41 l-4 -47 15 57 c66 257 383 583 799 821 129 74 134 77 120 77 -5 0 -67
-31 -139 -68z m-285 -172 c-14 -11 -34 -20 -44 -20 -18 0 -18 1 -1 20 10 11
30 20 44 20 l26 0 -25 -20z m-65 -50 c-10 -11 -30 -20 -44 -20 l-26 1 24 19
c13 11 32 20 44 20 19 0 20 -1 2 -20z m-67 -56 c-20 -20 -30 -24 -43 -17 -16
9 -15 12 6 27 13 9 32 16 43 16 19 0 19 -2 -6 -26z m-63 -54 c-10 -11 -27 -20
-38 -20 -19 0 -20 1 -2 20 10 11 27 20 38 20 19 0 20 -1 2 -20z m-52 -55 c-10
-14 -28 -25 -42 -25 -23 0 -23 1 -7 19 10 11 28 22 40 24 11 2 22 5 24 6 2 0
-5 -10 -15 -24z m-65 -71 c-32 -32 -56 -29 -33 4 9 12 26 22 38 22 21 0 21 -1
-5 -26z m-37 -52 c-14 -27 -38 -45 -53 -40 -8 3 -3 14 14 31 32 32 54 36 39 9z"/>
<path d="M1503 3393 c9 -2 23 -2 30 0 6 3 -1 5 -18 5 -16 0 -22 -2 -12 -5z"/>
<path d="M1428 3353 c12 -2 30 -2 40 0 9 3 -1 5 -23 4 -22 0 -30 -2 -17 -4z"/>
<path d="M1353 3309 c11 -7 23 -7 35 0 14 9 11 10 -18 10 -29 0 -32 -1 -17
-10z"/>
<path d="M4617 2673 c-24 -28 -30 -65 -13 -88 15 -19 15 -19 16 13 0 19 8 40
20 52 12 12 18 25 15 30 -9 15 -20 12 -38 -7z"/>
<path d="M4542 2510 c0 -63 3 -126 7 -140 13 -44 24 50 16 137 -12 127 -24
128 -23 3z"/>
<path d="M4462 2509 c-1 -36 -4 -88 -7 -115 -5 -45 -4 -46 5 -16 6 18 9 70 7
115 -3 79 -3 80 -5 16z"/>
<path d="M4456 2170 c-45 -81 -73 -99 -119 -82 l-32 11 24 -19 c59 -50 124 -9
160 103 21 64 8 58 -33 -13z"/>
<path d="M1017 2223 c-4 -3 10 -15 30 -25 36 -17 36 -18 8 -13 l-30 5 23 -19
c27 -24 124 -61 155 -61 17 1 11 7 -23 25 -53 28 -51 30 14 10 27 -8 54 -15
60 -15 17 1 -102 61 -163 81 -60 21 -65 22 -74 12z m103 -53 c8 -5 11 -10 5
-10 -5 0 -17 5 -25 10 -8 5 -10 10 -5 10 6 0 17 -5 25 -10z"/>
<path d="M4173 2184 c-6 -13 -7 -24 -3 -24 9 0 25 39 18 45 -2 2 -8 -7 -15
-21z"/>
<path d="M1315 2151 c-25 -6 -18 -8 39 -15 127 -14 216 -57 300 -144 35 -37
45 -41 105 -48 l66 -8 -45 -8 c-25 -5 -71 -7 -103 -5 -41 4 -56 2 -48 -6 17
-17 112 -25 166 -15 28 5 87 11 133 14 66 3 88 1 110 -13 l27 -17 -19 22 -19
22 31 0 c17 0 34 -4 37 -10 3 -5 16 -15 28 -21 22 -12 22 -12 3 10 l-19 21 36
0 c20 0 39 -4 42 -10 3 -5 16 -15 28 -21 22 -12 22 -12 3 10 -19 21 -19 21 13
21 17 0 44 -8 59 -17 l27 -17 -19 22 -19 22 36 0 c20 0 39 -4 42 -10 3 -5 14
-10 23 -10 15 0 15 2 2 10 -13 9 -13 10 0 10 43 2 101 11 136 20 43 11 -310 4
-471 -9 -49 -4 -108 -3 -130 2 -22 5 -82 9 -132 10 -80 0 -94 3 -98 18 -10 31
-91 107 -142 132 -45 23 -146 49 -182 46 -9 -1 -29 -4 -46 -8z"/>
<path d="M1270 2091 c-32 -6 -33 -8 -12 -15 12 -4 35 -5 50 -1 l27 6 18 -106
c19 -109 68 -278 75 -257 5 17 -35 210 -58 278 -26 73 -26 74 10 74 48 0 135
-35 202 -80 l61 -42 -23 32 c-64 90 -213 137 -350 111z"/>
<path d="M3835 2015 c-38 -13 -55 -22 -36 -19 42 8 142 42 121 43 -8 0 -46
-11 -85 -24z"/>
<path d="M989 1986 c-7 -14 -8 -36 -4 -53 l8 -28 7 31 c11 47 18 56 41 44 27
-15 51 -67 43 -93 -5 -18 -4 -20 7 -10 7 7 12 26 12 43 0 71 -89 122 -114 66z"/>
<path d="M1330 1954 c1 -23 48 -197 49 -181 1 19 -37 179 -45 186 -2 2 -4 0
-4 -5z"/>
<path d="M1047 1930 c3 -11 7 -20 9 -20 2 0 4 9 4 20 0 11 -4 20 -9 20 -5 0
-7 -9 -4 -20z"/>
<path d="M1201 1890 c-1 -26 18 -104 24 -98 2 1 -3 30 -10 63 -7 33 -13 49
-14 35z"/>
<path d="M1923 1894 c-42 -18 -63 -50 -62 -94 l1 -35 8 29 c23 74 99 101 139
50 29 -37 26 -70 -8 -105 -19 -19 -24 -29 -15 -29 21 0 62 44 69 73 9 35 -13
77 -54 104 -39 26 -36 26 -78 7z"/>
<path d="M1595 1848 c4 -49 27 -136 50 -190 12 -29 -86 -24 -155 7 l-55 25 37
-34 c44 -42 91 -53 162 -38 115 26 294 43 570 57 393 20 444 32 116 28 -281
-4 -451 -16 -564 -39 -49 -10 -72 -11 -81 -4 -16 13 -61 136 -75 200 -9 45 -9
45 -5 -12z"/>
<path d="M1993 1790 c0 -16 4 -27 9 -24 4 3 8 14 8 24 0 10 -4 21 -8 24 -5 3
-9 -8 -9 -24z"/>
<path d="M2238 1733 c29 -2 74 -2 100 0 26 2 2 3 -53 3 -55 0 -76 -1 -47 -3z"/>
<path d="M1200 1715 c6 -7 35 -25 63 -40 56 -28 122 -33 152 -11 16 12 12 13
-36 13 -36 0 -75 9 -116 27 -72 30 -80 31 -63 11z"/>
<path d="M1410 1615 c39 -42 117 -75 177 -75 59 0 126 28 143 59 9 17 5 17
-35 -6 -65 -36 -157 -31 -246 15 -60 31 -62 32 -39 7z"/>
</g>
</svg>
