<svg viewBox="0 0 512 512" version="1.1" xmlns="http://www.w3.org/2000/svg" desc="Created with imagetracer.js version 1.2.6" ><path fill="rgb(254,254,254)" stroke="rgb(254,254,254)" stroke-width="1" opacity="1" d="M 0 0 L 251 0.5 L 240.5 6 L 5 202 L 0.5 211 L 0 0 Z " /><path fill="rgb(254,254,254)" stroke="rgb(254,254,254)" stroke-width="1" opacity="1" d="M 261.5 0 L 512 0 L 512 210.5 L 511 210.5 L 507 202 L 271.5 6 L 261.5 1 L 261.5 0 Z " /><path fill="rgb(254,254,254)" stroke="rgb(254,254,254)" stroke-width="1" opacity="1" d="M 255.5 47 L 259.5 49 L 479.5 233 Q 484.6 237.9 495.5 237 Q 503.8 235.3 508 229.5 L 511.5 222 L 512 346.5 L 511 346.5 L 511 340.5 L 506 323.5 Q 499 306 486.5 294 Q 474.9 282.1 457.5 276 L 445.5 273 L 428.5 272 L 427.5 273 L 418.5 273 L 402.5 277 Q 386.4 283.4 373.5 293 Q 361.7 282.8 345.5 277 L 329.5 273 L 312.5 272 L 311.5 273 L 297.5 274 L 285.5 278 Q 270.5 284.5 260 295.5 Q 245.5 310 239 332.5 L 236 346.5 L 236 370.5 L 241 392.5 L 252 416.5 Q 268.3 443.3 291.5 463 Q 325.2 491.8 368 511.5 L 252.5 512 L 252.5 511 Q 259.7 509.2 263 503.5 Q 267.8 498.3 266 486.5 Q 263.4 479.1 257.5 475 L 251.5 472 L 40 472 L 40 226.5 L 42.5 224 L 255.5 47 Z " /><path fill="rgb(254,254,254)" stroke="rgb(254,254,254)" stroke-width="1" opacity="1" d="M 310.5 313 L 321.5 313 L 333.5 316 Q 349 322 358 334.5 L 361.5 339 Q 366.5 344.5 378.5 343 Q 385.9 340.9 390 335.5 L 401.5 323 L 417.5 315 L 426.5 313 L 437.5 313 Q 453.9 316.1 462 327.5 Q 468.2 335.2 471 346.5 L 472 362.5 L 469 377.5 L 461 395.5 Q 450 414 434.5 428 Q 407.9 452.4 373.5 469 Q 334.1 449.4 305 419.5 Q 290.9 405.1 282 385.5 Q 275.6 372.9 276 353.5 L 278 342.5 L 282 333.5 L 292.5 321 L 302.5 315 L 310.5 313 Z " /><path fill="rgb(254,254,254)" stroke="rgb(254,254,254)" stroke-width="1" opacity="1" d="M 511.5 370 L 512 512 L 380 511.5 Q 438.6 485.1 479 440.5 Q 494.1 423.1 504 400.5 L 510 381.5 L 511.5 370 Z " /><path fill="rgb(254,254,254)" stroke="rgb(254,254,254)" stroke-width="1" opacity="1" d="M 0.5 498 Q 2.7 505.3 8.5 509 L 14 511.5 L 0 512 L 0.5 498 Z " /><path fill="rgb(100,100,100)" stroke="rgb(100,100,100)" stroke-width="1" opacity="1" d="M 489.5 236 L 495 236.5 L 489.5 237 L 489.5 236 Z " /><path fill="rgb(100,100,100)" stroke="rgb(100,100,100)" stroke-width="1" opacity="1" d="M 304.5 273 L 307 273.5 L 304.5 274 L 304.5 273 Z " /><path fill="rgb(100,100,100)" stroke="rgb(100,100,100)" stroke-width="1" opacity="1" d="M 441.5 273 L 444 273.5 L 441.5 274 L 441.5 273 Z " /><path fill="rgb(100,100,100)" stroke="rgb(100,100,100)" stroke-width="1" opacity="1" d="M 313.5 312 L 318 312.5 L 313.5 313 L 313.5 312 Z " /><path fill="rgb(100,100,100)" stroke="rgb(100,100,100)" stroke-width="1" opacity="1" d="M 430.5 312 L 435 312.5 L 430.5 313 L 430.5 312 Z " /><path fill="rgb(100,100,100)" stroke="rgb(100,100,100)" stroke-width="1" opacity="1" d="M 371.5 342 L 377 342.5 L 371.5 343 L 371.5 342 Z " /><path fill="rgb(100,100,100)" stroke="rgb(100,100,100)" stroke-width="1" opacity="1" d="M 471.5 348 L 472 350.5 L 471 350.5 L 471.5 348 Z " /><path fill="rgb(100,100,100)" stroke="rgb(100,100,100)" stroke-width="1" opacity="1" d="M 236.5 349 L 237 353.5 L 236 353.5 L 236.5 349 Z " /><path fill="rgb(100,100,100)" stroke="rgb(100,100,100)" stroke-width="1" opacity="1" d="M 511.5 350 L 512 355.5 L 511 355.5 L 511.5 350 Z " /><path fill="rgb(100,100,100)" stroke="rgb(100,100,100)" stroke-width="1" opacity="1" d="M 511.5 361 L 512 366.5 L 511 366.5 L 511.5 361 Z " /><path fill="rgb(100,100,100)" stroke="rgb(100,100,100)" stroke-width="1" opacity="1" d="M 236.5 363 L 237 367.5 L 236 367.5 L 236.5 363 Z " /><path fill="rgb(0,0,0)" stroke="rgb(0,0,0)" stroke-width="1" opacity="1" d="M 254.5 0 Q 265.5 0 270.5 6 L 508 204.5 Q 512 209.5 512 218.5 Q 510.5 228.5 503.5 233 Q 498.3 237.8 486.5 236 L 475.5 229 L 255.5 46 L 40 225.5 L 40 472 L 248.5 472 Q 258.5 474 263 481.5 L 266 489.5 L 266 494.5 Q 264 504.5 256.5 509 L 248.5 512 L 17.5 512 Q 7.5 510 3 502.5 L 0 494.5 L 0 214.5 Q 1.5 205.5 7.5 201 L 241.5 6 L 249.5 1 L 254.5 0 Z " /><path fill="rgb(0,0,0)" stroke="rgb(0,0,0)" stroke-width="1" opacity="1" d="M 307.5 273 L 324.5 273 L 343.5 277 Q 361.3 283.2 374.5 294 Q 386.9 282.9 404.5 277 L 423.5 273 L 440.5 273 L 455.5 276 L 469.5 282 L 490 298.5 Q 499.2 308.8 505 322.5 L 510 338.5 L 512 360.5 L 511 361.5 L 510 378.5 L 502 403.5 L 489 426.5 L 468 452 L 466.5 452 L 444.5 472 L 415.5 492 L 380.5 511 L 371.5 512 L 353.5 504 L 321.5 485 L 281 453 L 259 426.5 L 245 401.5 L 238 378.5 L 236 354.5 L 237 353.5 L 238 338.5 L 243 322.5 Q 250.7 304.2 264.5 292 L 284.5 279 L 292.5 276 L 307.5 273 Z M 314 312 L 304 314 L 292 321 Q 280 331 276 349 L 276 368 L 280 383 Q 287 400 299 414 L 326 439 Q 348 456 374 470 Q 404 455 429 434 Q 447 419 460 399 L 468 383 L 472 368 L 472 349 Q 469 335 462 327 L 453 318 L 445 314 L 435 312 Q 412 313 400 324 L 390 335 Q 386 340 380 342 Q 368 344 363 339 L 358 334 Q 350 323 338 317 L 326 313 L 314 312 Z " /><path fill="rgb(172,172,172)" stroke="rgb(172,172,172)" stroke-width="1" opacity="1" d="M 255.5 46 L 259 48.5 L 256.5 47 L 253.5 49 L 255.5 46 Z " /><path fill="rgb(172,172,172)" stroke="rgb(172,172,172)" stroke-width="1" opacity="1" d="M 312.5 272 L 320 272.5 L 312.5 273 L 312.5 272 Z " /><path fill="rgb(172,172,172)" stroke="rgb(172,172,172)" stroke-width="1" opacity="1" d="M 428.5 272 L 436 272.5 L 428.5 273 L 428.5 272 Z " /><path fill="rgb(172,172,172)" stroke="rgb(172,172,172)" stroke-width="1" opacity="1" d="M 327.5 273 L 330 273.5 L 327.5 274 L 327.5 273 Z " /><path fill="rgb(172,172,172)" stroke="rgb(172,172,172)" stroke-width="1" opacity="1" d="M 418.5 273 L 421 273.5 L 418.5 274 L 418.5 273 Z " /><path fill="rgb(172,172,172)" stroke="rgb(172,172,172)" stroke-width="1" opacity="1" d="M 372.5 292 L 374.5 293 L 376 292.5 L 373.5 294 L 372.5 292 Z " /><path fill="rgb(172,172,172)" stroke="rgb(172,172,172)" stroke-width="1" opacity="1" d="M 236.5 346 L 237 348.5 L 236 348.5 L 236.5 346 Z " /><path fill="rgb(172,172,172)" stroke="rgb(172,172,172)" stroke-width="1" opacity="1" d="M 511.5 347 L 512 349.5 L 511 349.5 L 511.5 347 Z " /><path fill="rgb(172,172,172)" stroke="rgb(172,172,172)" stroke-width="1" opacity="1" d="M 276.5 350 L 277 352.5 L 276 352.5 L 276.5 350 Z " /><path fill="rgb(172,172,172)" stroke="rgb(172,172,172)" stroke-width="1" opacity="1" d="M 276.5 363 L 277 365.5 L 276 365.5 L 276.5 363 Z " /><path fill="rgb(172,172,172)" stroke="rgb(172,172,172)" stroke-width="1" opacity="1" d="M 471.5 363 L 472 365.5 L 471 365.5 L 471.5 363 Z " /><path fill="rgb(172,172,172)" stroke="rgb(172,172,172)" stroke-width="1" opacity="1" d="M 511.5 367 L 512 369.5 L 511 369.5 L 511.5 367 Z " /><path fill="rgb(172,172,172)" stroke="rgb(172,172,172)" stroke-width="1" opacity="1" d="M 236.5 368 L 237 370.5 L 236 370.5 L 236.5 368 Z " /></svg>