<?xml version="1.0" standalone="no"?>
<!DOCTYPE svg PUBLIC "-//W3C//DTD SVG 20010904//EN"
 "http://www.w3.org/TR/2001/REC-SVG-20010904/DTD/svg10.dtd">
<svg version="1.0" xmlns="http://www.w3.org/2000/svg"
 width="512.000000pt" height="512.000000pt" viewBox="0 0 512.000000 512.000000"
 preserveAspectRatio="xMidYMid meet">

<g transform="translate(0.000000,512.000000) scale(0.100000,-0.100000)"
fill="#000000" stroke="none">
<path d="M1586 5099 l-26 -20 0 -298 0 -297 -49 -13 c-32 -8 -70 -30 -112 -65
-323 -266 -414 -738 -213 -1105 74 -134 198 -266 315 -333 l58 -33 -4 -60 c-6
-66 -33 -365 -42 -462 -5 -56 -4 -63 20 -87 31 -31 66 -33 98 -7 26 21 38 97
60 389 7 89 15 162 18 162 3 0 38 -7 76 -15 92 -19 266 -19 363 1 90 18 204
65 303 124 90 55 127 56 207 7 68 -42 201 -107 219 -107 19 0 22 -11 53 -197
60 -358 120 -625 147 -655 55 -61 146 1 122 84 -34 117 -139 658 -139 716 0 9
27 12 103 12 56 0 133 7 172 15 38 8 72 15 75 15 3 0 12 -73 19 -162 31 -399
98 -858 180 -1233 45 -204 48 -213 80 -230 57 -29 121 20 108 82 -4 15 -22 98
-42 183 -47 206 -108 575 -139 840 -24 197 -58 582 -53 585 1 1 29 18 62 38
33 19 88 61 123 92 366 332 392 893 58 1262 -68 75 -161 142 -207 149 l-39 7
0 298 0 298 -26 20 c-33 26 -65 27 -95 2 l-24 -19 -3 -339 -3 -339 -145 -115
c-92 -73 -147 -123 -151 -138 -15 -58 43 -115 93 -92 13 6 96 68 185 138 88
71 166 129 173 131 18 4 102 -68 159 -135 62 -75 131 -217 153 -317 20 -95 15
-271 -11 -356 -78 -255 -279 -446 -535 -511 -69 -18 -104 -21 -204 -17 -148 6
-238 33 -371 113 -155 93 -235 93 -390 0 -133 -80 -223 -107 -371 -113 -100
-4 -135 -1 -204 17 -256 65 -457 256 -535 511 -26 85 -31 261 -11 356 22 100
91 242 155 319 63 76 146 141 164 128 14 -11 477 -379 730 -581 93 -73 184
-140 202 -148 78 -32 116 -16 293 123 195 154 212 170 212 205 0 35 -40 78
-73 78 -15 0 -82 -47 -193 -135 -93 -74 -174 -134 -180 -132 -7 1 -199 151
-427 332 l-415 330 -3 343 -4 344 -24 19 c-30 25 -62 24 -95 -2z"/>
<path d="M1992 2310 c-30 -13 -36 -29 -77 -220 -144 -659 -344 -1292 -523
-1650 l-37 -75 -48 -3 c-43 -3 -51 0 -77 28 -41 44 -39 73 19 215 138 342 252
765 336 1255 35 205 34 225 -7 254 -31 22 -52 20 -82 -6 -22 -20 -29 -42 -51
-178 -83 -495 -188 -895 -332 -1260 -61 -153 -65 -169 -60 -225 7 -98 57 -172
142 -211 56 -26 112 -30 198 -13 80 16 100 8 164 -70 75 -92 134 -126 223
-126 59 0 77 6 209 68 79 37 154 67 167 67 13 0 93 -35 177 -77 146 -74 155
-77 223 -78 69 0 76 2 228 77 86 43 168 78 181 78 13 0 89 -30 167 -67 131
-62 149 -68 208 -68 89 0 148 34 223 126 64 78 84 86 164 70 86 -17 142 -13
198 13 85 39 135 113 142 211 5 56 1 72 -60 225 -35 91 -79 210 -97 265 -33
103 -56 135 -95 135 -35 0 -75 -37 -75 -70 0 -32 93 -309 145 -430 40 -94 43
-122 15 -167 -25 -42 -56 -49 -152 -33 -133 21 -191 -1 -292 -114 -87 -97 -98
-99 -220 -46 -51 23 -101 47 -110 53 -36 26 -197 687 -271 1110 -36 206 -45
227 -102 227 -41 0 -73 -30 -73 -67 0 -92 90 -535 190 -936 39 -153 70 -280
70 -282 0 -2 -15 -7 -32 -10 -18 -4 -99 -41 -180 -81 -81 -41 -158 -74 -171
-74 -13 0 -89 34 -169 75 -80 41 -153 75 -161 75 -9 0 -18 4 -22 9 -3 6 15 77
41 158 60 195 124 445 124 488 0 43 -29 75 -68 75 -52 0 -69 -22 -92 -127 -32
-138 -73 -283 -132 -467 l-52 -159 -105 -50 c-154 -73 -162 -72 -264 35 -45
47 -92 89 -104 93 -13 3 -23 10 -23 14 0 5 17 46 39 92 141 305 289 756 415
1265 79 320 119 512 112 539 -4 14 -20 31 -36 40 -33 17 -36 17 -68 5z"/>
</g>
</svg>
