<?xml version="1.0" standalone="no"?>
<!DOCTYPE svg PUBLIC "-//W3C//DTD SVG 20010904//EN"
 "http://www.w3.org/TR/2001/REC-SVG-20010904/DTD/svg10.dtd">
<svg version="1.0" xmlns="http://www.w3.org/2000/svg"
 width="512.000000pt" height="512.000000pt" viewBox="0 0 512.000000 512.000000"
 preserveAspectRatio="xMidYMid meet">

<g transform="translate(0.000000,512.000000) scale(0.100000,-0.100000)"
fill="#000000" stroke="none">
<path d="M460 4731 c-75 -24 -136 -76 -164 -139 -26 -60 -299 -1608 -292
-1664 26 -238 357 -300 467 -86 11 21 38 145 65 295 25 142 48 261 51 266 2 4
112 7 243 7 l238 0 6 -27 c3 -16 24 -134 47 -263 32 -181 47 -246 68 -284 28
-53 81 -98 137 -116 l34 -12 0 -132 0 -132 -37 -13 c-53 -20 -127 -93 -153
-152 -60 -142 8 -319 146 -376 l44 -18 0 -121 c0 -108 2 -124 21 -148 27 -34
71 -35 104 -1 24 23 25 30 25 148 l0 123 37 13 c54 20 127 93 153 153 31 73
25 185 -13 251 -31 53 -97 112 -144 129 l-33 12 0 141 0 140 51 44 c62 54 89
107 89 181 0 30 -33 239 -74 464 -65 366 -75 411 -95 428 -13 10 -34 18 -48
18 -29 0 -73 -41 -73 -69 0 -11 32 -196 70 -412 39 -215 70 -407 70 -426 0
-25 -8 -43 -29 -64 -39 -39 -89 -40 -131 -1 -30 26 -32 35 -80 304 -27 153
-54 287 -60 297 -5 11 -21 28 -35 39 l-25 20 22 48 c17 37 23 68 23 124 0 81
-12 120 -57 187 -23 35 -27 48 -22 85 3 28 -9 120 -35 268 -23 123 -41 233
-41 243 0 29 63 87 94 87 40 0 82 -25 94 -57 6 -15 29 -127 51 -248 43 -234
51 -255 106 -255 34 0 75 37 75 68 0 15 -18 128 -40 252 -45 250 -61 291 -135
342 -115 79 -271 52 -349 -61 -52 -75 -53 -120 -9 -366 l39 -220 -124 -3 c-69
-1 -127 -1 -129 2 -3 3 11 95 31 204 20 110 36 222 36 249 0 88 -56 175 -143
219 -35 19 -131 27 -167 15z m110 -156 c35 -18 50 -43 50 -82 0 -15 -18 -132
-41 -258 -39 -219 -40 -233 -26 -268 28 -65 62 -77 218 -77 122 0 140 -2 179
-23 50 -26 90 -90 90 -141 -1 -47 -33 -110 -71 -137 -33 -23 -43 -24 -239 -29
-225 -5 -244 -10 -274 -68 -8 -15 -35 -144 -60 -287 -26 -143 -51 -273 -58
-288 -15 -38 -45 -57 -91 -57 -43 0 -82 31 -92 73 -4 14 53 357 134 813 l140
789 31 28 c34 30 67 34 110 12z m931 -2290 c85 -44 92 -172 13 -234 -20 -16
-41 -21 -82 -21 -50 0 -58 3 -93 39 -38 38 -44 56 -39 121 6 84 119 137 201
95z"/>
<path d="M792 3790 c-22 -9 -42 -46 -42 -76 0 -25 47 -64 78 -64 36 0 72 37
72 74 0 31 -40 76 -67 75 -10 0 -28 -4 -41 -9z"/>
<path d="M3906 4724 c-22 -8 -54 -25 -72 -39 -75 -57 -72 -46 -224 -898 -77
-433 -140 -811 -140 -840 1 -71 28 -125 89 -178 l51 -44 0 -140 0 -141 -33
-12 c-47 -17 -113 -76 -144 -129 -38 -66 -44 -178 -13 -251 26 -60 99 -133
154 -153 l38 -14 -5 -235 c-4 -204 -7 -246 -27 -320 -51 -190 -146 -357 -278
-489 -416 -415 -1075 -412 -1490 6 -128 129 -236 322 -273 486 -18 85 -72 120
-126 82 -34 -24 -36 -62 -8 -160 108 -378 405 -688 780 -813 130 -44 222 -57
390 -56 145 1 171 4 280 33 466 121 820 510 890 978 9 61 15 172 15 293 l0
195 44 18 c138 57 206 234 146 376 -26 59 -100 132 -153 152 l-37 13 0 132 0
132 33 11 c54 18 111 67 139 118 20 36 36 105 67 283 23 129 44 247 47 263 l6
27 238 0 c131 0 241 -3 243 -7 3 -5 26 -124 51 -266 27 -150 54 -274 65 -295
110 -214 440 -153 467 86 8 70 -50 380 -75 406 -25 24 -74 25 -101 1 -26 -24
-26 -56 6 -233 14 -80 23 -156 19 -169 -21 -84 -140 -101 -179 -25 -7 15 -35
146 -61 292 -48 270 -59 307 -96 334 l-22 15 23 53 c42 97 28 220 -35 302 -30
40 -33 48 -24 75 8 23 2 77 -30 258 -23 125 -41 241 -41 256 0 39 15 64 50 82
43 22 76 18 110 -12 31 -28 31 -30 116 -508 93 -520 94 -525 156 -525 28 0 78
38 78 59 0 30 -172 971 -182 996 -7 16 -28 47 -47 68 -120 133 -323 106 -403
-52 -37 -72 -36 -108 8 -353 20 -109 34 -201 31 -204 -2 -3 -60 -3 -129 -2
l-124 3 38 210 c43 240 43 244 23 313 -38 128 -191 203 -319 156z m150 -168
c19 -19 34 -42 34 -52 0 -10 -19 -123 -41 -251 -26 -146 -39 -245 -35 -266 3
-18 20 -47 37 -63 30 -29 30 -29 187 -34 167 -6 183 -10 226 -60 68 -81 48
-197 -43 -248 -36 -20 -52 -22 -222 -22 -155 0 -189 -3 -218 -18 -62 -31 -68
-48 -121 -347 -48 -272 -50 -281 -80 -307 -42 -39 -92 -38 -131 1 -21 21 -29
39 -29 64 0 45 267 1544 281 1580 14 32 52 56 93 57 19 0 39 -11 62 -34z
m-299 -2276 c53 -32 67 -65 64 -144 -1 -19 -14 -41 -40 -67 -35 -36 -43 -39
-93 -39 -84 0 -138 53 -138 135 0 106 116 171 207 115z"/>
<path d="M4246 3777 c-33 -33 -34 -76 -3 -105 31 -30 72 -28 104 4 20 20 24
31 19 57 -4 17 -12 37 -19 44 -7 7 -27 15 -44 19 -26 5 -37 1 -57 -19z"/>
</g>
</svg>
