<?xml version="1.0" standalone="no"?>
<!DOCTYPE svg PUBLIC "-//W3C//DTD SVG 20010904//EN"
 "http://www.w3.org/TR/2001/REC-SVG-20010904/DTD/svg10.dtd">
<svg version="1.0" xmlns="http://www.w3.org/2000/svg"
 width="512.000000pt" height="512.000000pt" viewBox="0 0 512.000000 512.000000"
 preserveAspectRatio="xMidYMid meet">

<g transform="translate(0.000000,512.000000) scale(0.100000,-0.100000)"
fill="#000000" stroke="none">
<path d="M1197 5105 c-314 -60 -578 -259 -717 -540 -95 -193 -110 -294 -110
-776 0 -346 4 -390 40 -409 30 -16 68 -12 90 10 18 18 20 33 20 130 l0 110
845 0 845 0 0 -372 c0 -205 -4 -368 -8 -362 -4 5 -28 35 -51 67 -116 154 -304
281 -508 344 -82 25 -100 27 -273 27 -173 0 -191 -2 -274 -27 -96 -30 -221
-89 -293 -139 -69 -47 -184 -159 -234 -228 l-44 -61 -5 141 c-4 125 -7 143
-24 156 -28 20 -69 17 -97 -5 l-24 -19 0 -459 c0 -503 2 -522 64 -691 50 -137
114 -235 231 -352 109 -109 203 -174 325 -222 l60 -24 5 -405 5 -404 28 -80
c42 -119 100 -210 191 -300 88 -87 182 -143 311 -186 69 -23 76 -23 618 -27
378 -2 565 0 602 8 132 27 248 121 308 247 56 121 48 284 -19 399 -37 63 -126
141 -201 177 l-68 32 -505 5 c-561 6 -535 2 -598 74 -46 52 -53 94 -50 287 l3
172 61 26 c305 130 525 394 594 711 20 89 20 122 18 1128 l-3 1037 -27 86
c-56 177 -136 313 -253 432 -126 127 -298 226 -465 267 -113 28 -307 35 -413
15z m303 -146 c275 -44 518 -228 635 -482 35 -76 75 -219 75 -269 l0 -28 -840
0 -840 0 0 33 c1 81 55 243 118 350 65 112 220 256 342 317 151 76 343 106
510 79z m710 -1054 l0 -125 -842 2 -843 3 -3 123 -3 122 846 0 845 0 0 -125z
m-605 -745 c137 -44 240 -106 349 -209 116 -112 197 -251 237 -410 18 -71 21
-104 17 -220 -4 -118 -9 -148 -36 -231 -116 -351 -434 -582 -802 -582 -123 0
-218 18 -324 62 -245 102 -428 315 -497 577 -29 111 -29 298 0 408 83 310 328
546 646 621 93 21 320 13 410 -16z m-235 -1803 c64 0 126 3 137 7 21 7 21 4
25 -181 3 -182 4 -190 32 -251 35 -76 119 -158 192 -187 46 -18 81 -20 549
-25 559 -6 535 -2 618 -79 65 -61 90 -126 85 -221 -7 -111 -55 -187 -152 -238
l-51 -27 -527 -3 c-592 -3 -616 -1 -748 65 -103 52 -204 153 -254 253 -64 131
-66 145 -66 543 l0 358 22 -7 c12 -3 74 -7 138 -7z"/>
<path d="M3500 5106 c-132 -29 -232 -79 -354 -176 -191 -154 -373 -446 -480
-772 -107 -326 -152 -684 -134 -1085 33 -778 364 -1450 813 -1654 181 -82 399
-82 580 0 74 34 209 124 231 155 21 30 17 70 -9 94 -35 33 -69 28 -139 -24
-129 -95 -242 -136 -373 -136 -461 0 -852 589 -945 1422 -16 139 -13 503 4
650 59 496 233 925 469 1159 l65 63 16 -55 c19 -66 82 -162 130 -200 20 -15
57 -38 83 -52 228 -113 506 15 572 263 l12 43 26 -21 c14 -11 47 -44 72 -73
315 -360 487 -983 450 -1634 -25 -449 -118 -773 -329 -1151 -24 -44 -27 -57
-19 -81 6 -18 22 -34 41 -42 61 -25 105 25 208 236 280 574 334 1401 134 2062
-158 523 -448 887 -789 993 -90 27 -246 35 -335 16z m242 -147 c29 -6 74 -20
101 -31 l47 -20 0 -56 c0 -105 -77 -206 -181 -236 -66 -20 -82 -20 -150 0 -41
12 -66 28 -104 67 -55 56 -75 105 -75 179 0 43 2 46 40 63 93 42 220 55 322
34z"/>
<path d="M3545 3824 c-90 -22 -117 -31 -170 -56 -123 -60 -211 -149 -271 -273
-54 -110 -40 -178 36 -178 29 0 70 27 70 46 0 5 14 38 31 73 35 71 120 159
187 193 181 93 394 54 532 -97 279 -303 21 -787 -390 -731 -139 19 -272 117
-332 244 -17 37 -41 73 -54 81 -34 23 -80 10 -100 -27 -14 -27 -14 -35 0 -77
39 -116 150 -241 272 -304 87 -45 121 -56 212 -67 229 -29 466 91 581 292 188
331 20 747 -348 863 -47 15 -219 27 -256 18z"/>
<path d="M3611 3558 c-44 -16 -50 -35 -51 -159 0 -102 2 -118 20 -137 14 -14
33 -22 55 -22 22 0 41 8 55 22 18 19 20 35 20 136 0 62 -4 122 -10 132 -13 25
-59 39 -89 28z"/>
<path d="M3360 3283 c-18 -23 -21 -36 -16 -77 7 -66 48 -147 93 -187 91 -79
220 -97 325 -46 92 45 155 133 165 231 7 66 -20 106 -71 106 -42 0 -66 -26
-77 -85 -12 -62 -40 -99 -91 -120 -47 -19 -87 -15 -134 14 -33 20 -64 75 -64
114 0 70 -87 104 -130 50z"/>
</g>
</svg>
