<?xml version="1.0" standalone="no"?>
<!DOCTYPE svg PUBLIC "-//W3C//DTD SVG 20010904//EN"
 "http://www.w3.org/TR/2001/REC-SVG-20010904/DTD/svg10.dtd">
<svg version="1.0" xmlns="http://www.w3.org/2000/svg"
 width="512.000000pt" height="512.000000pt" viewBox="0 0 512.000000 512.000000"
 preserveAspectRatio="xMidYMid meet">

<g transform="translate(0.000000,512.000000) scale(0.100000,-0.100000)"
fill="#000000" stroke="none">
<path d="M745 4060 c-17 -7 -15 -9 11 -9 17 -1 36 -7 41 -13 6 -7 13 -78 16
-158 9 -224 25 -242 26 -30 1 144 -2 180 -15 198 -16 23 -44 27 -79 12z"/>
<path d="M2910 4011 c-53 -17 -111 -53 -169 -107 -34 -31 -61 -53 -61 -48 0 4
-13 -5 -30 -21 -16 -16 -30 -34 -30 -39 0 -6 14 5 31 24 21 24 16 14 -15 -33
-48 -74 -96 -195 -116 -292 -10 -53 -40 -112 -129 -260 l-13 -20 7 20 c4 11
23 72 42 135 38 126 99 264 157 354 46 72 40 85 -8 19 -72 -98 -121 -200 -177
-362 -52 -152 -112 -301 -122 -301 -2 0 10 39 28 88 17 48 51 141 74 207 53
150 127 303 180 374 23 30 41 57 41 60 0 12 -56 -49 -96 -105 -72 -101 -121
-211 -205 -466 -45 -134 -96 -277 -116 -318 -19 -41 -43 -106 -54 -145 l-19
-70 6 60 c16 172 33 225 202 611 128 294 182 382 284 462 29 23 62 49 73 58
11 8 0 5 -24 -8 -24 -13 -72 -50 -108 -83 -35 -34 -65 -59 -67 -58 -7 8 -136
-95 -197 -157 -156 -158 -269 -370 -313 -585 -9 -45 -16 -101 -15 -125 3 -62
-19 -511 -31 -645 -12 -137 -30 -210 -75 -301 -97 -198 -265 -274 -434 -194
-114 54 -236 198 -298 350 -55 137 -58 172 -46 618 6 266 14 414 21 427 9 16
62 668 62 763 0 18 -6 22 -29 22 -34 0 -36 -2 -45 -50 l-7 -35 15 33 c8 17 22
32 31 32 12 0 15 -7 10 -32 -3 -18 -12 -73 -19 -123 l-14 -90 -2 80 -3 80 -7
-70 c-4 -38 -12 -155 -16 -260 l-9 -190 -6 130 c-4 72 -8 162 -9 200 l-3 70
-8 -50 c-9 -56 -22 -846 -14 -829 3 7 9 56 14 110 4 63 7 -49 7 -311 -1 -357
1 -421 17 -498 36 -176 92 -285 205 -395 40 -39 79 -69 84 -65 6 3 8 1 4 -5
-9 -15 52 -49 123 -68 81 -20 159 -12 240 26 128 61 212 192 255 400 33 155
98 568 94 594 -2 12 -32 -123 -67 -299 -66 -334 -88 -420 -126 -495 -35 -70
-106 -142 -172 -175 -52 -27 -67 -30 -153 -30 -72 0 -106 5 -138 19 -51 23
-50 33 1 11 57 -23 162 -19 222 9 64 29 182 156 229 246 61 116 81 233 111
660 9 118 20 250 26 292 33 253 139 461 287 567 l33 23 -14 -33 c-8 -19 -38
-85 -66 -148 -137 -300 -157 -396 -166 -796 -10 -459 -46 -648 -142 -755 -118
-131 -308 -201 -468 -171 -64 12 -187 65 -183 78 2 5 -29 40 -67 78 -109 108
-164 195 -222 350 -31 85 -33 87 -27 40 18 -154 113 -320 235 -410 32 -23 56
-45 53 -48 -8 -7 78 -65 131 -88 25 -11 84 -26 132 -33 l88 -14 -71 -1 c-168
-2 -264 36 -379 153 -183 184 -229 381 -207 887 30 714 43 956 52 985 6 17 10
90 10 162 0 130 0 132 23 133 21 1 21 1 -3 8 -14 5 -29 4 -35 -1 -5 -5 -12
-46 -15 -91 l-5 -82 -36 -6 -37 -5 -6 50 c-3 28 -6 66 -6 84 0 17 -4 32 -10
32 -5 0 -10 -26 -10 -57 0 -45 -39 -216 -52 -229 -2 -1 -3 73 -3 164 -1 97 -7
205 -15 257 l-15 90 -3 -90 c-1 -49 1 -184 6 -300 8 -200 7 -214 -14 -295
l-22 -85 -1 207 c-1 209 -15 438 -31 493 -8 30 -4 -527 5 -732 3 -62 1 -104
-5 -108 -6 -4 -10 11 -10 37 0 24 -11 180 -25 347 -18 222 -22 309 -14 323 6
11 7 19 2 16 -43 -20 -63 -32 -66 -42 -7 -17 10 -563 22 -751 19 -288 21 -329
17 -324 -16 15 -76 668 -77 839 -1 102 -3 124 -10 90 -4 -25 -8 -74 -9 -110
l-2 -65 -14 70 c-7 39 -21 103 -29 143 -16 71 -17 72 -48 71 -25 0 -28 -2 -13
-8 15 -6 24 -32 42 -121 13 -63 32 -139 42 -170 14 -37 22 -96 26 -180 4 -69
9 -147 11 -175 3 -27 -6 9 -20 80 -34 171 -91 415 -115 490 -18 59 -19 59 -14
15 9 -74 63 -366 92 -495 26 -115 27 -129 22 -315 l-5 -195 -13 85 c-20 125
-69 374 -108 545 -49 217 -53 228 -70 221 -9 -3 -21 -6 -27 -6 -7 0 -4 -5 5
-10 10 -6 22 -34 28 -68 7 -31 16 -65 22 -75 5 -9 23 -93 39 -185 17 -92 48
-246 70 -342 22 -96 51 -233 65 -304 31 -159 107 -396 186 -580 64 -151 112
-247 103 -206 -3 14 15 -13 39 -60 105 -195 237 -310 411 -355 218 -56 519 49
735 255 52 50 55 53 11 16 -196 -168 -402 -256 -602 -256 -167 0 -285 53 -404
181 -111 120 -171 249 -236 504 -66 262 -91 519 -71 725 6 65 10 79 11 46 2
-79 30 -253 62 -384 16 -67 27 -127 24 -133 -19 -30 66 -427 120 -564 75 -188
184 -279 374 -312 244 -43 541 64 774 276 l57 53 -31 -68 c-51 -114 -65 -130
-182 -209 -181 -120 -307 -176 -437 -194 -57 -7 -74 -5 -140 17 -249 83 -466
235 -593 414 -108 153 -163 287 -228 558 -45 186 -152 714 -169 835 -6 44 -20
127 -31 185 -10 58 -23 130 -28 160 -5 30 -9 46 -10 35 -1 -18 -3 -17 -14 5
-15 30 -41 33 -45 4 -3 -20 92 -490 129 -638 11 -44 38 -164 60 -265 132 -623
200 -783 437 -1024 118 -120 187 -171 317 -233 204 -97 332 -121 556 -104 196
14 260 37 439 156 136 90 190 141 266 251 127 184 176 318 196 544 10 106 9
168 -6 385 -28 394 -22 484 45 619 16 33 27 52 24 42 -36 -130 -73 -505 -46
-467 6 8 11 40 11 70 1 77 25 241 50 329 63 225 195 372 330 370 41 0 43 -1
20 -11 -90 -39 -119 -57 -157 -94 -83 -83 -127 -206 -162 -449 -17 -118 -37
-210 -66 -311 -3 -10 4 1 16 26 26 56 59 186 93 360 14 74 37 164 51 200 65
167 207 264 338 232 l42 -10 -55 -1 c-103 -2 -205 -71 -290 -196 -33 -49 -32
-48 55 33 102 94 167 131 246 137 l54 4 -47 -8 c-77 -15 -166 -69 -248 -151
-41 -42 -84 -91 -94 -110 -15 -27 -4 -19 51 37 90 91 205 168 278 184 54 12
56 12 128 -25 94 -47 187 -120 201 -158 10 -27 14 -29 45 -24 57 9 143 57 194
108 27 27 46 52 43 55 -3 4 -14 -1 -24 -10 -26 -23 -27 -22 -42 26 -15 52 -56
135 -79 162 -10 11 -32 47 -50 80 l-33 60 52 -50 c28 -27 74 -84 102 -125 27
-41 52 -77 55 -80 7 -7 -16 51 -42 105 -13 28 -43 93 -65 146 -46 109 -87 162
-158 208 -60 38 -153 71 -201 71 -32 0 -27 -4 37 -26 133 -45 224 -119 278
-226 l26 -53 -69 66 c-98 96 -180 159 -242 187 -30 14 -78 42 -105 64 -28 21
-71 45 -95 53 -47 16 -148 19 -191 6z m186 -39 c13 -7 7 -9 -28 -5 -58 7 -134
-11 -218 -50 -47 -22 -87 -52 -145 -110 -47 -48 -68 -65 -51 -42 73 100 167
178 250 207 54 20 157 20 192 0z m72 -52 c55 -25 54 -32 -5 -14 -54 16 -173
18 -222 4 -54 -15 -49 -3 5 14 71 21 170 20 222 -4z m-9 -40 c77 -10 90 -17
121 -59 l18 -27 -61 31 c-58 28 -68 30 -182 30 -143 0 -218 -21 -321 -90 -63
-42 -64 -43 -38 -12 37 45 112 106 138 112 94 23 218 29 325 15z m252 -127
c62 -66 100 -123 197 -298 76 -136 82 -150 66 -162 -15 -11 -24 -2 -79 80 -34
50 -96 153 -139 227 -43 74 -99 164 -124 200 l-46 65 40 -32 c22 -17 60 -53
85 -80z m-223 63 c79 -20 145 -70 199 -151 47 -71 44 -71 -36 -2 -56 48 -166
102 -251 123 -62 16 -169 15 -240 -1 l-25 -6 25 11 c89 40 233 51 328 26z
m-2518 -630 c20 -176 21 -211 11 -295 -7 -53 -15 -157 -19 -231 -4 -101 -8
-124 -13 -90 -3 25 -2 99 2 165 8 115 0 369 -21 673 -7 113 -7 353 1 372 1 3
5 -85 10 -195 4 -110 17 -290 29 -399z m2139 580 c-2 -2 -15 -9 -29 -15 -24
-11 -24 -11 -6 3 16 13 49 24 35 12z m320 -22 c136 -38 300 -152 376 -261 24
-35 42 -63 39 -63 -2 0 -34 32 -71 70 -168 179 -355 268 -540 258 -91 -5 -100
-1 -26 12 59 10 150 4 222 -16z m-680 -50 c-38 -56 -288 -311 -264 -269 34 56
113 150 198 233 46 45 88 82 91 82 4 0 -7 -21 -25 -46z m596 15 c57 -10 170
-48 163 -54 -2 -2 -34 7 -73 21 -124 42 -298 29 -395 -29 -29 -18 -33 -18 -21
-3 48 59 197 89 326 65z m-375 -33 c0 -2 -8 -10 -17 -17 -16 -13 -17 -12 -4 4
13 16 21 21 21 13z m422 -15 c19 -8 16 -10 -24 -10 -75 -1 -147 -20 -236 -62
-278 -129 -454 -373 -507 -704 -17 -100 -18 -268 -5 -480 12 -202 -5 -351 -66
-563 -45 -159 -149 -334 -230 -387 -21 -13 -15 -3 22 37 85 94 145 230 195
448 15 64 21 134 25 280 2 107 6 254 7 325 2 80 1 119 -5 100 -11 -43 -28
-272 -28 -394 0 -96 -19 -299 -26 -276 -7 24 -34 363 -34 428 0 157 39 320
137 567 99 251 162 369 267 498 54 67 147 144 206 170 88 39 234 50 302 23z
m143 -50 c115 -55 250 -165 366 -300 l37 -42 -32 -14 c-30 -13 -32 -12 -58 17
-15 17 -41 54 -57 82 l-31 51 51 -55 c29 -30 48 -46 42 -35 -22 41 -150 164
-212 204 -148 95 -313 105 -441 28 -50 -30 -137 -114 -173 -167 -17 -25 -54
-72 -82 -105 -113 -134 -190 -332 -229 -590 -3 -16 -3 6 0 50 31 532 312 899
694 904 52 1 77 -5 125 -28z m-2366 -118 c1 -97 20 -321 31 -378 10 -49 11
233 1 383 l-6 102 37 0 c46 0 52 -15 42 -112 l-8 -73 -8 62 c-5 34 -13 72 -18
85 -7 16 -9 -68 -6 -272 2 -162 0 -322 -4 -355 -4 -34 -8 -47 -9 -30 l-2 30
-11 -25 c-6 -16 -8 -91 -5 -205 2 -99 1 -207 -3 -240 -4 -33 -8 -56 -9 -52
-14 80 -51 396 -55 467 -5 80 -4 88 5 52 6 -24 12 -42 14 -40 6 6 -15 321 -30
448 -12 109 -12 120 8 204 19 76 23 85 28 60 4 -16 7 -66 8 -111z m2342 57
c70 -21 170 -77 209 -116 l25 -25 -45 25 c-60 35 -274 104 -346 113 -47 5 -54
8 -34 14 47 13 128 9 191 -11z m-871 -62 c-15 -29 -36 -51 -62 -67 -22 -12
-58 -39 -81 -59 -23 -20 3 11 57 71 55 59 101 105 103 103 2 -2 -6 -23 -17
-48z m-2101 -58 c0 -9 -4 -8 -9 5 -5 11 -9 27 -9 35 0 9 4 8 9 -5 5 -11 9 -27
9 -35z m3153 -14 c21 -11 40 -31 53 -58 11 -24 39 -62 61 -86 40 -41 40 -43
21 -54 -17 -9 -23 -6 -41 18 -25 36 -137 148 -196 197 l-45 37 57 -19 c31 -11
72 -27 90 -35z m-807 -38 c-85 -114 -148 -272 -180 -448 -13 -73 -19 -185 -25
-485 -7 -360 -10 -399 -33 -505 -28 -131 -67 -224 -131 -314 -52 -73 -94 -113
-58 -56 74 121 117 226 157 391 44 181 49 268 35 527 -20 343 4 503 106 709
37 76 154 243 170 243 2 0 -16 -28 -41 -62z m716 15 c13 -17 13 -17 -6 -3 -11
8 -22 16 -24 17 -2 2 0 3 6 3 6 0 17 -8 24 -17z m-2505 -286 c1 -287 19 -453
78 -722 27 -123 46 -391 21 -305 -47 165 -117 455 -136 560 -32 182 -32 401 0
573 13 70 27 124 30 121 3 -3 6 -105 7 -227z m1838 109 c-69 -151 -77 -253
-54 -707 23 -466 -47 -739 -245 -954 -35 -39 -35 -38 8 25 59 87 101 172 137
278 47 141 104 522 81 536 -5 3 -12 -19 -16 -49 -14 -117 -80 -403 -90 -393
-2 2 1 26 6 53 5 28 21 172 34 320 14 149 32 321 41 384 8 62 13 115 11 117
-5 5 -33 -129 -51 -246 -9 -52 -27 -205 -41 -340 -31 -292 -53 -393 -111 -509
-64 -128 -222 -300 -356 -387 -86 -57 -97 -56 -20 0 32 24 77 65 98 91 22 25
71 79 109 120 179 188 223 339 255 880 23 393 73 600 186 783 25 39 47 72 49
72 2 0 -12 -33 -31 -74z m-1587 -113 c-2 -32 -3 -8 -3 52 0 61 1 87 3 58 2
-29 2 -78 0 -110z m1268 -47 c-46 -105 -124 -350 -140 -440 -20 -119 -19 -250
5 -442 11 -87 20 -176 20 -197 0 -70 -81 -231 -130 -257 -14 -7 -10 4 16 48
59 97 96 257 76 327 -8 27 -9 23 -15 -33 -4 -35 -14 -89 -23 -120 -35 -120
-133 -280 -207 -336 -73 -55 -233 -117 -298 -115 -13 0 4 7 38 14 238 52 446
300 467 558 5 55 5 58 -4 22 -26 -101 -90 -265 -104 -265 -2 0 4 27 14 59 28
90 49 244 62 476 l13 210 7 -130 c13 -218 25 -250 20 -50 -8 300 13 403 118
580 32 55 64 112 71 128 7 15 14 26 16 24 2 -2 -8 -30 -22 -61z m-1488 -63
c-3 -10 -5 -4 -5 12 0 17 2 24 5 18 2 -7 2 -21 0 -30z m-232 -248 c32 -242 68
-435 121 -643 24 -96 44 -177 43 -180 0 -4 -21 47 -46 113 -65 174 -93 290
-101 430 l-6 120 -11 -80 -11 -80 -20 85 c-19 75 -20 107 -16 275 5 226 13
220 47 -40z m290 -708 c31 -98 60 -175 64 -172 5 3 14 -10 20 -28 38 -107 172
-267 269 -320 63 -34 158 -56 252 -58 110 -2 41 -16 -85 -18 -158 -2 -255 31
-347 116 -61 58 -97 121 -143 253 -42 121 -100 350 -109 430 l-6 55 14 -40 c8
-22 40 -120 71 -218z m277 -95 c49 -84 171 -203 242 -236 67 -32 145 -43 199
-28 20 6 35 7 32 3 -10 -17 -97 -33 -148 -29 -69 6 -173 54 -233 110 -88 81
-149 199 -168 328 -6 41 -5 39 18 -23 14 -38 40 -94 58 -125z m-245 66 c-3 -8
-6 -5 -6 6 -1 11 2 17 5 13 3 -3 4 -12 1 -19z m30 -120 c-3 -8 -6 -5 -6 6 -1
11 2 17 5 13 3 -3 4 -12 1 -19z m1454 -139 c-78 -163 -182 -299 -261 -343 -32
-17 -30 -13 21 40 50 52 81 91 167 208 13 17 41 66 64 109 22 43 42 76 45 74
2 -3 -14 -42 -36 -88z m-442 -305 c-31 -34 -139 -105 -203 -133 -58 -25 -154
-51 -187 -50 -13 0 1 7 31 15 65 17 230 97 315 153 72 47 75 48 44 15z m46
-30 c-60 -49 -142 -99 -220 -133 -87 -38 -178 -50 -265 -33 -39 7 -31 8 50 8
82 1 107 5 180 33 47 17 128 58 180 90 106 66 119 72 75 35z"/>
<path d="M2281 2694 c0 -11 3 -14 6 -6 3 7 2 16 -1 19 -3 4 -6 -2 -5 -13z"/>
<path d="M3810 3355 c0 -4 24 -33 53 -65 122 -136 124 -204 5 -293 -37 -28
-138 -67 -171 -67 -16 0 -50 32 -120 111 -53 60 -97 107 -97 104 0 -14 27 -55
89 -135 93 -119 97 -123 136 -117 31 5 33 3 39 -28 4 -19 18 -43 33 -55 46
-36 53 -23 17 31 -19 28 -34 54 -34 58 0 3 57 5 127 3 122 -3 129 -4 151 -28
19 -22 22 -23 22 -7 0 10 -7 28 -15 40 -18 26 -95 37 -178 25 -32 -5 -54 -6
-50 -3 29 23 124 83 126 80 2 -2 11 -16 20 -31 10 -16 22 -28 27 -28 19 0 10
39 -14 57 -23 19 -23 19 -5 53 38 69 14 145 -72 228 -40 40 -89 76 -89 67z"/>
<path d="M3770 3299 c0 -5 5 -7 10 -4 6 3 10 8 10 11 0 2 -4 4 -10 4 -5 0 -10
-5 -10 -11z"/>
<path d="M336 3241 c10 -124 118 -664 145 -724 30 -68 -53 404 -111 633 -33
130 -39 145 -34 91z"/>
<path d="M2188 3268 c-69 -74 -128 -240 -153 -435 -15 -116 -20 -241 -9 -230
4 3 15 64 25 134 35 244 87 428 144 512 39 58 36 65 -7 19z"/>
<path d="M3631 3193 c-46 -23 -79 -43 -74 -43 27 0 104 34 134 60 42 36 42 36
-60 -17z"/>
<path d="M3921 3134 c-1 -6 -12 -28 -26 -48 -19 -29 -21 -35 -7 -27 23 12 46
55 39 73 -3 7 -6 8 -6 2z"/>
<path d="M3865 2880 c11 -5 38 -8 60 -8 38 0 39 1 10 8 -16 4 -43 8 -60 8 -25
1 -27 -1 -10 -8z"/>
<path d="M3895 2806 l-50 -14 95 -1 c121 -1 157 -12 202 -58 l37 -38 -127 0
c-103 1 -134 4 -162 19 l-35 19 24 -27 c33 -35 91 -49 175 -43 91 6 126 -5
170 -53 20 -22 36 -36 36 -32 0 16 -60 102 -70 102 -6 0 -9 4 -6 8 8 13 -37
83 -67 106 -35 26 -147 32 -222 12z"/>
<path d="M3950 2760 c-21 -7 -19 -8 15 -8 22 0 49 3 60 8 16 7 13 9 -15 8 -19
0 -46 -4 -60 -8z"/>
<path d="M960 2520 c0 -173 12 -282 45 -408 23 -86 90 -250 99 -241 2 2 -12
51 -30 107 -51 155 -94 428 -94 602 0 30 -5 62 -10 70 -7 10 -10 -33 -10 -130z"/>
<path d="M3900 2652 c0 -3 11 -24 25 -48 18 -31 39 -50 81 -70 53 -26 60 -27
163 -21 121 7 124 5 151 -62 8 -19 27 -49 42 -67 l28 -31 -45 15 c-36 12 -59
12 -116 4 -94 -14 -117 -5 -180 74 -28 35 -53 64 -55 64 -13 0 63 -124 88
-146 41 -33 71 -39 143 -25 79 14 110 13 160 -4 26 -9 35 -10 25 -2 -9 7 -14
19 -12 28 4 20 -92 165 -119 179 -11 6 -50 8 -97 4 -115 -10 -172 7 -233 66
-27 25 -49 44 -49 42z"/>
<path d="M4028 2633 c17 -2 47 -2 65 0 17 2 3 4 -33 4 -36 0 -50 -2 -32 -4z"/>
<path d="M4133 2468 c18 -6 36 -6 55 0 24 9 20 10 -28 10 -48 0 -52 -1 -27
-10z"/>
<path d="M520 2305 c0 -109 114 -420 190 -515 l20 -25 -9 25 c-5 14 -30 77
-57 140 -26 63 -69 180 -95 260 -29 86 -49 133 -49 115z"/>
<path d="M4150 2253 c46 -88 61 -96 189 -96 89 0 96 -1 41 -6 -50 -5 -59 -8
-40 -13 38 -11 62 -9 94 7 45 24 72 19 86 -15 13 -31 86 -110 101 -110 18 0 8
17 -45 81 -29 36 -61 81 -70 100 -18 39 -76 112 -83 106 -8 -9 28 -82 54 -109
l26 -28 -34 10 c-19 6 -79 10 -134 10 l-100 0 -59 63 -59 62 33 -62z"/>
<path d="M4250 2300 c-19 -6 -11 -8 33 -9 36 -1 56 3 52 9 -7 12 -49 12 -85 0z"/>
<path d="M4265 2069 c55 -109 85 -122 203 -89 128 37 134 40 57 35 -38 -2 -95
-7 -126 -11 l-57 -6 -41 55 c-55 75 -68 80 -36 16z"/>
<path d="M4568 1975 c-2 -3 -33 -11 -69 -19 -56 -12 -59 -14 -26 -15 35 -1
107 21 107 33 0 7 -5 8 -12 1z"/>
<path d="M4640 1976 c0 -18 42 -84 70 -111 32 -30 32 -30 25 -5 -4 14 -16 36
-25 50 -22 30 -70 76 -70 66z"/>
<path d="M3565 1914 c-97 -36 -131 -113 -80 -180 46 -60 210 -158 415 -250
265 -118 350 -149 509 -190 254 -66 335 -49 403 83 20 39 40 93 44 120 4 26
16 61 26 76 15 20 18 35 12 55 l-7 27 -6 -30 c-5 -23 -23 -40 -91 -83 l-85
-53 -42 48 c-50 55 -56 47 -13 -20 35 -56 52 -64 88 -46 15 7 31 15 35 17 15
7 -24 -62 -51 -91 -15 -15 -48 -34 -75 -42 -46 -14 -51 -13 -130 16 -45 17
-89 37 -99 46 -9 8 -21 12 -26 9 -20 -12 -532 192 -705 281 -95 49 -130 83
-125 122 3 23 7 26 43 24 99 -4 321 -115 577 -289 108 -74 200 -134 204 -134
16 0 -27 36 -169 143 -167 125 -239 171 -340 216 -96 43 -221 81 -270 81 l-42
1 24 19 c47 40 170 16 333 -66 110 -55 162 -88 368 -234 290 -205 362 -238
423 -190 15 12 27 27 26 33 0 8 -2 8 -6 -1 -3 -7 -17 -19 -33 -27 -53 -27
-105 0 -373 197 -197 145 -269 191 -380 243 -166 79 -293 101 -382 69z m-5
-33 c-27 -52 -1 -115 65 -161 124 -85 513 -252 864 -371 181 -61 184 -61 222
-46 48 19 52 11 4 -9 -99 -41 -337 20 -715 183 -301 130 -402 185 -482 261
-55 52 -49 103 15 142 39 24 40 24 27 1z m1274 -373 c-33 -107 -98 -188 -148
-188 l-31 0 42 20 c46 21 77 61 94 125 6 22 16 46 21 53 17 20 30 14 22 -10z"/>
<path d="M3510 1809 c0 -14 7 -34 15 -45 18 -24 18 -19 0 31 -12 33 -14 36
-15 14z"/>
<path d="M4380 1913 c0 -27 50 -122 69 -133 17 -9 38 -4 116 25 52 19 101 35
109 35 8 0 18 5 22 12 10 16 -78 4 -156 -22 -34 -12 -69 -19 -76 -16 -7 3 -29
29 -48 58 -20 29 -36 47 -36 41z"/>
<path d="M4760 1821 c0 -15 56 -91 78 -107 35 -24 28 5 -12 58 -33 43 -66 67
-66 49z"/>
<path d="M4610 1785 c-46 -18 -9 -18 45 0 31 10 34 13 15 13 -14 0 -41 -6 -60
-13z"/>
<path d="M4498 1730 c78 -142 85 -145 216 -93 83 32 92 38 66 41 -17 2 -59 -6
-93 -17 -33 -12 -68 -21 -76 -21 -9 0 -42 28 -74 62 -47 50 -55 56 -39 28z"/>
<path d="M4730 1604 l-55 -13 54 4 c30 2 59 9 65 15 12 12 7 12 -64 -6z"/>
</g>
</svg>
