<?xml version="1.0" standalone="no"?>
<!DOCTYPE svg PUBLIC "-//W3C//DTD SVG 20010904//EN"
 "http://www.w3.org/TR/2001/REC-SVG-20010904/DTD/svg10.dtd">
<svg version="1.0" xmlns="http://www.w3.org/2000/svg"
 width="512.000000pt" height="512.000000pt" viewBox="0 0 512.000000 512.000000"
 preserveAspectRatio="xMidYMid meet">

<g transform="translate(0.000000,512.000000) scale(0.100000,-0.100000)"
fill="#000000" stroke="none">
<path d="M1322 4823 c-11 -10 -94 -142 -184 -293 -91 -152 -187 -303 -214
-337 -102 -127 -186 -290 -240 -468 -26 -83 -28 -104 -28 -260 -1 -197 13
-265 89 -420 77 -160 216 -323 392 -461 75 -59 84 -70 111 -137 112 -271 154
-585 122 -922 -6 -73 -9 -141 -6 -151 4 -11 48 -46 99 -80 166 -110 320 -236
473 -389 210 -210 307 -362 333 -525 16 -102 10 -100 291 -100 281 0 275 -2
291 100 26 163 123 315 333 525 153 153 294 268 468 385 54 36 100 73 104 84
3 10 0 78 -6 151 -32 342 15 684 129 938 24 52 39 71 102 119 101 77 264 246
322 335 60 90 110 197 139 299 20 69 23 100 22 244 0 137 -4 178 -22 243 -47
171 -127 333 -227 464 -29 37 -132 200 -229 360 -97 161 -185 297 -196 303
-24 13 -470 13 -503 1 -14 -6 -28 -19 -32 -31 -4 -14 38 -124 140 -362 80
-189 142 -344 137 -346 -32 -10 -213 -122 -293 -181 -244 -178 -503 -481 -641
-747 -18 -35 -35 -64 -38 -64 -3 0 -21 30 -40 67 -186 352 -507 687 -834 872
-53 29 -96 59 -96 65 0 6 63 158 140 338 77 179 140 335 140 347 0 46 -27 51
-286 51 -216 0 -244 -2 -262 -17z m408 -98 c0 -7 -228 -542 -241 -567 -8 -15
-14 -15 -70 8 -34 14 -116 41 -182 60 -67 19 -123 36 -124 38 -2 2 58 107 134
234 l138 231 173 1 c94 0 172 -2 172 -5z m2147 -229 l140 -233 -101 -27 c-55
-15 -141 -42 -189 -61 l-88 -33 -10 22 c-70 163 -232 544 -236 554 -4 9 34 12
170 12 l174 0 140 -234z m-2716 -360 c553 -140 1023 -534 1296 -1084 l48 -97
0 -370 0 -370 -90 -3 -91 -3 -13 37 c-19 52 -85 120 -136 140 -67 25 -170 16
-224 -19 -82 -54 -129 -157 -115 -248 10 -61 62 -139 116 -172 67 -41 154 -48
226 -17 58 25 115 83 134 137 l12 33 93 0 93 0 -2 -212 -3 -213 -90 -3 -91 -3
-13 37 c-19 51 -78 114 -131 137 -162 72 -344 -48 -344 -228 0 -145 125 -257
271 -242 92 10 175 73 204 155 l11 32 94 0 94 0 -2 -583 -3 -582 -61 -3 -61
-3 -18 68 c-72 267 -358 590 -787 891 -99 70 -109 79 -103 102 13 56 17 428 6
530 -24 204 -82 413 -156 559 -27 55 -45 75 -101 116 -171 123 -337 323 -403
483 -80 194 -83 410 -8 627 50 146 199 395 237 395 10 0 60 -11 111 -24z
m2978 -48 c66 -91 162 -288 193 -393 20 -69 23 -103 23 -240 0 -158 0 -161
-36 -262 -20 -56 -60 -141 -90 -189 -63 -101 -217 -264 -330 -348 -71 -53 -79
-62 -117 -144 -54 -117 -97 -257 -124 -399 -18 -98 -22 -156 -22 -338 -1 -121
2 -249 7 -285 l7 -66 -92 -64 c-236 -164 -497 -399 -620 -561 -84 -109 -145
-222 -176 -322 l-27 -88 -60 3 -60 3 -3 583 -2 582 92 0 93 0 25 -52 c44 -90
141 -145 240 -136 147 14 251 154 220 295 -39 173 -237 253 -382 153 -40 -26
-84 -86 -94 -124 l-6 -27 -92 3 -91 3 -3 213 -2 212 94 0 c90 0 94 -1 100 -23
10 -40 64 -105 110 -132 121 -71 273 -27 341 97 69 126 10 289 -123 345 -49
20 -143 18 -194 -5 -51 -22 -111 -86 -129 -136 l-13 -37 -91 3 -90 3 0 370 0
370 57 112 c242 479 626 833 1093 1008 103 38 264 84 301 85 14 0 36 -22 73
-72z m-1987 -1815 c89 -44 87 -187 -3 -235 -141 -76 -275 103 -162 216 45 45
102 52 165 19z m961 -1 c38 -23 71 -92 62 -134 -21 -98 -118 -146 -204 -100
-99 53 -91 195 12 242 46 22 83 19 130 -8z m-955 -538 c105 -68 64 -237 -60
-251 -110 -13 -184 90 -139 192 34 76 128 104 199 59z m940 6 c34 -15 47 -29
63 -65 71 -161 -149 -273 -241 -123 -45 74 -6 173 76 198 43 13 55 11 102 -10z"/>
</g>
</svg>
