<svg viewBox="0 0 512 512" version="1.1" xmlns="http://www.w3.org/2000/svg" desc="Created with imagetracer.js version 1.2.6" ><path fill="rgb(254,254,254)" stroke="rgb(254,254,254)" stroke-width="1" opacity="1" d="M 0 0 L 512 0 L 512 512 L 134.5 512 L 134 511.5 L 134 503.5 L 136 503.5 L 136 494.5 L 137 493.5 L 138.5 477 L 139 482.5 L 143 489.5 L 145.5 498 L 146 492.5 L 144 487.5 L 144 478.5 L 140 465.5 L 140 461.5 L 134.5 444 L 134 464.5 L 137 472.5 L 134 475.5 L 133.5 501 L 128.5 496 L 118.5 491 L 120 493.5 L 132 508.5 L 133 512 L 0.5 512 L 0 511.5 L 0 0 Z M 104 44 L 104 47 L 107 46 L 104 44 Z M 86 51 L 86 52 L 88 52 L 86 51 Z M 230 63 L 230 71 L 96 71 L 95 72 L 81 72 L 79 74 L 92 75 L 98 77 L 106 77 L 111 79 L 142 79 L 143 80 L 155 80 L 156 79 L 191 79 L 192 78 L 222 75 L 229 73 L 230 74 L 230 83 L 229 85 L 243 84 L 244 83 L 246 84 L 245 86 L 248 84 L 249 85 Q 251 81 256 81 L 249 78 L 244 78 L 240 76 Q 235 77 237 72 L 241 71 L 256 76 L 257 76 L 252 70 L 243 65 L 237 65 L 230 63 Z M 282 65 L 280 67 L 284 73 L 276 73 L 274 75 L 270 75 Q 270 71 276 71 L 278 68 L 272 71 L 268 71 L 264 74 L 269 76 L 267 77 L 275 79 L 298 79 L 297 76 L 299 76 L 296 75 L 295 71 Q 292 72 293 69 L 288 65 L 282 65 Z M 68 67 L 67 71 L 69 70 L 68 67 Z M 435 69 L 434 70 L 405 71 L 398 73 L 378 73 L 377 74 L 365 74 L 364 75 L 351 75 L 350 76 L 305 76 L 304 75 L 302 76 L 304 77 L 315 79 L 384 79 L 385 78 L 407 76 L 408 75 L 419 75 L 437 71 L 437 81 L 439 83 L 443 98 Q 449 110 458 120 L 459 124 L 463 127 L 463 119 L 455 103 L 454 98 L 438 71 L 440 70 L 435 69 Z M 59 73 Q 58 77 61 76 Q 62 72 59 73 Z M 75 73 L 70 89 L 60 104 L 54 120 L 53 127 L 51 130 L 52 134 L 65 116 L 75 89 L 75 73 Z M 261 74 Q 258 76 261 77 L 261 75 L 263 75 L 261 74 Z M 262 77 L 261 80 Q 266 87 267 98 L 271 106 L 271 110 L 275 113 Q 283 112 287 114 L 284 107 L 268 83 L 262 77 Z M 86 78 L 84 81 L 86 80 L 86 78 Z M 432 80 L 425 82 L 425 83 L 432 82 L 433 81 L 432 80 Z M 416 82 L 409 84 L 380 86 L 370 88 L 300 89 L 307 91 L 362 91 Q 361 99 367 101 L 371 96 L 370 91 L 374 90 L 393 89 L 394 88 L 401 88 L 414 85 L 419 85 L 422 83 L 416 82 Z M 112 84 Q 110 89 114 88 L 115 86 Q 116 82 112 84 Z M 248 85 L 242 95 Q 243 97 240 96 Q 241 100 238 103 L 239 115 L 242 110 L 248 93 L 248 85 Z M 78 88 L 76 90 L 79 91 Q 80 87 78 88 Z M 103 90 L 103 91 L 108 93 L 116 93 L 125 95 L 195 95 L 204 93 L 222 93 L 228 91 L 103 90 Z M 87 95 L 88 97 Q 89 94 87 95 Z M 157 96 L 153 101 L 153 105 Q 154 108 159 108 Q 163 107 162 100 L 157 96 Z M 102 98 L 102 101 L 105 100 Q 106 96 102 98 Z M 115 102 L 113 105 L 116 104 Q 117 101 115 102 Z M 379 104 L 368 108 Q 365 109 366 107 L 364 106 L 365 108 L 358 109 L 358 110 L 365 109 L 368 135 L 370 140 L 370 147 L 378 166 L 382 180 L 395 206 L 396 206 L 393 187 L 390 180 L 387 165 L 383 157 Q 381 143 375 133 L 378 134 L 393 134 L 406 130 L 409 132 L 409 138 L 400 153 L 401 155 L 413 133 L 410 128 L 402 128 L 396 131 L 379 132 L 378 130 L 381 128 L 392 113 L 400 105 L 392 104 L 377 123 L 373 125 Q 372 116 367 110 L 372 107 L 382 105 L 379 104 Z M 287 106 L 317 136 L 323 140 L 343 163 Q 348 173 356 181 L 362 192 L 371 203 L 373 204 L 365 185 L 338 147 L 322 130 L 301 114 L 287 106 Z M 106 112 L 106 116 L 108 115 Q 109 111 106 112 Z M 154 115 L 146 118 L 137 118 L 129 121 L 129 122 L 138 122 L 147 119 L 157 118 L 157 122 L 156 122 L 153 127 L 150 128 L 134 148 L 135 154 L 142 159 L 137 175 L 137 183 L 136 184 L 137 200 L 146 177 L 150 162 L 158 164 L 161 164 L 154 159 L 151 159 L 154 144 L 154 129 L 159 125 Q 163 124 162 118 Q 160 114 154 115 Z M 261 116 L 260 119 Q 258 123 252 122 Q 254 132 248 134 Q 240 131 242 139 L 240 140 L 238 140 Q 235 139 236 142 L 236 143 L 238 142 L 246 142 L 246 140 L 251 140 L 256 138 L 256 130 L 258 128 Q 261 129 260 126 L 266 131 L 265 136 L 271 140 Q 276 139 278 142 L 288 142 L 284 139 Q 276 142 278 136 Q 277 133 273 134 Q 268 132 270 129 Q 267 130 268 124 L 265 122 L 261 116 Z M 229 118 L 219 128 Q 203 137 191 151 Q 192 153 190 152 L 181 163 L 170 184 Q 171 186 168 185 Q 163 187 166 189 L 166 192 L 160 202 L 157 204 L 155 207 L 158 208 L 160 207 L 161 205 L 161 203 L 166 203 L 166 201 L 164 201 L 167 199 L 171 193 Q 173 194 172 191 Q 173 188 177 189 L 179 186 Q 182 185 181 188 L 184 189 L 190 189 L 196 183 L 196 179 L 194 172 L 191 184 L 189 185 Q 181 187 179 183 L 188 164 L 203 146 L 215 138 Q 224 131 229 120 L 229 118 Z M 120 122 L 118 123 L 118 124 Q 124 125 127 123 L 120 122 Z M 73 126 Q 81 140 94 152 L 99 162 L 111 178 L 119 193 L 121 194 L 113 166 Q 108 162 107 156 L 87 135 L 73 126 Z M 448 127 L 430 137 L 415 153 L 411 155 L 405 165 L 400 188 L 401 190 Q 405 177 413 169 L 414 164 L 449 128 L 448 127 Z M 456 128 L 455 132 L 457 131 L 456 128 Z M 472 128 L 469 130 L 460 143 L 460 151 Q 456 150 454 153 L 446 153 L 442 156 Q 441 158 445 157 L 444 160 L 443 158 Q 439 160 443 162 Q 444 166 442 165 L 443 168 Q 444 170 441 169 L 441 171 L 438 171 L 429 176 L 429 177 Q 435 178 437 174 Q 440 173 439 176 L 443 176 Q 442 172 445 170 L 445 160 Q 450 162 449 158 Q 452 157 451 160 L 454 158 L 463 158 L 463 152 Q 466 153 465 150 L 469 150 Q 471 145 465 147 L 465 142 Q 466 139 471 140 L 471 136 L 470 136 L 468 137 L 472 130 L 472 128 Z M 50 134 L 53 142 L 53 146 L 57 148 Q 58 152 55 151 Q 54 155 57 154 Q 61 157 59 166 L 65 162 L 69 163 L 72 162 L 73 162 Q 72 166 77 164 Q 79 160 75 161 L 75 160 L 68 159 Q 65 156 61 157 L 61 149 L 55 139 L 50 134 Z M 416 138 Q 414 141 417 140 L 416 138 Z M 231 146 L 227 152 L 230 151 Q 232 152 231 150 L 231 148 L 231 146 Z M 291 147 L 290 151 Q 293 152 291 154 Q 289 159 294 158 L 295 159 L 291 147 Z M 227 152 L 225 154 L 227 154 L 227 152 Z M 230 153 L 226 156 L 226 158 L 231 158 Q 232 154 230 153 Z M 225 154 L 224 155 Q 219 153 220 157 L 222 157 Q 221 159 225 158 L 225 154 Z M 221 158 L 220 159 Q 217 158 218 161 L 218 162 L 221 161 L 221 158 Z M 226 158 L 222 159 L 222 162 L 227 162 L 226 158 Z M 297 158 Q 294 159 295 164 L 298 163 L 300 164 Q 302 163 301 166 L 306 169 L 307 168 L 324 168 L 325 171 L 325 173 L 326 175 L 325 179 L 327 178 L 326 180 L 327 182 Q 326 184 329 183 L 329 185 L 335 187 L 343 187 L 343 185 L 346 186 L 349 185 L 348 188 L 349 189 L 351 186 Q 353 188 352 193 L 355 195 L 354 199 L 356 199 Q 355 196 358 197 Q 360 198 358 200 Q 357 202 361 201 L 363 201 L 365 201 L 357 189 L 356 183 L 353 179 Q 345 181 344 176 L 341 177 Q 338 176 339 179 L 333 179 Q 331 176 328 177 L 326 169 L 329 168 Q 330 164 327 163 Q 323 162 325 166 L 323 165 L 309 165 L 309 163 L 308 165 L 303 163 L 303 165 L 301 161 Q 298 162 299 160 L 297 158 Z M 77 159 L 78 161 L 79 161 L 77 159 Z M 482 161 Q 481 164 484 163 Q 485 160 482 161 Z M 313 162 L 311 164 L 314 164 Q 315 161 313 162 Z M 196 163 L 193 166 L 195 169 L 197 168 L 197 163 L 196 163 Z M 201 163 L 199 165 Q 198 168 202 166 L 201 163 Z M 207 163 L 205 165 Q 204 168 208 166 L 207 163 Z M 216 163 L 216 165 Q 217 167 221 166 L 221 163 L 216 163 Z M 435 163 Q 434 166 437 165 Q 438 162 435 163 Z M 80 165 L 79 169 L 78 168 L 76 169 Q 79 171 78 177 L 82 182 Q 85 183 84 180 L 87 181 L 86 183 L 89 182 L 92 183 L 92 185 Q 95 186 94 184 L 97 182 L 98 180 L 96 181 Q 89 181 87 177 L 83 177 Q 79 175 81 169 L 80 165 Z M 213 165 L 211 168 L 214 167 Q 215 164 213 165 Z M 464 170 L 462 173 L 465 174 L 465 170 L 464 170 Z M 425 173 Q 424 178 428 176 Q 430 172 425 173 Z M 104 175 L 100 182 L 98 185 L 100 184 Q 99 192 104 194 Q 105 196 102 195 Q 101 200 104 200 L 104 207 Q 107 206 106 211 Q 111 213 109 207 L 112 207 Q 112 213 117 215 L 117 203 L 111 204 L 111 198 L 103 188 L 103 178 L 104 177 L 104 175 Z M 421 176 L 421 178 L 420 180 L 421 181 L 421 189 L 417 191 Q 418 196 415 199 L 415 204 L 413 204 L 411 203 Q 407 202 409 208 L 411 207 L 411 211 L 414 211 L 414 205 L 419 203 L 420 202 L 421 191 L 424 187 Q 425 180 422 178 Q 423 175 421 176 Z M 430 179 L 428 181 L 431 181 Q 432 178 430 179 Z M 438 179 L 437 181 L 439 182 L 438 179 Z M 453 183 L 453 185 L 455 184 L 453 183 Z M 464 187 L 464 189 L 467 188 L 464 187 Z M 457 197 L 458 201 L 459 199 Q 460 196 457 197 Z M 364 203 L 364 209 L 369 209 L 368 206 Q 369 201 364 203 Z M 484 204 Q 481 206 484 207 Q 487 206 484 204 Z M 408 209 L 408 211 L 406 212 L 406 214 L 404 214 L 403 210 L 401 215 L 403 218 L 404 232 L 409 248 L 409 255 L 411 263 L 421 292 L 422 292 L 422 283 L 418 272 L 412 242 L 406 222 L 404 219 L 406 216 L 408 217 L 410 214 Q 412 208 408 209 Z M 120 211 L 116 224 L 113 229 L 107 263 L 98 299 L 99 301 L 101 297 L 103 286 L 105 284 L 109 272 L 118 229 L 118 222 L 120 221 L 119 219 L 120 215 L 120 211 Z M 154 211 L 153 221 L 151 221 L 151 218 L 149 223 L 150 260 L 150 258 L 154 257 L 151 256 L 154 242 L 154 230 L 156 229 L 157 230 Q 158 226 154 228 L 154 219 L 155 218 Q 156 212 154 211 Z M 387 211 L 386 217 L 388 218 L 387 211 Z M 152 213 L 151 216 L 152 216 L 152 213 Z M 369 213 L 368 264 L 370 275 L 373 322 L 374 323 L 374 339 L 372 339 L 372 358 L 374 359 L 379 359 L 386 357 L 374 354 L 375 342 L 376 344 L 376 341 Q 383 342 387 339 L 376 338 L 376 297 L 375 296 L 375 279 L 374 278 L 374 260 L 373 259 L 374 257 L 374 221 L 373 216 L 372 239 L 371 222 L 369 213 Z M 136 215 L 134 221 L 136 220 L 136 215 Z M 114 216 L 114 219 L 116 218 Q 117 215 114 216 Z M 389 219 L 389 223 L 390 223 L 389 219 Z M 173 221 Q 172 225 175 224 Q 176 220 173 221 Z M 134 224 L 132 228 L 134 227 L 134 224 Z M 386 224 L 385 248 L 384 249 L 384 320 L 385 325 L 386 325 L 386 224 Z M 130 229 L 127 235 L 128 237 L 130 232 L 130 229 Z M 396 230 L 395 240 L 406 283 L 413 302 Q 414 304 411 303 L 411 308 L 415 315 L 415 324 Q 419 329 419 338 L 436 388 L 439 390 L 439 384 L 436 380 L 417 320 L 427 316 L 429 320 L 432 321 L 432 306 L 431 303 L 427 301 L 427 303 L 427 315 L 418 315 L 414 306 L 425 302 L 425 301 Q 418 300 415 303 L 412 296 L 412 289 L 409 282 L 407 266 L 402 244 L 400 237 L 396 230 Z M 477 232 Q 476 235 479 234 Q 480 231 477 232 Z M 126 241 L 123 246 L 116 274 L 114 284 L 114 295 L 111 302 L 113 302 L 121 275 L 126 252 L 126 241 Z M 134 244 L 134 248 Q 140 250 138 245 L 134 244 Z M 128 250 L 128 253 L 130 254 Q 131 249 128 250 Z M 160 251 L 160 253 L 162 254 Q 163 250 160 251 Z M 152 259 L 150 278 L 149 279 L 150 325 L 151 321 L 151 303 L 152 302 L 152 259 Z M 181 261 Q 179 266 183 265 Q 185 260 181 261 Z M 143 266 Q 142 269 146 268 Q 147 265 143 266 Z M 155 272 Q 154 275 157 274 Q 158 271 155 272 Z M 139 275 L 139 328 L 142 322 L 142 310 L 140 302 L 140 287 L 139 286 L 139 275 Z M 171 275 L 171 278 L 173 277 Q 174 274 171 275 Z M 183 279 L 183 281 L 183 282 L 185 281 Q 186 278 183 279 Z M 175 289 L 175 293 L 177 292 Q 178 288 175 289 Z M 201 297 Q 200 300 203 299 Q 204 296 201 297 Z M 112 303 L 111 305 L 100 306 L 108 310 L 104 319 L 102 318 L 95 318 L 95 308 L 98 306 L 98 305 Q 93 304 92 307 L 92 309 L 90 310 L 90 324 L 92 325 L 90 328 L 88 337 L 86 339 L 86 344 L 82 357 L 75 371 L 72 384 Q 66 383 65 388 Q 63 396 66 400 L 67 400 L 67 390 L 71 390 L 72 393 L 75 388 Q 76 383 73 384 L 81 368 L 85 357 L 85 353 L 89 344 L 89 336 L 91 335 Q 94 331 93 323 L 96 320 L 97 321 L 104 321 L 100 339 L 88 373 L 85 391 L 79 388 L 75 389 L 83 394 L 88 401 L 88 403 Q 80 403 75 398 L 74 400 Q 77 406 85 407 Q 80 422 72 436 L 70 444 L 65 452 Q 66 459 63 462 Q 64 466 60 464 L 58 456 L 53 448 L 57 438 L 63 430 L 65 423 L 65 417 L 67 415 L 67 402 L 63 414 L 57 425 L 57 429 L 53 437 L 51 448 L 49 446 L 47 445 L 47 455 L 55 467 L 59 466 L 59 477 L 61 478 L 65 465 L 78 438 L 81 426 L 87 412 L 87 408 L 93 404 Q 94 399 91 398 L 88 396 L 88 392 L 92 385 L 98 366 L 99 354 L 105 332 L 105 328 L 108 321 L 109 311 L 112 307 L 112 303 Z M 433 321 L 433 333 L 435 335 L 440 356 L 442 358 Q 443 366 447 371 Q 446 373 449 372 L 452 380 L 451 383 Q 452 385 456 384 L 455 383 L 459 382 L 460 392 L 461 390 Q 463 382 460 379 Q 459 375 453 376 L 433 321 Z M 147 340 L 141 342 L 136 342 L 136 353 L 138 353 L 138 343 L 147 345 L 151 345 L 151 358 L 141 360 L 141 361 L 152 361 L 153 360 L 154 360 L 154 341 Q 152 339 147 340 Z M 388 340 L 389 343 L 388 345 L 389 352 Q 394 350 392 342 L 388 340 Z M 391 360 L 390 409 Q 393 416 392 429 L 393 430 L 378 427 L 378 426 L 378 368 L 377 364 L 376 364 L 376 427 L 372 427 L 373 434 L 375 430 L 376 432 L 376 430 L 383 430 Q 384 434 390 432 L 390 443 L 380 443 L 378 441 L 374 438 Q 373 444 376 446 L 379 447 L 388 447 Q 387 444 391 445 L 394 438 L 394 388 L 393 387 L 393 377 L 392 376 L 392 365 L 391 360 Z M 150 362 L 149 427 Q 143 426 141 429 L 134 429 L 132 431 L 132 435 L 137 445 L 138 445 L 137 436 L 142 436 L 149 431 L 151 431 L 152 435 L 154 434 Q 156 426 152 427 L 152 369 L 150 362 Z M 136 376 L 135 388 L 134 389 L 135 412 L 135 402 L 136 401 L 136 376 Z M 450 383 L 446 385 L 437 395 L 437 399 L 439 401 L 441 410 L 443 412 L 449 427 L 450 433 L 460 453 L 461 458 L 465 464 L 466 469 L 469 471 L 471 465 L 473 465 Q 472 462 475 463 L 481 451 L 481 443 L 478 446 L 477 454 L 474 461 Q 473 464 471 461 Q 471 456 474 456 L 478 443 L 478 441 L 474 446 L 469 458 L 464 450 L 461 437 L 444 403 L 450 400 L 457 392 L 447 397 Q 440 398 441 396 L 444 394 L 448 385 L 451 384 L 450 383 Z M 461 400 L 460 408 L 477 440 L 479 441 Q 474 416 461 400 Z M 399 428 L 399 442 L 401 450 L 410 475 L 412 476 L 412 470 L 406 455 L 404 444 L 400 436 L 399 428 Z M 130 429 L 122 447 L 118 464 Q 116 470 119 472 L 118 475 L 119 483 L 127 458 L 128 441 L 130 437 L 130 429 Z M 152 439 L 151 442 L 147 445 Q 140 443 141 447 Q 144 450 151 449 L 151 474 L 158 502 L 159 503 L 154 499 L 152 500 L 164 509 L 158 485 L 158 478 L 156 473 L 156 467 L 154 460 L 154 447 L 156 445 L 155 442 Q 154 439 153 441 L 152 439 Z M 394 441 Q 391 445 392 453 L 389 461 L 389 466 L 386 474 L 386 483 L 384 487 L 385 492 L 390 480 L 392 489 L 392 494 L 395 502 L 396 502 L 396 498 L 394 495 L 392 482 L 390 477 L 394 464 L 394 441 Z M 376 458 L 374 471 L 370 485 L 370 491 L 368 494 L 368 502 L 366 505 L 369 504 Q 371 505 370 503 L 376 499 L 381 493 L 371 498 L 371 491 L 376 470 L 376 458 Z M 412 477 L 412 483 L 414 484 L 412 477 Z M 408 489 L 405 491 L 395 504 Q 393 509 397 508 L 408 491 L 408 489 Z " /><path fill="rgb(254,254,254)" stroke="rgb(254,254,254)" stroke-width="1" opacity="1" d="M 148.5 135 L 149 136.5 L 141.5 155 Q 137 154 138 147.5 L 148.5 135 Z " /><path fill="rgb(254,254,254)" stroke="rgb(254,254,254)" stroke-width="1" opacity="1" d="M 51 449 Q 54.3 447.7 53 452.5 L 55 457.5 L 53 456.5 L 51 449 Z " /><path fill="rgb(2,2,2)" stroke="rgb(2,2,2)" stroke-width="1" opacity="1" d="M 231 64 Q 234.5 65.7 241.5 65 L 247.5 68 L 255 74.5 L 253.5 74 L 244.5 71 L 236 71 L 236 77 L 240.5 77 L 244.5 79 Q 250.9 78.1 254 80.5 L 250 82 Q 251.1 84.7 248.5 84 L 245.5 83 L 230 84 L 231 73 Q 223.4 72.1 218.5 75 L 211.5 75 L 210.5 76 L 201.5 76 L 194.5 78 L 140.5 79 Q 138.7 76.2 132.5 78 L 130.5 78 L 109.5 78 L 94.5 75 L 92.5 75 L 84 73.5 L 99.5 72 L 100.5 71 L 231 71 L 231 64 Z " /><path fill="rgb(2,2,2)" stroke="rgb(2,2,2)" stroke-width="1" opacity="1" d="M 282.5 65 L 287.5 65 L 292 69.5 Q 291.3 71.8 293.5 71 L 297 77.5 L 273.5 78 L 269 76.5 L 274.5 75 L 276.5 73 L 285 73 L 281 66.5 L 282.5 65 Z " /><path fill="rgb(2,2,2)" stroke="rgb(2,2,2)" stroke-width="1" opacity="1" d="M 273.5 70 L 272.5 72 Q 270.8 74.8 265.5 74 L 265.5 73 L 273.5 70 Z " /><path fill="rgb(2,2,2)" stroke="rgb(2,2,2)" stroke-width="1" opacity="1" d="M 421.5 70 L 435 70.5 L 415.5 75 L 403.5 75 L 397.5 77 L 387.5 77 L 386.5 78 L 312.5 78 L 306 76.5 L 312.5 76 L 313.5 77 L 343.5 77 L 344.5 76 L 358.5 76 L 359.5 75 L 371.5 75 L 372.5 74 L 401.5 73 L 402.5 72 L 420.5 71 L 421.5 70 Z " /><path fill="rgb(2,2,2)" stroke="rgb(2,2,2)" stroke-width="1" opacity="1" d="M 437.5 71 L 442 76.5 L 453 96.5 L 454 101.5 L 462 117.5 L 463 125.5 L 459 122.5 L 458 118.5 Q 449.4 110.1 444 98.5 L 440 83.5 L 437 77.5 L 437.5 71 Z " /><path fill="rgb(2,2,2)" stroke="rgb(2,2,2)" stroke-width="1" opacity="1" d="M 59.5 73 Q 62.1 72.2 61 75.5 L 60 75.5 L 59.5 73 Z " /><path fill="rgb(2,2,2)" stroke="rgb(2,2,2)" stroke-width="1" opacity="1" d="M 74.5 75 L 75 82.5 Q 69.5 113 52.5 132 L 52 128.5 L 54 125.5 L 54 121.5 L 61 102.5 L 71 87.5 L 74.5 75 Z " /><path fill="rgb(2,2,2)" stroke="rgb(2,2,2)" stroke-width="1" opacity="1" d="M 262 79 L 268 83.5 L 287 113.5 L 285.5 113 L 273.5 112 L 272 110.5 L 272 106.5 L 270 104.5 L 270 101.5 L 262 79 Z " /><path fill="rgb(2,2,2)" stroke="rgb(2,2,2)" stroke-width="1" opacity="1" d="M 413.5 83 L 420 83.5 L 395.5 88 L 383.5 88 Q 376.9 90.9 367 90.5 L 370 92.5 L 370 96.5 L 368 100 L 363 96.5 Q 363.8 90.3 362.5 90 L 305.5 90 L 305.5 89 L 367.5 89 L 375.5 87 L 386.5 87 L 387.5 86 L 404.5 85 L 413.5 83 Z " /><path fill="rgb(2,2,2)" stroke="rgb(2,2,2)" stroke-width="1" opacity="1" d="M 113.5 84 L 114 86.5 L 113 86.5 L 113.5 84 Z " /><path fill="rgb(2,2,2)" stroke="rgb(2,2,2)" stroke-width="1" opacity="1" d="M 247.5 86 L 248 91.5 L 239.5 113 L 239 102.5 L 241 96.5 L 247.5 86 Z " /><path fill="rgb(2,2,2)" stroke="rgb(2,2,2)" stroke-width="1" opacity="1" d="M 107.5 91 L 223 91.5 L 207.5 92 L 197.5 94 L 121.5 94 L 120.5 93 L 107.5 92 L 107.5 91 Z " /><path fill="rgb(2,2,2)" stroke="rgb(2,2,2)" stroke-width="1" opacity="1" d="M 156 97 L 161 99.5 L 161 104.5 L 159 108 L 154 106 L 154 100.5 L 156 97 Z " /><path fill="rgb(2,2,2)" stroke="rgb(2,2,2)" stroke-width="1" opacity="1" d="M 391.5 105 L 398 105.5 L 379.5 128 L 378 128 L 378 132 L 392.5 132 Q 393.8 129.7 398.5 131 L 403.5 128 L 407.5 128 L 412 130.5 L 412 134.5 L 406.5 143 L 407 141.5 Q 410.9 138.9 410 131.5 Q 408.8 128.8 403.5 130 L 395.5 133 L 378.5 134 L 374.5 131 L 374 132.5 L 386 163.5 L 389 178.5 L 393 189.5 L 395 202.5 L 394 202.5 L 381 175.5 L 379 166.5 L 371 147.5 L 365 107.5 L 366 107.5 Q 371.4 116.1 373.5 128 L 391.5 105 Z " /><path fill="rgb(2,2,2)" stroke="rgb(2,2,2)" stroke-width="1" opacity="1" d="M 288.5 107 L 319.5 129 L 337 146.5 L 360 177.5 L 371 200.5 L 370 200.5 L 342 160.5 L 323.5 140 L 318.5 137 L 288.5 107 Z " /><path fill="rgb(2,2,2)" stroke="rgb(2,2,2)" stroke-width="1" opacity="1" d="M 152.5 116 Q 159.3 114.2 161 117.5 L 160 124 L 153 128.5 L 153 146.5 Q 149.7 151.4 151 160 Q 156 159.2 158 162.5 L 156.5 163 L 150 161 L 136.5 199 L 136 186.5 L 138 179.5 L 138 172.5 L 142 162.5 L 142 157 Q 137.3 156.6 135 152.5 L 136 145.5 L 150.5 128 L 154 125.5 L 158 120.5 L 158 117 Q 155.3 118.9 148.5 118 L 148.5 117 L 152.5 116 Z M 151 131 L 137 149 L 138 153 Q 139 156 143 155 L 144 149 L 151 133 L 151 131 Z " /><path fill="rgb(2,2,2)" stroke="rgb(2,2,2)" stroke-width="1" opacity="1" d="M 142.5 118 L 147 118.5 L 134.5 122 L 129.5 122 L 129.5 121 L 142.5 118 Z " /><path fill="rgb(2,2,2)" stroke="rgb(2,2,2)" stroke-width="1" opacity="1" d="M 260.5 118 L 263.5 122 Q 267.5 121.5 268 124.5 Q 266.5 132.5 271.5 134 Q 276 133 277 135.5 Q 276.5 139.5 279.5 140 L 286 140.5 L 277.5 141 L 270.5 139 L 266 135.5 Q 267.5 126.5 261.5 125 Q 259.3 124.3 260 126.5 L 256 128 L 256 136.5 L 254.5 137 L 245.5 141 L 241.5 141 L 242 139.5 L 243 134 Q 250.2 135.5 252 130.5 L 252 123.5 L 253.5 123 L 258 122 L 258 120 Q 260.8 121 260.5 118 Z " /><path fill="rgb(2,2,2)" stroke="rgb(2,2,2)" stroke-width="1" opacity="1" d="M 227.5 120 L 227 121.5 Q 222.3 131.3 214.5 138 L 210.5 139 L 199 149.5 Q 195.5 158 188 162.5 L 178 182.5 L 179.5 185 Q 177.3 184.3 178 186.5 Q 176.7 190 172 189 L 171 193 Q 168.3 191.9 169 194.5 L 164 200.5 L 164.5 202 L 159 205.5 Q 159.7 208.5 156 207 L 157.5 204 L 160 202.5 L 167 188.5 Q 164.8 187.3 167.5 186 L 171 183.5 L 185 157.5 L 200.5 142 L 219.5 128 L 227.5 120 Z " /><path fill="rgb(2,2,2)" stroke="rgb(2,2,2)" stroke-width="1" opacity="1" d="M 118.5 123 L 121 123.5 L 118.5 124 L 118.5 123 Z " /><path fill="rgb(2,2,2)" stroke="rgb(2,2,2)" stroke-width="1" opacity="1" d="M 74.5 127 L 92 140.5 L 107 156.5 L 112 165.5 Q 117 176 119 189.5 L 118 189.5 L 106 168.5 L 99 160.5 L 94 150.5 L 83 139.5 L 74 128.5 L 74.5 127 Z " /><path fill="rgb(2,2,2)" stroke="rgb(2,2,2)" stroke-width="1" opacity="1" d="M 445.5 129 L 442 133.5 L 414 162.5 L 413 167.5 L 402.5 184 L 402 179.5 L 406 164.5 L 411 156 L 415 153.5 L 430.5 137 L 445.5 129 Z " /><path fill="rgb(2,2,2)" stroke="rgb(2,2,2)" stroke-width="1" opacity="1" d="M 469.5 130 L 470 131.5 L 467 138 L 469.5 137 L 470 139 L 466.5 138 L 465 139.5 L 464 147.5 L 465.5 147 L 468 148.5 L 464 149 L 463 155.5 L 461.5 157 L 452.5 158 L 448 157 Q 449.1 160.3 445 159 L 446 156.5 L 444.5 156 L 443 156.5 L 444.5 154 L 452.5 154 L 461 150.5 L 461 141.5 L 469.5 130 Z " /><path fill="rgb(2,2,2)" stroke="rgb(2,2,2)" stroke-width="1" opacity="1" d="M 50.5 135 L 55 139.5 L 61 149.5 L 61 158 Q 66.3 157 68.5 160 L 73.5 160 L 76 162.5 L 73 163 L 72.5 161 L 63 161 L 61.5 165 L 59 165 L 59 159.5 Q 61.5 158 58 156.5 L 57 153 L 55 152.5 L 57 152 L 57 146.5 L 55.5 146 L 53 145 Q 53.7 138 50.5 135 Z " /><path fill="rgb(2,2,2)" stroke="rgb(2,2,2)" stroke-width="1" opacity="1" d="M 404.5 146 L 404 147.5 L 402.5 150 L 403 148.5 L 404.5 146 Z " /><path fill="rgb(2,2,2)" stroke="rgb(2,2,2)" stroke-width="1" opacity="1" d="M 229.5 148 L 230 149.5 L 227 151.5 L 229.5 148 Z " /><path fill="rgb(2,2,2)" stroke="rgb(2,2,2)" stroke-width="1" opacity="1" d="M 228.5 154 Q 231.5 153.2 230 157 Q 226.3 158.5 227 155.5 L 228.5 154 Z " /><path fill="rgb(2,2,2)" stroke="rgb(2,2,2)" stroke-width="1" opacity="1" d="M 297.5 158 L 299 162 Q 301.7 160.9 301 163.5 L 298.5 162 L 296.5 163 L 295 160.5 L 297.5 158 Z " /><path fill="rgb(2,2,2)" stroke="rgb(2,2,2)" stroke-width="1" opacity="1" d="M 224.5 159 Q 227.1 158.3 226 161 L 223 160.5 L 224.5 159 Z " /><path fill="rgb(2,2,2)" stroke="rgb(2,2,2)" stroke-width="1" opacity="1" d="M 444.5 160 L 445 169.5 Q 442 170.8 443 175 L 439 174.5 L 439.5 173 L 437.5 173 L 432.5 177 L 429.5 177 L 429.5 176 L 437.5 172 L 441 172 Q 440.3 168.9 443 169.5 L 443 161.5 L 444.5 160 Z " /><path fill="rgb(2,2,2)" stroke="rgb(2,2,2)" stroke-width="1" opacity="1" d="M 194 164 Q 198.5 162.5 197 167 L 194.5 168 Q 191.8 166.8 194 165.5 L 194 164 Z " /><path fill="rgb(2,2,2)" stroke="rgb(2,2,2)" stroke-width="1" opacity="1" d="M 217.5 164 L 220 164.5 L 217.5 165 L 217.5 164 Z " /><path fill="rgb(2,2,2)" stroke="rgb(2,2,2)" stroke-width="1" opacity="1" d="M 325 164 Q 328.8 162.5 328 165.5 L 328.5 167 L 324.5 168 L 323.5 167 L 307.5 167 L 304 168 L 304.5 166 L 323.5 166 L 325 166.5 L 325 164 Z " /><path fill="rgb(2,2,2)" stroke="rgb(2,2,2)" stroke-width="1" opacity="1" d="M 79.5 169 L 81 177 L 86.5 178 L 90.5 181 L 96 181.5 L 87.5 182 L 86.5 179 L 83 179.5 L 83.5 181 Q 79.8 182.3 81 178.5 Q 76.9 176.4 79.5 169 Z " /><path fill="rgb(2,2,2)" stroke="rgb(2,2,2)" stroke-width="1" opacity="1" d="M 193.5 173 Q 195.9 176.1 195 182.5 Q 192.6 188.6 184.5 189 L 181 186.5 L 181.5 185 L 189.5 185 Q 194.4 181.9 193.5 173 Z " /><path fill="rgb(2,2,2)" stroke="rgb(2,2,2)" stroke-width="1" opacity="1" d="M 327 177 Q 331.5 176.8 333.5 180 L 337.5 180 Q 338.9 176.4 344.5 177 Q 345.8 181.3 352.5 180 L 356 183.5 L 356 187.5 L 363 199.5 L 361.5 199 Q 359.3 198.3 360 200.5 L 359 200.5 L 360 198.5 L 356 196 L 355.5 198 L 355 196.5 L 356 194.5 L 353 193 L 351 185 L 343.5 185 L 341.5 187 L 340.5 185 Q 339.8 187.8 335.5 187 L 327 183 L 327 177 Z " /><path fill="rgb(2,2,2)" stroke="rgb(2,2,2)" stroke-width="1" opacity="1" d="M 421.5 177 Q 424.1 180.6 423 187 L 421 186.5 Q 423.3 185.2 422 180.5 L 421.5 177 Z " /><path fill="rgb(2,2,2)" stroke="rgb(2,2,2)" stroke-width="1" opacity="1" d="M 101.5 180 L 103 188.5 L 110 196.5 L 110 205 L 115.5 204 L 116 212.5 L 115 212.5 L 111.5 206 Q 106.3 204.3 108 209.5 L 107 209.5 L 108 205.5 L 106.5 205 L 105 205.5 L 104 203.5 Q 106.7 201.8 105 195.5 L 104 195.5 L 103.5 199 L 103 195.5 L 104 192.5 L 101 189.5 L 101.5 180 Z " /><path fill="rgb(2,2,2)" stroke="rgb(2,2,2)" stroke-width="1" opacity="1" d="M 420.5 190 L 420 191.5 Q 417.7 194.7 419 201.5 L 417.5 203 Q 414.8 203.6 416 197.5 Q 419.2 196.1 418 191 L 420.5 190 Z " /><path fill="rgb(2,2,2)" stroke="rgb(2,2,2)" stroke-width="1" opacity="1" d="M 457 197 L 459 197.5 L 457.5 200 L 457 197 Z " /><path fill="rgb(2,2,2)" stroke="rgb(2,2,2)" stroke-width="1" opacity="1" d="M 365 203 L 368 204.5 Q 369.5 209.8 365 208 L 365 203 Z " /><path fill="rgb(2,2,2)" stroke="rgb(2,2,2)" stroke-width="1" opacity="1" d="M 413.5 204 L 414 205.5 L 412.5 210 L 412 205.5 L 413.5 204 Z " /><path fill="rgb(2,2,2)" stroke="rgb(2,2,2)" stroke-width="1" opacity="1" d="M 408.5 211 L 409 214.5 Q 407.6 217.3 403 216 L 403.5 213 L 404 215 L 407 213.5 L 408.5 211 Z " /><path fill="rgb(2,2,2)" stroke="rgb(2,2,2)" stroke-width="1" opacity="1" d="M 386.5 213 L 387 215.5 L 386 215.5 L 386.5 213 Z " /><path fill="rgb(2,2,2)" stroke="rgb(2,2,2)" stroke-width="1" opacity="1" d="M 118.5 219 L 118 220.5 L 118 226.5 L 116 231.5 L 113 253.5 L 107 276.5 L 102.5 286 L 102 284.5 L 110 251.5 L 114 227.5 L 118.5 219 Z " /><path fill="rgb(2,2,2)" stroke="rgb(2,2,2)" stroke-width="1" opacity="1" d="M 369.5 219 L 370 235.5 L 371.5 244 L 372.5 220 L 374 222.5 L 374 253.5 L 373 253.5 L 372.5 249 L 372 254.5 L 373 255.5 L 373 266.5 L 374 267.5 L 376 339 L 383 339.5 L 376 340 L 375.5 342 L 374.5 340 L 374 353.5 L 373 354.5 L 383 356.5 Q 379.4 359.1 373 358 L 372 355.5 L 372 341.5 L 373 339 Q 376 340.3 375 336.5 L 374 335.5 L 374 316.5 L 373 315.5 L 373 305.5 L 372 304.5 L 371 278.5 L 369 268.5 L 369.5 219 Z " /><path fill="rgb(2,2,2)" stroke="rgb(2,2,2)" stroke-width="1" opacity="1" d="M 150.5 220 L 151 255.5 L 150 255.5 L 150.5 220 Z " /><path fill="rgb(2,2,2)" stroke="rgb(2,2,2)" stroke-width="1" opacity="1" d="M 404.5 220 L 412 244.5 L 418 274.5 L 421 281.5 L 421 286.5 L 420 286.5 L 410 256.5 L 409 244.5 L 404 228.5 L 404.5 220 Z " /><path fill="rgb(2,2,2)" stroke="rgb(2,2,2)" stroke-width="1" opacity="1" d="M 152.5 222 L 153 245.5 L 152 245.5 L 152.5 222 Z " /><path fill="rgb(2,2,2)" stroke="rgb(2,2,2)" stroke-width="1" opacity="1" d="M 396.5 233 L 400 238.5 L 405 258.5 L 408 279.5 L 411 286.5 L 411 292.5 L 410 292.5 L 396 241.5 L 396.5 233 Z " /><path fill="rgb(2,2,2)" stroke="rgb(2,2,2)" stroke-width="1" opacity="1" d="M 385.5 241 L 386 320.5 L 385 320.5 L 384 317.5 L 384 258.5 L 385 257.5 L 385.5 241 Z " /><path fill="rgb(2,2,2)" stroke="rgb(2,2,2)" stroke-width="1" opacity="1" d="M 125.5 243 L 126 246.5 L 122 268.5 L 115.5 290 L 115 281.5 L 124 244.5 L 125.5 243 Z " /><path fill="rgb(2,2,2)" stroke="rgb(2,2,2)" stroke-width="1" opacity="1" d="M 128 250 Q 131 248.8 130 252.5 L 128 251.5 L 128 250 Z " /><path fill="rgb(2,2,2)" stroke="rgb(2,2,2)" stroke-width="1" opacity="1" d="M 182.5 261 L 183 263.5 L 181 264.5 L 182.5 261 Z " /><path fill="rgb(2,2,2)" stroke="rgb(2,2,2)" stroke-width="1" opacity="1" d="M 150.5 275 L 151 311.5 L 150 311.5 L 150.5 275 Z " /><path fill="rgb(2,2,2)" stroke="rgb(2,2,2)" stroke-width="1" opacity="1" d="M 138.5 283 L 140 291.5 L 141 321.5 L 138.5 325 L 138.5 283 Z " /><path fill="rgb(2,2,2)" stroke="rgb(2,2,2)" stroke-width="1" opacity="1" d="M 101.5 287 L 102 290.5 L 101 290.5 L 101.5 287 Z " /><path fill="rgb(2,2,2)" stroke="rgb(2,2,2)" stroke-width="1" opacity="1" d="M 100.5 292 L 101 294.5 L 100 294.5 L 100.5 292 Z " /><path fill="rgb(2,2,2)" stroke="rgb(2,2,2)" stroke-width="1" opacity="1" d="M 416.5 302 L 422 302.5 L 413 305.5 L 417 311.5 L 417 315 L 426 315.5 L 417 319 L 421 335.5 L 435 378.5 L 439 385.5 L 439 388.5 L 436 386.5 L 419 335.5 L 418 328.5 L 416 325.5 L 416 315.5 L 411 304.5 L 416.5 302 Z " /><path fill="rgb(2,2,2)" stroke="rgb(2,2,2)" stroke-width="1" opacity="1" d="M 428.5 303 L 431 304 L 430.5 320 L 428 317.5 L 428.5 303 Z " /><path fill="rgb(2,2,2)" stroke="rgb(2,2,2)" stroke-width="1" opacity="1" d="M 93 306 L 95 306.5 L 94 307.5 L 94 319 L 98.5 318 L 105 319 L 107.5 312 L 108 317.5 L 104 328.5 Q 103.3 341.3 99 350.5 L 97 366.5 L 87 394.5 L 92 400.5 L 92 403.5 L 86 408.5 L 86 412.5 L 80 426.5 L 77 438.5 L 64 465.5 L 60.5 477 L 59 474.5 Q 60.2 466.8 57.5 463 L 57 466 L 53 464.5 L 48 454.5 L 48 446.5 L 49 446.5 L 52 452.5 L 52 455.5 L 56.5 463 L 57 460.5 L 54 451.5 L 55 451.5 L 60.5 465 L 64 463.5 L 66 450.5 L 71 442.5 L 74 432.5 L 86 407.5 Q 78.1 405.9 75 399.5 L 76.5 400 L 85.5 404 L 89 404 L 89 400.5 L 82.5 393 L 78 389.5 L 79.5 389 L 85.5 394 L 86 390.5 L 85 388.5 L 87 386.5 L 87 379.5 L 89 371.5 L 100 340.5 L 105 321 L 94.5 320 L 93 323 L 91 322.5 L 91 309.5 L 93 306 Z " /><path fill="rgb(2,2,2)" stroke="rgb(2,2,2)" stroke-width="1" opacity="1" d="M 104.5 306 Q 111.8 303.8 110 309 L 104.5 307 L 104.5 306 Z " /><path fill="rgb(2,2,2)" stroke="rgb(2,2,2)" stroke-width="1" opacity="1" d="M 433.5 324 L 435 331.5 L 437 333.5 L 442 349.5 L 451 369.5 L 452 376 Q 457.9 375.1 460 379.5 L 459.5 391 L 459 382 L 455 382 Q 456.1 384.7 453.5 384 L 452 380.5 L 453 378.5 L 447 370.5 L 440 353.5 Q 440 347.5 437 344.5 L 436 335.5 L 434 332.5 L 433.5 324 Z " /><path fill="rgb(2,2,2)" stroke="rgb(2,2,2)" stroke-width="1" opacity="1" d="M 91.5 326 L 92 330.5 L 89.5 335 L 89 333.5 L 91.5 326 Z " /><path fill="rgb(2,2,2)" stroke="rgb(2,2,2)" stroke-width="1" opacity="1" d="M 87.5 338 L 88 344.5 L 85 350.5 L 84 357.5 L 80 368.5 L 73.5 381 L 73 379.5 L 83 355.5 L 87.5 338 Z " /><path fill="rgb(2,2,2)" stroke="rgb(2,2,2)" stroke-width="1" opacity="1" d="M 388.5 340 L 392 342.5 Q 393.3 349.8 388.5 351 L 388 344.5 L 390 342.5 L 388.5 340 Z " /><path fill="rgb(2,2,2)" stroke="rgb(2,2,2)" stroke-width="1" opacity="1" d="M 144.5 341 L 153 341 L 153 360 L 145 359.5 L 152 359 L 152 344 L 145.5 344 L 140 342.5 L 144.5 341 Z " /><path fill="rgb(2,2,2)" stroke="rgb(2,2,2)" stroke-width="1" opacity="1" d="M 136 343 L 138 343.5 L 138 352 L 136 351.5 L 136 343 Z " /><path fill="rgb(2,2,2)" stroke="rgb(2,2,2)" stroke-width="1" opacity="1" d="M 390.5 363 L 392 366.5 L 392 383.5 L 394 393.5 L 394 429.5 L 393 429.5 L 391 402.5 L 390 401.5 L 390.5 363 Z " /><path fill="rgb(2,2,2)" stroke="rgb(2,2,2)" stroke-width="1" opacity="1" d="M 150.5 366 L 151 426.5 L 153 430.5 L 151.5 430 L 141.5 435 L 136 435 L 137 440.5 L 136 440.5 L 132 433.5 L 132 430 L 150 428 L 150.5 366 Z " /><path fill="rgb(2,2,2)" stroke="rgb(2,2,2)" stroke-width="1" opacity="1" d="M 376.5 366 L 378 369.5 L 378 423.5 L 377 428 L 382.5 428 L 386.5 430 Q 391.9 429.4 394 431 L 393 438.5 L 390.5 443 L 390 431 Q 383.4 432.8 381.5 429 L 374 429 L 372.5 432 L 372 428 L 376 427.5 L 376.5 366 Z " /><path fill="rgb(2,2,2)" stroke="rgb(2,2,2)" stroke-width="1" opacity="1" d="M 70.5 384 L 75 384.5 L 71.5 392 L 71 390 L 67 390 L 67 398.5 L 66 398.5 Q 63.7 395.3 65 388.5 L 70.5 384 Z " /><path fill="rgb(2,2,2)" stroke="rgb(2,2,2)" stroke-width="1" opacity="1" d="M 448.5 384 L 446 387.5 Q 445.8 392.3 442.5 394 L 441 394 L 441 398 L 448.5 397 L 454.5 393 L 447.5 401 Q 440.6 399 442 403 L 445 404.5 L 459 433.5 L 463 443.5 L 463 448.5 L 468.5 459 L 471 456.5 L 471 453.5 L 475.5 445 L 476 447.5 L 470 459.5 Q 471.5 467 468.5 470 L 451 433.5 L 450 427.5 L 437 396.5 L 438 393.5 L 446.5 385 L 448.5 384 Z " /><path fill="rgb(2,2,2)" stroke="rgb(2,2,2)" stroke-width="1" opacity="1" d="M 135.5 385 L 136 395.5 L 135 396.5 L 134.5 405 L 134 393.5 L 135.5 385 Z " /><path fill="rgb(2,2,2)" stroke="rgb(2,2,2)" stroke-width="1" opacity="1" d="M 461.5 403 L 470 415.5 Q 470.8 422.7 475 426.5 L 478 437.5 L 477 437.5 L 474.5 433 Q 472.3 433.8 473 431.5 L 461 408.5 L 461.5 403 Z " /><path fill="rgb(2,2,2)" stroke="rgb(2,2,2)" stroke-width="1" opacity="1" d="M 66.5 404 L 67 413.5 L 65 415.5 Q 64.8 425.8 61 432.5 L 57 436.5 L 52.5 445 L 52 442.5 L 57 430.5 L 57 425.5 L 63 415.5 L 66.5 404 Z " /><path fill="rgb(2,2,2)" stroke="rgb(2,2,2)" stroke-width="1" opacity="1" d="M 128.5 434 L 129 437.5 L 128 438.5 L 126 459.5 L 118.5 481 L 118 476.5 Q 120.5 475 119 469.5 L 119 467.5 L 119 461.5 L 122 448.5 L 128.5 434 Z " /><path fill="rgb(2,2,2)" stroke="rgb(2,2,2)" stroke-width="1" opacity="1" d="M 400.5 437 Q 405 445 406 456.5 L 411 468.5 L 411 473.5 L 410 473.5 L 401 447.5 L 400.5 437 Z " /><path fill="rgb(2,2,2)" stroke="rgb(2,2,2)" stroke-width="1" opacity="1" d="M 374.5 438 L 378 443 L 388.5 443 L 389 444.5 Q 386.8 448.3 379.5 447 L 376 444.5 L 374 440.5 L 374.5 438 Z " /><path fill="rgb(2,2,2)" stroke="rgb(2,2,2)" stroke-width="1" opacity="1" d="M 151 441 L 155 442.5 L 153 447.5 L 153 456.5 L 155 463.5 L 155 470.5 L 157 475.5 L 157 482.5 L 161 495.5 L 161 502.5 Q 164 503.8 163 508 L 160 506.5 L 159 504.5 L 160 502.5 L 158 500.5 L 158 496.5 L 152 475.5 L 151.5 448 L 146.5 449 L 142 447 Q 140.6 443 147.5 445 L 151 443 L 151 441 Z " /><path fill="rgb(2,2,2)" stroke="rgb(2,2,2)" stroke-width="1" opacity="1" d="M 393.5 444 L 394 458.5 L 390 473.5 L 390 478.5 L 388 480.5 L 385.5 488 L 385 485.5 L 386 484.5 L 387 472.5 L 390 463.5 L 390 458.5 L 392 455.5 Q 390.8 447.8 393.5 444 Z " /><path fill="rgb(2,2,2)" stroke="rgb(2,2,2)" stroke-width="1" opacity="1" d="M 479.5 444 L 480 451.5 L 475.5 460 L 475 458.5 L 477 455.5 L 479.5 444 Z " /><path fill="rgb(2,2,2)" stroke="rgb(2,2,2)" stroke-width="1" opacity="1" d="M 134.5 445 L 140 463.5 L 141 472.5 L 143 476.5 L 143 485.5 L 145 493.5 L 144 493.5 Q 144 486.5 140 483.5 L 138.5 474 L 137 479.5 L 135.5 503 L 134 502.5 L 133.5 510 L 120 493.5 L 121.5 494 Q 130 495.5 133.5 502 L 134 476.5 L 138 471.5 L 134 462.5 L 134.5 445 Z " /><path fill="rgb(2,2,2)" stroke="rgb(2,2,2)" stroke-width="1" opacity="1" d="M 474.5 461 L 472.5 464 L 471.5 462 Q 473 464.5 474.5 461 Z " /><path fill="rgb(2,2,2)" stroke="rgb(2,2,2)" stroke-width="1" opacity="1" d="M 375.5 463 L 376 467.5 L 374.5 472 L 374 467.5 L 375.5 463 Z " /><path fill="rgb(2,2,2)" stroke="rgb(2,2,2)" stroke-width="1" opacity="1" d="M 373.5 474 L 374 476.5 L 372.5 481 L 372 477.5 L 373.5 474 Z " /><path fill="rgb(2,2,2)" stroke="rgb(2,2,2)" stroke-width="1" opacity="1" d="M 371.5 483 L 372 487.5 L 370.5 492 L 370 487.5 L 371.5 483 Z " /><path fill="rgb(2,2,2)" stroke="rgb(2,2,2)" stroke-width="1" opacity="1" d="M 391.5 484 L 392 486.5 L 391 486.5 L 391.5 484 Z " /><path fill="rgb(2,2,2)" stroke="rgb(2,2,2)" stroke-width="1" opacity="1" d="M 405.5 491 L 406 492.5 L 396.5 507 L 396 503.5 Q 399.3 495.8 405.5 491 Z " /><path fill="rgb(2,2,2)" stroke="rgb(2,2,2)" stroke-width="1" opacity="1" d="M 369.5 493 L 370 499 L 377.5 495 L 374.5 499 L 370 501.5 L 368.5 504 L 367 503.5 Q 370 500 369.5 493 Z " /><path fill="rgb(168,168,168)" stroke="rgb(168,168,168)" stroke-width="1" opacity="1" d="M 434.5 69 Q 437.8 67.9 437 70.5 L 435.5 70 L 434.5 69 Z " /><path fill="rgb(168,168,168)" stroke="rgb(168,168,168)" stroke-width="1" opacity="1" d="M 80.5 72 L 87 72.5 L 79.5 74 L 80.5 72 Z " /><path fill="rgb(168,168,168)" stroke="rgb(168,168,168)" stroke-width="1" opacity="1" d="M 236.5 72 L 237 76 L 240 76.5 L 236 77 L 236.5 72 Z " /><path fill="rgb(168,168,168)" stroke="rgb(168,168,168)" stroke-width="1" opacity="1" d="M 377.5 73 L 382 73.5 L 377.5 74 L 377.5 73 Z " /><path fill="rgb(168,168,168)" stroke="rgb(168,168,168)" stroke-width="1" opacity="1" d="M 260.5 74 L 261 76.5 L 259 75.5 L 260.5 74 Z " /><path fill="rgb(168,168,168)" stroke="rgb(168,168,168)" stroke-width="1" opacity="1" d="M 364.5 74 L 368 74.5 L 364.5 75 L 364.5 74 Z " /><path fill="rgb(168,168,168)" stroke="rgb(168,168,168)" stroke-width="1" opacity="1" d="M 302.5 75 L 305 76.5 L 303.5 77 L 302.5 75 Z " /><path fill="rgb(168,168,168)" stroke="rgb(168,168,168)" stroke-width="1" opacity="1" d="M 350.5 75 L 354 75.5 L 350.5 76 L 350.5 75 Z " /><path fill="rgb(168,168,168)" stroke="rgb(168,168,168)" stroke-width="1" opacity="1" d="M 206.5 76 L 209 76.5 L 206.5 77 L 206.5 76 Z " /><path fill="rgb(168,168,168)" stroke="rgb(168,168,168)" stroke-width="1" opacity="1" d="M 315.5 76 L 338 76.5 L 315.5 77 L 315.5 76 Z " /><path fill="rgb(168,168,168)" stroke="rgb(168,168,168)" stroke-width="1" opacity="1" d="M 85.5 78 L 85 79.5 L 84.5 81 L 84 79.5 L 85.5 78 Z " /><path fill="rgb(168,168,168)" stroke="rgb(168,168,168)" stroke-width="1" opacity="1" d="M 188.5 78 L 191 78.5 L 188.5 79 L 188.5 78 Z " /><path fill="rgb(168,168,168)" stroke="rgb(168,168,168)" stroke-width="1" opacity="1" d="M 245.5 78 L 249 78.5 L 245.5 79 L 245.5 78 Z " /><path fill="rgb(168,168,168)" stroke="rgb(168,168,168)" stroke-width="1" opacity="1" d="M 254.5 78 L 253.5 80 L 252 79.5 L 254.5 78 Z " /><path fill="rgb(168,168,168)" stroke="rgb(168,168,168)" stroke-width="1" opacity="1" d="M 381.5 78 L 384 78.5 L 381.5 79 L 381.5 78 Z " /><path fill="rgb(168,168,168)" stroke="rgb(168,168,168)" stroke-width="1" opacity="1" d="M 142.5 79 L 145 79.5 L 142.5 80 L 142.5 79 Z " /><path fill="rgb(168,168,168)" stroke="rgb(168,168,168)" stroke-width="1" opacity="1" d="M 431 80 L 433 80.5 L 431 81.5 L 431 80 Z " /><path fill="rgb(168,168,168)" stroke="rgb(168,168,168)" stroke-width="1" opacity="1" d="M 415.5 82 L 422 82.5 L 415.5 83 L 415.5 82 Z " /><path fill="rgb(168,168,168)" stroke="rgb(168,168,168)" stroke-width="1" opacity="1" d="M 247.5 83 L 246.5 87 L 245 84 L 247.5 83 Z " /><path fill="rgb(168,168,168)" stroke="rgb(168,168,168)" stroke-width="1" opacity="1" d="M 231.5 84 L 235 84.5 L 231.5 85 L 231.5 84 Z " /><path fill="rgb(168,168,168)" stroke="rgb(168,168,168)" stroke-width="1" opacity="1" d="M 399.5 84 L 402 84.5 L 399.5 85 L 399.5 84 Z " /><path fill="rgb(168,168,168)" stroke="rgb(168,168,168)" stroke-width="1" opacity="1" d="M 389.5 85 L 392 85.5 L 389.5 86 L 389.5 85 Z " /><path fill="rgb(168,168,168)" stroke="rgb(168,168,168)" stroke-width="1" opacity="1" d="M 379.5 86 L 385 86.5 L 379.5 87 L 379.5 86 Z " /><path fill="rgb(168,168,168)" stroke="rgb(168,168,168)" stroke-width="1" opacity="1" d="M 77.5 88 L 79 88.5 L 76.5 90 L 77.5 88 Z " /><path fill="rgb(168,168,168)" stroke="rgb(168,168,168)" stroke-width="1" opacity="1" d="M 300.5 88 L 364 88.5 L 303.5 89 L 302.5 90 L 300.5 88 Z " /><path fill="rgb(168,168,168)" stroke="rgb(168,168,168)" stroke-width="1" opacity="1" d="M 389.5 88 L 393 88.5 L 389.5 89 L 389.5 88 Z " /><path fill="rgb(168,168,168)" stroke="rgb(168,168,168)" stroke-width="1" opacity="1" d="M 102.5 90 L 228 90.5 L 225.5 92 L 224.5 91 L 106.5 91 L 104.5 92 L 102.5 90 Z " /><path fill="rgb(168,168,168)" stroke="rgb(168,168,168)" stroke-width="1" opacity="1" d="M 369 90 L 373 90.5 L 369.5 92 L 369 90 Z " /><path fill="rgb(168,168,168)" stroke="rgb(168,168,168)" stroke-width="1" opacity="1" d="M 370.5 93 L 371 95.5 L 370 95.5 L 370.5 93 Z " /><path fill="rgb(168,168,168)" stroke="rgb(168,168,168)" stroke-width="1" opacity="1" d="M 124.5 94 L 129 94.5 L 124.5 95 L 124.5 94 Z " /><path fill="rgb(168,168,168)" stroke="rgb(168,168,168)" stroke-width="1" opacity="1" d="M 190.5 94 L 195 94.5 L 190.5 95 L 190.5 94 Z " /><path fill="rgb(168,168,168)" stroke="rgb(168,168,168)" stroke-width="1" opacity="1" d="M 156.5 96 L 158 96.5 L 155.5 98 L 156.5 96 Z " /><path fill="rgb(168,168,168)" stroke="rgb(168,168,168)" stroke-width="1" opacity="1" d="M 104.5 98 L 105 99.5 L 102.5 101 L 102.5 100 Q 105 100.7 104.5 98 Z " /><path fill="rgb(168,168,168)" stroke="rgb(168,168,168)" stroke-width="1" opacity="1" d="M 160.5 98 L 162 100.5 L 161 100.5 L 160.5 98 Z " /><path fill="rgb(168,168,168)" stroke="rgb(168,168,168)" stroke-width="1" opacity="1" d="M 154.5 99 L 154 100.5 L 153.5 105 L 153 100.5 L 154.5 99 Z " /><path fill="rgb(168,168,168)" stroke="rgb(168,168,168)" stroke-width="1" opacity="1" d="M 114.5 102 L 114.5 105 Q 112.3 105.8 113 103.5 L 114.5 102 Z " /><path fill="rgb(168,168,168)" stroke="rgb(168,168,168)" stroke-width="1" opacity="1" d="M 374.5 105 L 375 107 L 367.5 109 L 368.5 107 Q 370 109.5 371.5 106 L 374.5 105 Z " /><path fill="rgb(168,168,168)" stroke="rgb(168,168,168)" stroke-width="1" opacity="1" d="M 271.5 106 L 272 109.5 L 271 109.5 L 271.5 106 Z " /><path fill="rgb(168,168,168)" stroke="rgb(168,168,168)" stroke-width="1" opacity="1" d="M 361.5 108 L 362 110 L 357 109.5 L 361.5 108 Z " /><path fill="rgb(168,168,168)" stroke="rgb(168,168,168)" stroke-width="1" opacity="1" d="M 274.5 112 L 281 112.5 L 274.5 113 L 274.5 112 Z " /><path fill="rgb(168,168,168)" stroke="rgb(168,168,168)" stroke-width="1" opacity="1" d="M 156.5 117 L 158 119.5 L 157 119.5 L 156.5 117 Z " /><path fill="rgb(168,168,168)" stroke="rgb(168,168,168)" stroke-width="1" opacity="1" d="M 161.5 117 L 162 120.5 L 161 120.5 L 161.5 117 Z " /><path fill="rgb(168,168,168)" stroke="rgb(168,168,168)" stroke-width="1" opacity="1" d="M 148.5 118 L 151 118.5 L 148.5 119 L 148.5 118 Z " /><path fill="rgb(168,168,168)" stroke="rgb(168,168,168)" stroke-width="1" opacity="1" d="M 366.5 119 L 367 121.5 L 366 121.5 L 366.5 119 Z " /><path fill="rgb(168,168,168)" stroke="rgb(168,168,168)" stroke-width="1" opacity="1" d="M 375.5 124 L 373.5 127 L 373 125 L 375.5 124 Z " /><path fill="rgb(168,168,168)" stroke="rgb(168,168,168)" stroke-width="1" opacity="1" d="M 455.5 128 L 457 130.5 L 455 131.5 L 456 129.5 L 455.5 128 Z " /><path fill="rgb(168,168,168)" stroke="rgb(168,168,168)" stroke-width="1" opacity="1" d="M 269.5 129 L 269 130.5 L 271.5 134 L 268 130.5 L 269.5 129 Z " /><path fill="rgb(168,168,168)" stroke="rgb(168,168,168)" stroke-width="1" opacity="1" d="M 408.5 130 Q 411 131 410 135.5 L 409 135.5 L 408.5 130 Z " /><path fill="rgb(168,168,168)" stroke="rgb(168,168,168)" stroke-width="1" opacity="1" d="M 386.5 131 L 391 131.5 L 386.5 132 L 386.5 131 Z " /><path fill="rgb(168,168,168)" stroke="rgb(168,168,168)" stroke-width="1" opacity="1" d="M 265.5 132 L 266 135.5 L 265 135.5 L 265.5 132 Z " /><path fill="rgb(168,168,168)" stroke="rgb(168,168,168)" stroke-width="1" opacity="1" d="M 48.5 133 L 50.5 134 L 52 133.5 L 50.5 137 L 50.5 135 L 48.5 133 Z " /><path fill="rgb(168,168,168)" stroke="rgb(168,168,168)" stroke-width="1" opacity="1" d="M 149.5 133 L 150 135 L 147.5 136 L 149.5 133 Z " /><path fill="rgb(168,168,168)" stroke="rgb(168,168,168)" stroke-width="1" opacity="1" d="M 390.5 133 L 393 133.5 L 390.5 134 L 390.5 133 Z " /><path fill="rgb(168,168,168)" stroke="rgb(168,168,168)" stroke-width="1" opacity="1" d="M 467.5 136 L 468 137.5 L 465.5 141 L 466 139.5 L 467.5 136 Z " /><path fill="rgb(168,168,168)" stroke="rgb(168,168,168)" stroke-width="1" opacity="1" d="M 280.5 139 L 284 139.5 L 280.5 140 L 280.5 139 Z " /><path fill="rgb(168,168,168)" stroke="rgb(168,168,168)" stroke-width="1" opacity="1" d="M 153.5 140 L 154 143.5 L 153 143.5 L 153.5 140 Z " /><path fill="rgb(168,168,168)" stroke="rgb(168,168,168)" stroke-width="1" opacity="1" d="M 407.5 142 L 406.5 144 L 405 143.5 L 407.5 142 Z " /><path fill="rgb(168,168,168)" stroke="rgb(168,168,168)" stroke-width="1" opacity="1" d="M 460.5 142 L 461 150.5 L 460 150.5 L 460.5 142 Z " /><path fill="rgb(168,168,168)" stroke="rgb(168,168,168)" stroke-width="1" opacity="1" d="M 290.5 147 L 291 151 L 293 151.5 L 291.5 152 Q 288.8 150.8 290.5 147 Z " /><path fill="rgb(168,168,168)" stroke="rgb(168,168,168)" stroke-width="1" opacity="1" d="M 456.5 151 L 459 151.5 L 456.5 152 L 456.5 151 Z " /><path fill="rgb(168,168,168)" stroke="rgb(168,168,168)" stroke-width="1" opacity="1" d="M 225.5 153 L 228 154.5 L 226 155.5 L 226.5 154 L 224.5 155 L 225.5 153 Z " /><path fill="rgb(168,168,168)" stroke="rgb(168,168,168)" stroke-width="1" opacity="1" d="M 229.5 153 Q 231.8 153.8 231 157.5 L 230 157.5 L 229.5 153 Z " /><path fill="rgb(168,168,168)" stroke="rgb(168,168,168)" stroke-width="1" opacity="1" d="M 445.5 153 L 453 153.5 L 445.5 154 L 445.5 153 Z " /><path fill="rgb(168,168,168)" stroke="rgb(168,168,168)" stroke-width="1" opacity="1" d="M 151.5 154 L 152 156.5 L 151 156.5 L 151.5 154 Z " /><path fill="rgb(168,168,168)" stroke="rgb(168,168,168)" stroke-width="1" opacity="1" d="M 443.5 154 L 443 155.5 L 442.5 157 L 442 155.5 L 443.5 154 Z " /><path fill="rgb(168,168,168)" stroke="rgb(168,168,168)" stroke-width="1" opacity="1" d="M 220 155 L 223 155.5 L 220.5 157 L 220 155 Z " /><path fill="rgb(168,168,168)" stroke="rgb(168,168,168)" stroke-width="1" opacity="1" d="M 62.5 157 L 65 157.5 L 62.5 158 L 62.5 157 Z " /><path fill="rgb(168,168,168)" stroke="rgb(168,168,168)" stroke-width="1" opacity="1" d="M 224.5 157 L 227 157.5 L 227 159.5 Q 228.3 164.1 222.5 162 L 222.5 161 Q 226.9 162.5 226 159.5 L 224.5 157 Z " /><path fill="rgb(168,168,168)" stroke="rgb(168,168,168)" stroke-width="1" opacity="1" d="M 220.5 158 L 221 160.5 L 217.5 162 L 217.5 161 Q 221.5 162.1 220.5 158 Z " /><path fill="rgb(168,168,168)" stroke="rgb(168,168,168)" stroke-width="1" opacity="1" d="M 69.5 159 L 72 159.5 L 69.5 160 L 69.5 159 Z " /><path fill="rgb(168,168,168)" stroke="rgb(168,168,168)" stroke-width="1" opacity="1" d="M 76.5 159 L 79 160.5 L 77.5 160 L 76.5 159 Z " /><path fill="rgb(168,168,168)" stroke="rgb(168,168,168)" stroke-width="1" opacity="1" d="M 69.5 161 L 72 161.5 L 68.5 163 L 69.5 161 Z " /><path fill="rgb(168,168,168)" stroke="rgb(168,168,168)" stroke-width="1" opacity="1" d="M 297.5 162 L 296.5 164 L 295 163.5 L 297.5 162 Z " /><path fill="rgb(168,168,168)" stroke="rgb(168,168,168)" stroke-width="1" opacity="1" d="M 312.5 162 L 313.5 164 L 311 163.5 L 312.5 162 Z " /><path fill="rgb(168,168,168)" stroke="rgb(168,168,168)" stroke-width="1" opacity="1" d="M 73.5 163 L 77 163.5 L 73.5 164 L 73.5 163 Z " /><path fill="rgb(168,168,168)" stroke="rgb(168,168,168)" stroke-width="1" opacity="1" d="M 200.5 163 L 200.5 165 L 202 165.5 L 199 166 L 200.5 163 Z " /><path fill="rgb(168,168,168)" stroke="rgb(168,168,168)" stroke-width="1" opacity="1" d="M 206.5 163 L 206.5 165 L 208 165.5 L 205 166 L 206.5 163 Z " /><path fill="rgb(168,168,168)" stroke="rgb(168,168,168)" stroke-width="1" opacity="1" d="M 216.5 163 L 217 165 L 221 165.5 L 217.5 166 L 216.5 163 Z " /><path fill="rgb(168,168,168)" stroke="rgb(168,168,168)" stroke-width="1" opacity="1" d="M 212.5 165 L 214 165.5 L 212 166.5 L 212.5 168 Q 210.3 168.8 211 166.5 L 212.5 165 Z " /><path fill="rgb(168,168,168)" stroke="rgb(168,168,168)" stroke-width="1" opacity="1" d="M 307.5 167 L 322 167.5 L 307.5 168 L 307.5 167 Z " /><path fill="rgb(168,168,168)" stroke="rgb(168,168,168)" stroke-width="1" opacity="1" d="M 325.5 167 L 329 167.5 L 324.5 169 L 325.5 167 Z " /><path fill="rgb(168,168,168)" stroke="rgb(168,168,168)" stroke-width="1" opacity="1" d="M 326.5 169 L 327 171.5 Q 327.8 173.8 325.5 173 L 325 170.5 L 326.5 169 Z " /><path fill="rgb(168,168,168)" stroke="rgb(168,168,168)" stroke-width="1" opacity="1" d="M 77.5 170 Q 80.5 169.5 79 176.5 L 78 176.5 L 77.5 170 Z " /><path fill="rgb(168,168,168)" stroke="rgb(168,168,168)" stroke-width="1" opacity="1" d="M 463.5 170 L 465 170.5 L 463 171 Q 461.9 173.7 464.5 173 L 464.5 174 L 462 172.5 L 463.5 170 Z " /><path fill="rgb(168,168,168)" stroke="rgb(168,168,168)" stroke-width="1" opacity="1" d="M 427.5 173 L 429 176.5 L 427 175.5 L 427.5 173 Z " /><path fill="rgb(168,168,168)" stroke="rgb(168,168,168)" stroke-width="1" opacity="1" d="M 137.5 174 L 138 177.5 L 137 177.5 L 137.5 174 Z " /><path fill="rgb(168,168,168)" stroke="rgb(168,168,168)" stroke-width="1" opacity="1" d="M 103.5 175 L 104 177 L 102 176.5 L 103.5 175 Z " /><path fill="rgb(168,168,168)" stroke="rgb(168,168,168)" stroke-width="1" opacity="1" d="M 439.5 175 L 443 175.5 L 439.5 176 L 439.5 175 Z " /><path fill="rgb(168,168,168)" stroke="rgb(168,168,168)" stroke-width="1" opacity="1" d="M 325.5 176 L 327 179.5 L 326.5 181 L 325 178.5 L 325.5 176 Z " /><path fill="rgb(168,168,168)" stroke="rgb(168,168,168)" stroke-width="1" opacity="1" d="M 80.5 179 L 81 181 L 84 181.5 L 81.5 182 L 80.5 179 Z " /><path fill="rgb(168,168,168)" stroke="rgb(168,168,168)" stroke-width="1" opacity="1" d="M 83.5 179 L 87 179.5 L 83.5 180 L 83.5 179 Z " /><path fill="rgb(168,168,168)" stroke="rgb(168,168,168)" stroke-width="1" opacity="1" d="M 102.5 181 L 103 185.5 L 102 185.5 L 102.5 181 Z " /><path fill="rgb(168,168,168)" stroke="rgb(168,168,168)" stroke-width="1" opacity="1" d="M 423.5 181 L 424 186.5 L 423 186.5 L 423.5 181 Z " /><path fill="rgb(168,168,168)" stroke="rgb(168,168,168)" stroke-width="1" opacity="1" d="M 357.5 183 L 357 184.5 L 356.5 187 L 356 184.5 L 357.5 183 Z " /><path fill="rgb(168,168,168)" stroke="rgb(168,168,168)" stroke-width="1" opacity="1" d="M 348 187 L 350 187.5 L 348 188.5 L 348 187 Z " /><path fill="rgb(168,168,168)" stroke="rgb(168,168,168)" stroke-width="1" opacity="1" d="M 400 187 L 402 187.5 L 400.5 190 L 400 187 Z " /><path fill="rgb(168,168,168)" stroke="rgb(168,168,168)" stroke-width="1" opacity="1" d="M 420.5 189 L 422 189.5 L 419.5 191 L 420.5 189 Z " /><path fill="rgb(168,168,168)" stroke="rgb(168,168,168)" stroke-width="1" opacity="1" d="M 355.5 195 L 356.5 197 L 354 196.5 L 355.5 195 Z " /><path fill="rgb(168,168,168)" stroke="rgb(168,168,168)" stroke-width="1" opacity="1" d="M 419.5 195 L 420 201.5 L 419 201.5 L 419.5 195 Z " /><path fill="rgb(168,168,168)" stroke="rgb(168,168,168)" stroke-width="1" opacity="1" d="M 110.5 197 L 111 204 L 114 204.5 L 110 205 L 110.5 197 Z " /><path fill="rgb(168,168,168)" stroke="rgb(168,168,168)" stroke-width="1" opacity="1" d="M 116.5 203 L 117 214.5 L 116 214.5 L 116.5 203 Z " /><path fill="rgb(168,168,168)" stroke="rgb(168,168,168)" stroke-width="1" opacity="1" d="M 395.5 203 L 396 205.5 L 395 205.5 L 395.5 203 Z " /><path fill="rgb(168,168,168)" stroke="rgb(168,168,168)" stroke-width="1" opacity="1" d="M 409 203 L 412 204.5 L 410 204.5 Q 409.3 207.1 412 206 L 412 210.5 L 411 210.5 L 410.5 207 L 409 207.5 L 409 203 Z " /><path fill="rgb(168,168,168)" stroke="rgb(168,168,168)" stroke-width="1" opacity="1" d="M 108.5 206 L 109 210.5 L 108 210.5 L 108.5 206 Z " /><path fill="rgb(168,168,168)" stroke="rgb(168,168,168)" stroke-width="1" opacity="1" d="M 368.5 206 L 369 208.5 L 368 208.5 L 368.5 206 Z " /><path fill="rgb(168,168,168)" stroke="rgb(168,168,168)" stroke-width="1" opacity="1" d="M 153.5 211 Q 156.3 212.3 154 213.5 L 155 217.5 L 153.5 220 L 153.5 211 Z " /><path fill="rgb(168,168,168)" stroke="rgb(168,168,168)" stroke-width="1" opacity="1" d="M 407.5 211 L 407 212.5 L 405.5 215 L 405.5 212 L 407.5 211 Z " /><path fill="rgb(168,168,168)" stroke="rgb(168,168,168)" stroke-width="1" opacity="1" d="M 151.5 213 L 152 215.5 L 151 215.5 L 151.5 213 Z " /><path fill="rgb(168,168,168)" stroke="rgb(168,168,168)" stroke-width="1" opacity="1" d="M 118 214 L 120 214.5 L 119 218.5 L 120 220.5 L 119 220.5 Q 119.8 218.3 117.5 219 L 118 217.5 L 118 214 Z " /><path fill="rgb(168,168,168)" stroke="rgb(168,168,168)" stroke-width="1" opacity="1" d="M 403.5 218 Q 406.3 219.3 404 220.5 L 403.5 226 L 403.5 218 Z " /><path fill="rgb(168,168,168)" stroke="rgb(168,168,168)" stroke-width="1" opacity="1" d="M 370.5 221 L 371 233.5 L 370 233.5 L 370.5 221 Z " /><path fill="rgb(168,168,168)" stroke="rgb(168,168,168)" stroke-width="1" opacity="1" d="M 149.5 222 L 150.5 257 L 154 256.5 L 150 258 L 149.5 260 L 149.5 222 Z " /><path fill="rgb(168,168,168)" stroke="rgb(168,168,168)" stroke-width="1" opacity="1" d="M 385.5 224 L 386 233.5 L 385 233.5 L 385.5 224 Z " /><path fill="rgb(168,168,168)" stroke="rgb(168,168,168)" stroke-width="1" opacity="1" d="M 395.5 233 L 396 239.5 L 395 239.5 L 395.5 233 Z " /><path fill="rgb(168,168,168)" stroke="rgb(168,168,168)" stroke-width="1" opacity="1" d="M 127 234 L 129 234.5 L 127.5 237 L 127 234 Z " /><path fill="rgb(168,168,168)" stroke="rgb(168,168,168)" stroke-width="1" opacity="1" d="M 153.5 237 L 154 241.5 L 153 241.5 L 153.5 237 Z " /><path fill="rgb(168,168,168)" stroke="rgb(168,168,168)" stroke-width="1" opacity="1" d="M 384.5 248 L 385 252.5 L 384 252.5 L 384.5 248 Z " /><path fill="rgb(168,168,168)" stroke="rgb(168,168,168)" stroke-width="1" opacity="1" d="M 161.5 251 L 162 253.5 L 161 253.5 L 161.5 251 Z " /><path fill="rgb(168,168,168)" stroke="rgb(168,168,168)" stroke-width="1" opacity="1" d="M 151.5 259 L 152 263.5 L 151 263.5 L 151.5 259 Z " /><path fill="rgb(168,168,168)" stroke="rgb(168,168,168)" stroke-width="1" opacity="1" d="M 373.5 259 L 374 262.5 L 373 262.5 L 373.5 259 Z " /><path fill="rgb(168,168,168)" stroke="rgb(168,168,168)" stroke-width="1" opacity="1" d="M 368.5 260 L 369 263.5 L 368 263.5 L 368.5 260 Z " /><path fill="rgb(168,168,168)" stroke="rgb(168,168,168)" stroke-width="1" opacity="1" d="M 150.5 269 L 151 271.5 L 150 271.5 L 150.5 269 Z " /><path fill="rgb(168,168,168)" stroke="rgb(168,168,168)" stroke-width="1" opacity="1" d="M 155 272 L 157 272.5 L 155 273.5 L 155 272 Z " /><path fill="rgb(168,168,168)" stroke="rgb(168,168,168)" stroke-width="1" opacity="1" d="M 138.5 275 L 139 278.5 L 138 278.5 L 138.5 275 Z " /><path fill="rgb(168,168,168)" stroke="rgb(168,168,168)" stroke-width="1" opacity="1" d="M 149.5 278 L 150 316.5 L 151 320.5 L 149.5 325 L 149.5 278 Z " /><path fill="rgb(168,168,168)" stroke="rgb(168,168,168)" stroke-width="1" opacity="1" d="M 374.5 278 L 375 282.5 L 374 282.5 L 374.5 278 Z " /><path fill="rgb(168,168,168)" stroke="rgb(168,168,168)" stroke-width="1" opacity="1" d="M 370.5 282 L 371 285.5 L 370 285.5 L 370.5 282 Z " /><path fill="rgb(168,168,168)" stroke="rgb(168,168,168)" stroke-width="1" opacity="1" d="M 421.5 282 L 422 291.5 L 421 291.5 L 420 288.5 L 421.5 282 Z " /><path fill="rgb(168,168,168)" stroke="rgb(168,168,168)" stroke-width="1" opacity="1" d="M 139.5 286 L 140 288.5 L 139 288.5 L 139.5 286 Z " /><path fill="rgb(168,168,168)" stroke="rgb(168,168,168)" stroke-width="1" opacity="1" d="M 151.5 291 L 152 301.5 L 151 301.5 L 151.5 291 Z " /><path fill="rgb(168,168,168)" stroke="rgb(168,168,168)" stroke-width="1" opacity="1" d="M 114.5 294 L 115 296.5 L 114 296.5 L 114.5 294 Z " /><path fill="rgb(168,168,168)" stroke="rgb(168,168,168)" stroke-width="1" opacity="1" d="M 371.5 296 L 372 299.5 L 371 299.5 L 371.5 296 Z " /><path fill="rgb(168,168,168)" stroke="rgb(168,168,168)" stroke-width="1" opacity="1" d="M 375.5 296 L 376 301.5 L 375 301.5 L 375.5 296 Z " /><path fill="rgb(168,168,168)" stroke="rgb(168,168,168)" stroke-width="1" opacity="1" d="M 412.5 296 L 413 298 L 411 297.5 L 412.5 296 Z " /><path fill="rgb(168,168,168)" stroke="rgb(168,168,168)" stroke-width="1" opacity="1" d="M 413.5 300 L 414 302.5 L 412 303.5 L 413.5 300 Z " /><path fill="rgb(168,168,168)" stroke="rgb(168,168,168)" stroke-width="1" opacity="1" d="M 140.5 302 L 141 304.5 L 140 304.5 L 140.5 302 Z " /><path fill="rgb(168,168,168)" stroke="rgb(168,168,168)" stroke-width="1" opacity="1" d="M 111.5 303 L 112 304.5 L 111.5 307 Q 108.8 305.8 111 304.5 L 111.5 303 Z " /><path fill="rgb(168,168,168)" stroke="rgb(168,168,168)" stroke-width="1" opacity="1" d="M 411.5 305 L 412 307.5 L 411 307.5 L 411.5 305 Z " /><path fill="rgb(168,168,168)" stroke="rgb(168,168,168)" stroke-width="1" opacity="1" d="M 431.5 305 L 433 323.5 L 432 323.5 L 431 320.5 L 431.5 305 Z " /><path fill="rgb(168,168,168)" stroke="rgb(168,168,168)" stroke-width="1" opacity="1" d="M 90.5 309 L 91 323 L 93 323.5 L 90 324 L 90.5 309 Z " /><path fill="rgb(168,168,168)" stroke="rgb(168,168,168)" stroke-width="1" opacity="1" d="M 372.5 309 L 373 311.5 L 372 311.5 L 372.5 309 Z " /><path fill="rgb(168,168,168)" stroke="rgb(168,168,168)" stroke-width="1" opacity="1" d="M 373.5 319 L 374 321.5 L 373 321.5 L 373.5 319 Z " /><path fill="rgb(168,168,168)" stroke="rgb(168,168,168)" stroke-width="1" opacity="1" d="M 92.5 327 L 93 329.5 L 92 329.5 L 92.5 327 Z " /><path fill="rgb(168,168,168)" stroke="rgb(168,168,168)" stroke-width="1" opacity="1" d="M 104.5 329 L 105 331.5 L 104 331.5 L 104.5 329 Z " /><path fill="rgb(168,168,168)" stroke="rgb(168,168,168)" stroke-width="1" opacity="1" d="M 87.5 337 L 87 338.5 L 86.5 340 L 86 338.5 L 87.5 337 Z " /><path fill="rgb(168,168,168)" stroke="rgb(168,168,168)" stroke-width="1" opacity="1" d="M 376.5 338 L 387 338.5 L 384.5 340 Q 382.8 337.3 376.5 339 L 376.5 338 Z " /><path fill="rgb(168,168,168)" stroke="rgb(168,168,168)" stroke-width="1" opacity="1" d="M 146.5 340 L 152 340.5 L 146.5 341 L 146.5 340 Z " /><path fill="rgb(168,168,168)" stroke="rgb(168,168,168)" stroke-width="1" opacity="1" d="M 136.5 342 L 139 342.5 L 136.5 343 L 136.5 342 Z " /><path fill="rgb(168,168,168)" stroke="rgb(168,168,168)" stroke-width="1" opacity="1" d="M 151.5 345 L 152 357.5 L 151 357.5 L 151.5 345 Z " /><path fill="rgb(168,168,168)" stroke="rgb(168,168,168)" stroke-width="1" opacity="1" d="M 98.5 356 L 99 359.5 L 98 359.5 L 98.5 356 Z " /><path fill="rgb(168,168,168)" stroke="rgb(168,168,168)" stroke-width="1" opacity="1" d="M 373.5 358 L 379 358.5 L 373.5 359 L 373.5 358 Z " /><path fill="rgb(168,168,168)" stroke="rgb(168,168,168)" stroke-width="1" opacity="1" d="M 142.5 359 L 143.5 360 L 152 360.5 L 140.5 361 L 140.5 360 L 142.5 359 Z " /><path fill="rgb(168,168,168)" stroke="rgb(168,168,168)" stroke-width="1" opacity="1" d="M 149.5 362 L 151 364.5 L 150 365.5 L 149.5 427 L 149.5 362 Z " /><path fill="rgb(168,168,168)" stroke="rgb(168,168,168)" stroke-width="1" opacity="1" d="M 135.5 376 L 136 380.5 L 135 380.5 L 135.5 376 Z " /><path fill="rgb(168,168,168)" stroke="rgb(168,168,168)" stroke-width="1" opacity="1" d="M 392.5 376 L 393 379.5 L 392 379.5 L 392.5 376 Z " /><path fill="rgb(168,168,168)" stroke="rgb(168,168,168)" stroke-width="1" opacity="1" d="M 86.5 382 L 87 385.5 L 86 385.5 L 86.5 382 Z " /><path fill="rgb(168,168,168)" stroke="rgb(168,168,168)" stroke-width="1" opacity="1" d="M 449 383 L 451 383.5 L 449 384.5 L 449 383 Z " /><path fill="rgb(168,168,168)" stroke="rgb(168,168,168)" stroke-width="1" opacity="1" d="M 393.5 387 L 394 389.5 L 393 389.5 L 393.5 387 Z " /><path fill="rgb(168,168,168)" stroke="rgb(168,168,168)" stroke-width="1" opacity="1" d="M 454.5 392 L 457 392.5 L 451 397.5 Q 456.4 394.8 454.5 392 Z " /><path fill="rgb(168,168,168)" stroke="rgb(168,168,168)" stroke-width="1" opacity="1" d="M 441.5 397 L 445 397.5 L 441.5 398 L 441.5 397 Z " /><path fill="rgb(168,168,168)" stroke="rgb(168,168,168)" stroke-width="1" opacity="1" d="M 74.5 398 L 81 405.5 L 74 399.5 L 74.5 398 Z " /><path fill="rgb(168,168,168)" stroke="rgb(168,168,168)" stroke-width="1" opacity="1" d="M 86.5 398 Q 89.5 398.5 89 402.5 L 86.5 404 L 86.5 403 Q 89.1 403.8 88 400.5 L 86.5 398 Z " /><path fill="rgb(168,168,168)" stroke="rgb(168,168,168)" stroke-width="1" opacity="1" d="M 460.5 400 L 461 407.5 L 460 407.5 L 460.5 400 Z " /><path fill="rgb(168,168,168)" stroke="rgb(168,168,168)" stroke-width="1" opacity="1" d="M 390.5 406 L 391 408.5 L 390 408.5 L 390.5 406 Z " /><path fill="rgb(168,168,168)" stroke="rgb(168,168,168)" stroke-width="1" opacity="1" d="M 134.5 408 L 135 411.5 L 134 411.5 L 134.5 408 Z " /><path fill="rgb(168,168,168)" stroke="rgb(168,168,168)" stroke-width="1" opacity="1" d="M 374.5 429 L 381 429.5 L 376 430 L 375.5 432 L 374.5 429 Z " /><path fill="rgb(168,168,168)" stroke="rgb(168,168,168)" stroke-width="1" opacity="1" d="M 384.5 431 L 390 431.5 L 384.5 432 L 384.5 431 Z " /><path fill="rgb(168,168,168)" stroke="rgb(168,168,168)" stroke-width="1" opacity="1" d="M 136 435 L 142 435.5 L 136.5 437 L 136 435 Z " /><path fill="rgb(168,168,168)" stroke="rgb(168,168,168)" stroke-width="1" opacity="1" d="M 399.5 436 L 400 441.5 L 399 441.5 L 399.5 436 Z " /><path fill="rgb(168,168,168)" stroke="rgb(168,168,168)" stroke-width="1" opacity="1" d="M 478.5 437 L 479 440.5 L 478 443 L 476 442.5 L 478 438.5 L 478.5 437 Z " /><path fill="rgb(168,168,168)" stroke="rgb(168,168,168)" stroke-width="1" opacity="1" d="M 52.5 446 L 54 448.5 L 50.5 449 L 50.5 448 Q 53 448.7 52.5 446 Z " /><path fill="rgb(168,168,168)" stroke="rgb(168,168,168)" stroke-width="1" opacity="1" d="M 151.5 449 L 152 473.5 L 151 473.5 L 151.5 449 Z " /><path fill="rgb(168,168,168)" stroke="rgb(168,168,168)" stroke-width="1" opacity="1" d="M 53.5 451 L 54 452.5 L 52.5 455 L 52 453.5 L 53.5 451 Z " /><path fill="rgb(168,168,168)" stroke="rgb(168,168,168)" stroke-width="1" opacity="1" d="M 475.5 457 L 475 458.5 L 474.5 460 L 474 458.5 L 475.5 457 Z " /><path fill="rgb(168,168,168)" stroke="rgb(168,168,168)" stroke-width="1" opacity="1" d="M 375.5 458 L 376 460.5 L 375 460.5 L 375.5 458 Z " /><path fill="rgb(168,168,168)" stroke="rgb(168,168,168)" stroke-width="1" opacity="1" d="M 374.5 473 L 375 475.5 L 374 475.5 L 374.5 473 Z " /><path fill="rgb(168,168,168)" stroke="rgb(168,168,168)" stroke-width="1" opacity="1" d="M 157.5 477 L 158 479.5 L 157 479.5 L 157.5 477 Z " /><path fill="rgb(168,168,168)" stroke="rgb(168,168,168)" stroke-width="1" opacity="1" d="M 390.5 477 L 391 478.5 L 389 479.5 L 390.5 477 Z " /><path fill="rgb(168,168,168)" stroke="rgb(168,168,168)" stroke-width="1" opacity="1" d="M 139.5 480 L 140 482.5 L 139 482.5 L 139.5 480 Z " /><path fill="rgb(168,168,168)" stroke="rgb(168,168,168)" stroke-width="1" opacity="1" d="M 153.5 480 L 154 482.5 L 153 482.5 L 153.5 480 Z " /><path fill="rgb(168,168,168)" stroke="rgb(168,168,168)" stroke-width="1" opacity="1" d="M 413.5 481 L 414 483.5 L 412 482.5 L 413.5 481 Z " /><path fill="rgb(168,168,168)" stroke="rgb(168,168,168)" stroke-width="1" opacity="1" d="M 118.5 482 L 118 483.5 L 117.5 485 L 117 483.5 L 118.5 482 Z " /><path fill="rgb(168,168,168)" stroke="rgb(168,168,168)" stroke-width="1" opacity="1" d="M 372.5 483 L 373 485.5 L 372 485.5 L 372.5 483 Z " /><path fill="rgb(168,168,168)" stroke="rgb(168,168,168)" stroke-width="1" opacity="1" d="M 137.5 484 L 138 486.5 L 137 486.5 L 137.5 484 Z " /><path fill="rgb(168,168,168)" stroke="rgb(168,168,168)" stroke-width="1" opacity="1" d="M 370.5 493 L 371 498.5 L 370 498.5 L 370.5 493 Z " /><path fill="rgb(168,168,168)" stroke="rgb(168,168,168)" stroke-width="1" opacity="1" d="M 152.5 499 Q 154.8 498.3 154 500.5 L 157 501.5 L 156.5 504 L 152.5 499 Z " /><path fill="rgb(168,168,168)" stroke="rgb(168,168,168)" stroke-width="1" opacity="1" d="M 395.5 503 L 396.5 507 L 399 505.5 L 395 508 L 395.5 503 Z " /><path fill="rgb(168,168,168)" stroke="rgb(168,168,168)" stroke-width="1" opacity="1" d="M 163.5 505 L 164 509 L 162 508.5 L 163.5 505 Z " /><path fill="rgb(99,99,99)" stroke="rgb(99,99,99)" stroke-width="1" opacity="1" d="M 104 44 L 106 44.5 L 105.5 47 L 104 44 Z " /><path fill="rgb(99,99,99)" stroke="rgb(99,99,99)" stroke-width="1" opacity="1" d="M 230 63 L 232 63.5 L 230.5 71 L 230 63 Z " /><path fill="rgb(99,99,99)" stroke="rgb(99,99,99)" stroke-width="1" opacity="1" d="M 418.5 70 L 421 70.5 L 418.5 71 L 418.5 70 Z " /><path fill="rgb(99,99,99)" stroke="rgb(99,99,99)" stroke-width="1" opacity="1" d="M 97.5 71 L 100 71.5 L 97.5 72 L 97.5 71 Z " /><path fill="rgb(99,99,99)" stroke="rgb(99,99,99)" stroke-width="1" opacity="1" d="M 252.5 71 L 255.5 75 L 253 74.5 L 254 73.5 L 252.5 71 Z " /><path fill="rgb(99,99,99)" stroke="rgb(99,99,99)" stroke-width="1" opacity="1" d="M 406.5 71 L 409 71.5 L 406.5 72 L 406.5 71 Z " /><path fill="rgb(99,99,99)" stroke="rgb(99,99,99)" stroke-width="1" opacity="1" d="M 87.5 72 L 91 72.5 L 87.5 73 L 87.5 72 Z " /><path fill="rgb(99,99,99)" stroke="rgb(99,99,99)" stroke-width="1" opacity="1" d="M 230.5 73 L 231 80.5 L 230 80.5 L 230.5 73 Z " /><path fill="rgb(99,99,99)" stroke="rgb(99,99,99)" stroke-width="1" opacity="1" d="M 295.5 73 L 297 76.5 L 296 76.5 L 295.5 73 Z " /><path fill="rgb(99,99,99)" stroke="rgb(99,99,99)" stroke-width="1" opacity="1" d="M 382.5 73 L 387 73.5 L 382.5 74 L 382.5 73 Z " /><path fill="rgb(99,99,99)" stroke="rgb(99,99,99)" stroke-width="1" opacity="1" d="M 268.5 74 L 271 75.5 L 269.5 75 L 268.5 74 Z " /><path fill="rgb(99,99,99)" stroke="rgb(99,99,99)" stroke-width="1" opacity="1" d="M 368.5 74 L 372 74.5 L 368.5 75 L 368.5 74 Z " /><path fill="rgb(99,99,99)" stroke="rgb(99,99,99)" stroke-width="1" opacity="1" d="M 354.5 75 L 359 75.5 L 354.5 76 L 354.5 75 Z " /><path fill="rgb(99,99,99)" stroke="rgb(99,99,99)" stroke-width="1" opacity="1" d="M 99.5 76 L 102 76.5 L 99.5 77 L 99.5 76 Z " /><path fill="rgb(99,99,99)" stroke="rgb(99,99,99)" stroke-width="1" opacity="1" d="M 201.5 76 L 206 76.5 L 201.5 77 L 201.5 76 Z " /><path fill="rgb(99,99,99)" stroke="rgb(99,99,99)" stroke-width="1" opacity="1" d="M 338.5 76 L 344 76.5 L 338.5 77 L 338.5 76 Z " /><path fill="rgb(99,99,99)" stroke="rgb(99,99,99)" stroke-width="1" opacity="1" d="M 195.5 77 L 198 77.5 L 195.5 78 L 195.5 77 Z " /><path fill="rgb(99,99,99)" stroke="rgb(99,99,99)" stroke-width="1" opacity="1" d="M 387.5 77 L 390 77.5 L 387.5 78 L 387.5 77 Z " /><path fill="rgb(99,99,99)" stroke="rgb(99,99,99)" stroke-width="1" opacity="1" d="M 111.5 78 L 131 78.5 L 111.5 79 L 111.5 78 Z " /><path fill="rgb(99,99,99)" stroke="rgb(99,99,99)" stroke-width="1" opacity="1" d="M 132.5 78 L 140 78.5 L 132.5 79 L 132.5 78 Z " /><path fill="rgb(99,99,99)" stroke="rgb(99,99,99)" stroke-width="1" opacity="1" d="M 158.5 78 L 188 78.5 L 158.5 79 L 158.5 78 Z " /><path fill="rgb(99,99,99)" stroke="rgb(99,99,99)" stroke-width="1" opacity="1" d="M 275.5 78 L 297 78.5 L 275.5 79 L 275.5 78 Z " /><path fill="rgb(99,99,99)" stroke="rgb(99,99,99)" stroke-width="1" opacity="1" d="M 315.5 78 L 381 78.5 L 315.5 79 L 315.5 78 Z " /><path fill="rgb(99,99,99)" stroke="rgb(99,99,99)" stroke-width="1" opacity="1" d="M 145.5 79 L 153 79.5 L 145.5 80 L 145.5 79 Z " /><path fill="rgb(99,99,99)" stroke="rgb(99,99,99)" stroke-width="1" opacity="1" d="M 427.5 81 L 426.5 83 L 425 82.5 L 427.5 81 Z " /><path fill="rgb(99,99,99)" stroke="rgb(99,99,99)" stroke-width="1" opacity="1" d="M 74.5 83 L 75 86.5 L 74 86.5 L 74.5 83 Z " /><path fill="rgb(99,99,99)" stroke="rgb(99,99,99)" stroke-width="1" opacity="1" d="M 238.5 83 L 241 83.5 L 238.5 84 L 238.5 83 Z " /><path fill="rgb(99,99,99)" stroke="rgb(99,99,99)" stroke-width="1" opacity="1" d="M 402.5 84 L 405 84.5 L 402.5 85 L 402.5 84 Z " /><path fill="rgb(99,99,99)" stroke="rgb(99,99,99)" stroke-width="1" opacity="1" d="M 415.5 84 L 418 84.5 L 415.5 85 L 415.5 84 Z " /><path fill="rgb(99,99,99)" stroke="rgb(99,99,99)" stroke-width="1" opacity="1" d="M 112.5 85 L 113 87.5 L 112 87.5 L 112.5 85 Z " /><path fill="rgb(99,99,99)" stroke="rgb(99,99,99)" stroke-width="1" opacity="1" d="M 392.5 85 L 395 85.5 L 392.5 86 L 392.5 85 Z " /><path fill="rgb(99,99,99)" stroke="rgb(99,99,99)" stroke-width="1" opacity="1" d="M 403.5 86 L 406 86.5 L 403.5 87 L 403.5 86 Z " /><path fill="rgb(99,99,99)" stroke="rgb(99,99,99)" stroke-width="1" opacity="1" d="M 372.5 87 L 375 87.5 L 372.5 88 L 372.5 87 Z " /><path fill="rgb(99,99,99)" stroke="rgb(99,99,99)" stroke-width="1" opacity="1" d="M 396.5 87 L 399 87.5 L 396.5 88 L 396.5 87 Z " /><path fill="rgb(99,99,99)" stroke="rgb(99,99,99)" stroke-width="1" opacity="1" d="M 383.5 88 L 389 88.5 L 383.5 89 L 383.5 88 Z " /><path fill="rgb(99,99,99)" stroke="rgb(99,99,99)" stroke-width="1" opacity="1" d="M 307.5 90 L 363 90.5 L 307.5 91 L 307.5 90 Z " /><path fill="rgb(99,99,99)" stroke="rgb(99,99,99)" stroke-width="1" opacity="1" d="M 108.5 92 L 112 92.5 L 108.5 93 L 108.5 92 Z " /><path fill="rgb(99,99,99)" stroke="rgb(99,99,99)" stroke-width="1" opacity="1" d="M 207.5 92 L 220 92.5 L 207.5 93 L 207.5 92 Z " /><path fill="rgb(99,99,99)" stroke="rgb(99,99,99)" stroke-width="1" opacity="1" d="M 362.5 92 Q 362.1 98 366 99.5 L 362 96.5 L 362.5 92 Z " /><path fill="rgb(99,99,99)" stroke="rgb(99,99,99)" stroke-width="1" opacity="1" d="M 118.5 93 L 121 93.5 L 118.5 94 L 118.5 93 Z " /><path fill="rgb(99,99,99)" stroke="rgb(99,99,99)" stroke-width="1" opacity="1" d="M 198.5 93 L 201 93.5 L 198.5 94 L 198.5 93 Z " /><path fill="rgb(99,99,99)" stroke="rgb(99,99,99)" stroke-width="1" opacity="1" d="M 129.5 94 L 190 94.5 L 129.5 95 L 129.5 94 Z " /><path fill="rgb(99,99,99)" stroke="rgb(99,99,99)" stroke-width="1" opacity="1" d="M 161.5 101 L 162 103.5 L 161 103.5 L 161.5 101 Z " /><path fill="rgb(99,99,99)" stroke="rgb(99,99,99)" stroke-width="1" opacity="1" d="M 115.5 102 L 116 104 L 114 103.5 L 115.5 102 Z " /><path fill="rgb(99,99,99)" stroke="rgb(99,99,99)" stroke-width="1" opacity="1" d="M 238.5 103 L 239 113.5 L 238 113.5 L 238.5 103 Z " /><path fill="rgb(99,99,99)" stroke="rgb(99,99,99)" stroke-width="1" opacity="1" d="M 392.5 104 Q 399.5 102.5 399 105.5 L 391 112.5 L 397.5 105 Q 391.5 106.3 392.5 104 Z " /><path fill="rgb(99,99,99)" stroke="rgb(99,99,99)" stroke-width="1" opacity="1" d="M 282.5 105 L 284 108.5 L 283 108.5 L 282.5 105 Z " /><path fill="rgb(99,99,99)" stroke="rgb(99,99,99)" stroke-width="1" opacity="1" d="M 285.5 105 L 288 106.5 L 286.5 107 L 285.5 105 Z " /><path fill="rgb(99,99,99)" stroke="rgb(99,99,99)" stroke-width="1" opacity="1" d="M 375.5 105 L 378 105.5 L 375.5 106 L 375.5 105 Z " /><path fill="rgb(99,99,99)" stroke="rgb(99,99,99)" stroke-width="1" opacity="1" d="M 292.5 109 L 292 110.5 L 295.5 115 L 291 110.5 L 292.5 109 Z " /><path fill="rgb(99,99,99)" stroke="rgb(99,99,99)" stroke-width="1" opacity="1" d="M 107.5 112 L 108 114.5 L 106.5 116 L 106 113.5 L 107.5 112 Z " /><path fill="rgb(99,99,99)" stroke="rgb(99,99,99)" stroke-width="1" opacity="1" d="M 155.5 115 L 158 115.5 L 155.5 116 L 155.5 115 Z " /><path fill="rgb(99,99,99)" stroke="rgb(99,99,99)" stroke-width="1" opacity="1" d="M 137.5 118 L 142 118.5 L 137.5 119 L 137.5 118 Z " /><path fill="rgb(99,99,99)" stroke="rgb(99,99,99)" stroke-width="1" opacity="1" d="M 462.5 119 L 463 122.5 L 462 122.5 L 462.5 119 Z " /><path fill="rgb(99,99,99)" stroke="rgb(99,99,99)" stroke-width="1" opacity="1" d="M 448.5 127 L 442.5 134 L 445 130.5 L 444.5 129 L 446 129.5 Q 445.3 127.3 447.5 128 L 448.5 127 Z " /><path fill="rgb(99,99,99)" stroke="rgb(99,99,99)" stroke-width="1" opacity="1" d="M 153.5 128 L 154 139.5 L 153 139.5 L 153.5 128 Z " /><path fill="rgb(99,99,99)" stroke="rgb(99,99,99)" stroke-width="1" opacity="1" d="M 51.5 130 L 53 132.5 L 51 133 L 51.5 130 Z " /><path fill="rgb(99,99,99)" stroke="rgb(99,99,99)" stroke-width="1" opacity="1" d="M 151.5 130 L 151 131.5 Q 151.8 133.8 149.5 133 L 151.5 130 Z " /><path fill="rgb(99,99,99)" stroke="rgb(99,99,99)" stroke-width="1" opacity="1" d="M 384.5 133 L 390 133.5 L 384.5 134 L 384.5 133 Z " /><path fill="rgb(99,99,99)" stroke="rgb(99,99,99)" stroke-width="1" opacity="1" d="M 242.5 135 L 243 137.5 L 242 137.5 L 242.5 135 Z " /><path fill="rgb(99,99,99)" stroke="rgb(99,99,99)" stroke-width="1" opacity="1" d="M 52.5 136 L 53.5 138 L 51 137.5 L 52.5 136 Z " /><path fill="rgb(99,99,99)" stroke="rgb(99,99,99)" stroke-width="1" opacity="1" d="M 470.5 136 L 471 140 L 467 139.5 L 470 139 L 470.5 136 Z " /><path fill="rgb(99,99,99)" stroke="rgb(99,99,99)" stroke-width="1" opacity="1" d="M 251.5 138 L 250.5 140 L 249 139.5 L 251.5 138 Z " /><path fill="rgb(99,99,99)" stroke="rgb(99,99,99)" stroke-width="1" opacity="1" d="M 240.5 140 L 245 141.5 L 239.5 142 L 240.5 140 Z " /><path fill="rgb(99,99,99)" stroke="rgb(99,99,99)" stroke-width="1" opacity="1" d="M 276.5 140 L 277.5 141 L 287 141.5 L 277.5 142 L 276.5 140 Z " /><path fill="rgb(99,99,99)" stroke="rgb(99,99,99)" stroke-width="1" opacity="1" d="M 370.5 143 L 371 145.5 L 370 145.5 L 370.5 143 Z " /><path fill="rgb(99,99,99)" stroke="rgb(99,99,99)" stroke-width="1" opacity="1" d="M 464.5 143 L 465 147.5 L 464 147.5 L 464.5 143 Z " /><path fill="rgb(99,99,99)" stroke="rgb(99,99,99)" stroke-width="1" opacity="1" d="M 405.5 144 L 406 146 L 404 146.5 L 404.5 148 Q 401 146 405.5 144 Z " /><path fill="rgb(99,99,99)" stroke="rgb(99,99,99)" stroke-width="1" opacity="1" d="M 467.5 147 Q 470.5 148.5 467.5 150 Q 464.2 148.9 465 151.5 L 464 151.5 Q 462.7 147.3 467.5 149 L 467.5 147 Z " /><path fill="rgb(99,99,99)" stroke="rgb(99,99,99)" stroke-width="1" opacity="1" d="M 134.5 148 L 135 150.5 L 134 150.5 L 134.5 148 Z " /><path fill="rgb(99,99,99)" stroke="rgb(99,99,99)" stroke-width="1" opacity="1" d="M 228.5 149 L 231 150.5 L 228.5 152 L 228.5 149 Z " /><path fill="rgb(99,99,99)" stroke="rgb(99,99,99)" stroke-width="1" opacity="1" d="M 151.5 151 L 152 153.5 L 151 153.5 L 151.5 151 Z " /><path fill="rgb(99,99,99)" stroke="rgb(99,99,99)" stroke-width="1" opacity="1" d="M 291.5 154 L 292 157 L 294.5 156 L 295 158 L 291 156.5 L 291.5 154 Z " /><path fill="rgb(99,99,99)" stroke="rgb(99,99,99)" stroke-width="1" opacity="1" d="M 223.5 155 Q 225.8 154.3 225 156.5 Q 223.5 159.5 222 156.5 L 223.5 155 Z " /><path fill="rgb(99,99,99)" stroke="rgb(99,99,99)" stroke-width="1" opacity="1" d="M 226.5 156 L 230 157.5 L 227.5 158 L 226.5 156 Z " /><path fill="rgb(99,99,99)" stroke="rgb(99,99,99)" stroke-width="1" opacity="1" d="M 462.5 156 L 461.5 158 L 454 157.5 L 462.5 156 Z " /><path fill="rgb(99,99,99)" stroke="rgb(99,99,99)" stroke-width="1" opacity="1" d="M 448 157 Q 451.8 156 453 158.5 L 451.5 159 L 449 158 Q 450.3 161.3 445.5 160 L 445.5 159 Q 449.3 160 448 157 Z " /><path fill="rgb(99,99,99)" stroke="rgb(99,99,99)" stroke-width="1" opacity="1" d="M 442.5 158 L 442.5 160 L 444 160.5 L 442.5 161 Q 439.5 159.5 442.5 158 Z " /><path fill="rgb(99,99,99)" stroke="rgb(99,99,99)" stroke-width="1" opacity="1" d="M 66.5 161 L 69 161.5 L 66.5 162 L 66.5 161 Z " /><path fill="rgb(99,99,99)" stroke="rgb(99,99,99)" stroke-width="1" opacity="1" d="M 299.5 161 L 301 161.5 L 298.5 163 L 299.5 161 Z " /><path fill="rgb(99,99,99)" stroke="rgb(99,99,99)" stroke-width="1" opacity="1" d="M 217.5 163 L 221 164.5 L 219.5 164 Q 216.5 164.5 217.5 163 Z " /><path fill="rgb(99,99,99)" stroke="rgb(99,99,99)" stroke-width="1" opacity="1" d="M 304.5 163 L 307.5 165 L 309.5 165 L 321 165.5 L 304 166 L 303.5 168 L 301 164.5 L 302 164.5 Q 301.3 166.8 303.5 166 L 304.5 163 Z " /><path fill="rgb(99,99,99)" stroke="rgb(99,99,99)" stroke-width="1" opacity="1" d="M 324.5 166 L 323.5 168 L 322 167.5 L 324.5 166 Z " /><path fill="rgb(99,99,99)" stroke="rgb(99,99,99)" stroke-width="1" opacity="1" d="M 79.5 168 Q 82.5 167.5 81 174.5 L 80 174.5 L 79.5 169 L 78 169.5 L 79.5 168 Z " /><path fill="rgb(99,99,99)" stroke="rgb(99,99,99)" stroke-width="1" opacity="1" d="M 438.5 171 L 441 171.5 L 438.5 172 L 438.5 171 Z " /><path fill="rgb(99,99,99)" stroke="rgb(99,99,99)" stroke-width="1" opacity="1" d="M 326.5 175 L 327.5 177 L 325.5 178 L 326 176.5 L 326.5 175 Z " /><path fill="rgb(99,99,99)" stroke="rgb(99,99,99)" stroke-width="1" opacity="1" d="M 83.5 177 L 86 177.5 L 83.5 178 L 83.5 177 Z " /><path fill="rgb(99,99,99)" stroke="rgb(99,99,99)" stroke-width="1" opacity="1" d="M 102.5 178 L 103 180.5 L 101 179.5 L 102.5 178 Z " /><path fill="rgb(99,99,99)" stroke="rgb(99,99,99)" stroke-width="1" opacity="1" d="M 195.5 179 L 196 181.5 L 195 181.5 L 195.5 179 Z " /><path fill="rgb(99,99,99)" stroke="rgb(99,99,99)" stroke-width="1" opacity="1" d="M 333.5 179 L 338 179.5 L 333.5 180 L 333.5 179 Z " /><path fill="rgb(99,99,99)" stroke="rgb(99,99,99)" stroke-width="1" opacity="1" d="M 347.5 179 L 352 179.5 L 347.5 180 L 347.5 179 Z " /><path fill="rgb(99,99,99)" stroke="rgb(99,99,99)" stroke-width="1" opacity="1" d="M 420.5 179 L 423 179.5 L 421.5 186 L 420.5 179 Z " /><path fill="rgb(99,99,99)" stroke="rgb(99,99,99)" stroke-width="1" opacity="1" d="M 91.5 182 Q 95.3 181 94 184 L 91.5 185 L 91.5 182 Z " /><path fill="rgb(99,99,99)" stroke="rgb(99,99,99)" stroke-width="1" opacity="1" d="M 99.5 183 Q 102.3 182.4 101 188.5 L 100 188.5 L 99.5 183 Z " /><path fill="rgb(99,99,99)" stroke="rgb(99,99,99)" stroke-width="1" opacity="1" d="M 179.5 183 L 181 185.5 L 180 185.5 L 179.5 183 Z " /><path fill="rgb(99,99,99)" stroke="rgb(99,99,99)" stroke-width="1" opacity="1" d="M 421 187 L 423 187.5 L 421 188.5 L 421 187 Z " /><path fill="rgb(99,99,99)" stroke="rgb(99,99,99)" stroke-width="1" opacity="1" d="M 352.5 189 L 353 192.5 L 352 192.5 L 352.5 189 Z " /><path fill="rgb(99,99,99)" stroke="rgb(99,99,99)" stroke-width="1" opacity="1" d="M 102.5 195 L 103 198.5 L 102 198.5 L 102.5 195 Z " /><path fill="rgb(99,99,99)" stroke="rgb(99,99,99)" stroke-width="1" opacity="1" d="M 104.5 195 L 105 202.5 L 104 202.5 L 104.5 195 Z " /><path fill="rgb(99,99,99)" stroke="rgb(99,99,99)" stroke-width="1" opacity="1" d="M 362.5 198 L 364.5 201 Q 362.3 201.8 363 199.5 L 360 200.5 L 362.5 198 Z " /><path fill="rgb(99,99,99)" stroke="rgb(99,99,99)" stroke-width="1" opacity="1" d="M 394.5 199 L 395 200.5 L 393 201.5 L 394.5 199 Z " /><path fill="rgb(99,99,99)" stroke="rgb(99,99,99)" stroke-width="1" opacity="1" d="M 415.5 199 L 417 203.5 L 415 204 L 415.5 199 Z " /><path fill="rgb(99,99,99)" stroke="rgb(99,99,99)" stroke-width="1" opacity="1" d="M 364.5 203 L 365 208 L 368 208.5 L 364 209 L 364.5 203 Z " /><path fill="rgb(99,99,99)" stroke="rgb(99,99,99)" stroke-width="1" opacity="1" d="M 104.5 204 L 105 206 L 107.5 205 L 107 206.5 L 108 210.5 L 106 211 L 106 207.5 Q 102.8 208.3 104.5 204 Z " /><path fill="rgb(99,99,99)" stroke="rgb(99,99,99)" stroke-width="1" opacity="1" d="M 109.5 206 L 113 207.5 L 111.5 207 Q 108.5 207.5 109.5 206 Z " /><path fill="rgb(99,99,99)" stroke="rgb(99,99,99)" stroke-width="1" opacity="1" d="M 413.5 206 L 414 209.5 L 412 210.5 L 413.5 206 Z " /><path fill="rgb(99,99,99)" stroke="rgb(99,99,99)" stroke-width="1" opacity="1" d="M 409.5 209 L 410 212.5 L 409 212.5 L 408 210.5 L 409.5 209 Z " /><path fill="rgb(99,99,99)" stroke="rgb(99,99,99)" stroke-width="1" opacity="1" d="M 368.5 215 L 370 218.5 L 369 219.5 L 368.5 260 L 368.5 215 Z " /><path fill="rgb(99,99,99)" stroke="rgb(99,99,99)" stroke-width="1" opacity="1" d="M 387.5 215 L 388 217.5 L 386 216.5 L 387.5 215 Z " /><path fill="rgb(99,99,99)" stroke="rgb(99,99,99)" stroke-width="1" opacity="1" d="M 388.5 219 L 390 221.5 L 388 220.5 L 388.5 219 Z " /><path fill="rgb(99,99,99)" stroke="rgb(99,99,99)" stroke-width="1" opacity="1" d="M 153.5 220 L 154 236.5 L 153 236.5 L 152.5 222 L 152 245.5 L 153 247.5 L 151.5 253 L 151 222.5 L 153.5 220 Z " /><path fill="rgb(99,99,99)" stroke="rgb(99,99,99)" stroke-width="1" opacity="1" d="M 173.5 221 L 174 223.5 L 173 223.5 L 173.5 221 Z " /><path fill="rgb(99,99,99)" stroke="rgb(99,99,99)" stroke-width="1" opacity="1" d="M 133.5 225 L 133 226.5 L 132.5 228 L 132 226.5 L 133.5 225 Z " /><path fill="rgb(99,99,99)" stroke="rgb(99,99,99)" stroke-width="1" opacity="1" d="M 129.5 230 L 130 231.5 L 128.5 234 L 128 232.5 L 129.5 230 Z " /><path fill="rgb(99,99,99)" stroke="rgb(99,99,99)" stroke-width="1" opacity="1" d="M 395.5 230 L 397 232.5 L 395 233 L 395.5 230 Z " /><path fill="rgb(99,99,99)" stroke="rgb(99,99,99)" stroke-width="1" opacity="1" d="M 385.5 234 L 386 240.5 L 385 240.5 L 385.5 234 Z " /><path fill="rgb(99,99,99)" stroke="rgb(99,99,99)" stroke-width="1" opacity="1" d="M 371.5 241 L 372 243.5 L 371 243.5 L 371.5 241 Z " /><path fill="rgb(99,99,99)" stroke="rgb(99,99,99)" stroke-width="1" opacity="1" d="M 125.5 247 L 126 249.5 L 125 249.5 L 125.5 247 Z " /><path fill="rgb(99,99,99)" stroke="rgb(99,99,99)" stroke-width="1" opacity="1" d="M 372.5 249 L 374 255.5 L 372 254.5 L 372.5 249 Z " /><path fill="rgb(99,99,99)" stroke="rgb(99,99,99)" stroke-width="1" opacity="1" d="M 409.5 249 L 410 252.5 L 409 252.5 L 409.5 249 Z " /><path fill="rgb(99,99,99)" stroke="rgb(99,99,99)" stroke-width="1" opacity="1" d="M 384.5 253 L 385 257.5 L 384 257.5 L 384.5 253 Z " /><path fill="rgb(99,99,99)" stroke="rgb(99,99,99)" stroke-width="1" opacity="1" d="M 373.5 263 L 374 266.5 L 373 266.5 L 373.5 263 Z " /><path fill="rgb(99,99,99)" stroke="rgb(99,99,99)" stroke-width="1" opacity="1" d="M 151.5 264 L 152 290.5 L 151 290.5 L 151 275.5 L 150 272.5 L 151.5 264 Z " /><path fill="rgb(99,99,99)" stroke="rgb(99,99,99)" stroke-width="1" opacity="1" d="M 145.5 266 L 146 268 L 144 267.5 L 145.5 266 Z " /><path fill="rgb(99,99,99)" stroke="rgb(99,99,99)" stroke-width="1" opacity="1" d="M 369.5 269 L 370 271.5 L 369 271.5 L 369.5 269 Z " /><path fill="rgb(99,99,99)" stroke="rgb(99,99,99)" stroke-width="1" opacity="1" d="M 370.5 278 L 371 281.5 L 370 281.5 L 370.5 278 Z " /><path fill="rgb(99,99,99)" stroke="rgb(99,99,99)" stroke-width="1" opacity="1" d="M 138.5 279 L 139 282.5 L 138 282.5 L 138.5 279 Z " /><path fill="rgb(99,99,99)" stroke="rgb(99,99,99)" stroke-width="1" opacity="1" d="M 102.5 281 L 104 284.5 L 102 283.5 L 102.5 281 Z " /><path fill="rgb(99,99,99)" stroke="rgb(99,99,99)" stroke-width="1" opacity="1" d="M 374.5 283 L 375 288.5 L 374 288.5 L 374.5 283 Z " /><path fill="rgb(99,99,99)" stroke="rgb(99,99,99)" stroke-width="1" opacity="1" d="M 114.5 285 L 116 290.5 L 114 291 L 114.5 285 Z " /><path fill="rgb(99,99,99)" stroke="rgb(99,99,99)" stroke-width="1" opacity="1" d="M 100.5 289 L 102 291.5 L 100 292 L 100.5 289 Z " /><path fill="rgb(99,99,99)" stroke="rgb(99,99,99)" stroke-width="1" opacity="1" d="M 176.5 289 L 177 291.5 L 175.5 293 L 175 290.5 L 176.5 289 Z " /><path fill="rgb(99,99,99)" stroke="rgb(99,99,99)" stroke-width="1" opacity="1" d="M 411.5 289 L 412 294.5 L 410 293.5 L 411.5 289 Z " /><path fill="rgb(99,99,99)" stroke="rgb(99,99,99)" stroke-width="1" opacity="1" d="M 371.5 292 L 372 295.5 L 371 295.5 L 371.5 292 Z " /><path fill="rgb(99,99,99)" stroke="rgb(99,99,99)" stroke-width="1" opacity="1" d="M 112.5 297 Q 115.2 298.3 113 299.5 L 112.5 302 L 112.5 297 Z " /><path fill="rgb(99,99,99)" stroke="rgb(99,99,99)" stroke-width="1" opacity="1" d="M 201 297 L 203 297.5 L 201 298.5 L 201 297 Z " /><path fill="rgb(99,99,99)" stroke="rgb(99,99,99)" stroke-width="1" opacity="1" d="M 412.5 298 L 413 300.5 L 412 300.5 L 412.5 298 Z " /><path fill="rgb(99,99,99)" stroke="rgb(99,99,99)" stroke-width="1" opacity="1" d="M 420.5 301 L 424 301.5 Q 422.8 304.3 421.5 302 L 420.5 301 Z " /><path fill="rgb(99,99,99)" stroke="rgb(99,99,99)" stroke-width="1" opacity="1" d="M 427.5 301 L 429.5 304 L 428 303.5 L 428 315.5 L 426.5 316 L 427 314.5 L 427.5 301 Z " /><path fill="rgb(99,99,99)" stroke="rgb(99,99,99)" stroke-width="1" opacity="1" d="M 375.5 302 L 376 309.5 L 375 309.5 L 375.5 302 Z " /><path fill="rgb(99,99,99)" stroke="rgb(99,99,99)" stroke-width="1" opacity="1" d="M 94.5 305 L 97 305.5 L 94.5 306 L 94.5 305 Z " /><path fill="rgb(99,99,99)" stroke="rgb(99,99,99)" stroke-width="1" opacity="1" d="M 101.5 305 L 109.5 305 L 110.5 306 L 112 305.5 L 110.5 308 L 110 306 L 103.5 307 L 101.5 305 Z " /><path fill="rgb(99,99,99)" stroke="rgb(99,99,99)" stroke-width="1" opacity="1" d="M 372.5 305 L 373 308.5 L 372 308.5 L 372.5 305 Z " /><path fill="rgb(99,99,99)" stroke="rgb(99,99,99)" stroke-width="1" opacity="1" d="M 94.5 307 L 95 318 L 97 318.5 L 94 319 L 94.5 307 Z " /><path fill="rgb(99,99,99)" stroke="rgb(99,99,99)" stroke-width="1" opacity="1" d="M 107.5 308 L 110 309.5 L 108.5 313 Q 105.8 311.8 108 310.5 L 107.5 308 Z " /><path fill="rgb(99,99,99)" stroke="rgb(99,99,99)" stroke-width="1" opacity="1" d="M 141.5 310 L 142 320.5 L 141 320.5 L 141.5 310 Z " /><path fill="rgb(99,99,99)" stroke="rgb(99,99,99)" stroke-width="1" opacity="1" d="M 150.5 312 L 151 316.5 L 150 316.5 L 150.5 312 Z " /><path fill="rgb(99,99,99)" stroke="rgb(99,99,99)" stroke-width="1" opacity="1" d="M 415.5 315 L 416 321.5 L 415 321.5 L 415.5 315 Z " /><path fill="rgb(99,99,99)" stroke="rgb(99,99,99)" stroke-width="1" opacity="1" d="M 373.5 316 L 374 318.5 L 373 318.5 L 373.5 316 Z " /><path fill="rgb(99,99,99)" stroke="rgb(99,99,99)" stroke-width="1" opacity="1" d="M 92.5 324 L 93 326.5 L 91 325.5 L 92.5 324 Z " /><path fill="rgb(99,99,99)" stroke="rgb(99,99,99)" stroke-width="1" opacity="1" d="M 434.5 326 L 434 327.5 L 433.5 332 L 433 327.5 L 434.5 326 Z " /><path fill="rgb(99,99,99)" stroke="rgb(99,99,99)" stroke-width="1" opacity="1" d="M 88.5 335 L 89 341.5 L 88 341.5 L 88.5 335 Z " /><path fill="rgb(99,99,99)" stroke="rgb(99,99,99)" stroke-width="1" opacity="1" d="M 374.5 336 L 375 338.5 L 374 338.5 L 374.5 336 Z " /><path fill="rgb(99,99,99)" stroke="rgb(99,99,99)" stroke-width="1" opacity="1" d="M 86.5 340 L 87 342.5 L 86 342.5 L 86.5 340 Z " /><path fill="rgb(99,99,99)" stroke="rgb(99,99,99)" stroke-width="1" opacity="1" d="M 376.5 340 L 380 340.5 L 376.5 341 L 376.5 340 Z " /><path fill="rgb(99,99,99)" stroke="rgb(99,99,99)" stroke-width="1" opacity="1" d="M 153.5 342 L 154 358.5 L 153 358.5 L 153.5 342 Z " /><path fill="rgb(99,99,99)" stroke="rgb(99,99,99)" stroke-width="1" opacity="1" d="M 147.5 344 L 152 344.5 L 147.5 345 L 147.5 344 Z " /><path fill="rgb(99,99,99)" stroke="rgb(99,99,99)" stroke-width="1" opacity="1" d="M 373.5 354 L 376 354.5 L 373.5 355 L 373.5 354 Z " /><path fill="rgb(99,99,99)" stroke="rgb(99,99,99)" stroke-width="1" opacity="1" d="M 148.5 358 L 152 358.5 L 148.5 359 L 148.5 358 Z " /><path fill="rgb(99,99,99)" stroke="rgb(99,99,99)" stroke-width="1" opacity="1" d="M 151.5 370 L 152 426.5 Q 155 427.5 154 432.5 L 151 432.5 L 151.5 430 L 153 430.5 L 151 426.5 L 151.5 370 Z " /><path fill="rgb(99,99,99)" stroke="rgb(99,99,99)" stroke-width="1" opacity="1" d="M 392.5 380 L 393 383.5 L 392 383.5 L 392.5 380 Z " /><path fill="rgb(99,99,99)" stroke="rgb(99,99,99)" stroke-width="1" opacity="1" d="M 72 381 L 74 381.5 L 72 382.5 L 72 381 Z " /><path fill="rgb(99,99,99)" stroke="rgb(99,99,99)" stroke-width="1" opacity="1" d="M 135.5 381 L 136 384.5 L 135 384.5 L 135.5 381 Z " /><path fill="rgb(99,99,99)" stroke="rgb(99,99,99)" stroke-width="1" opacity="1" d="M 460.5 381 L 461 388.5 L 460 388.5 L 460.5 381 Z " /><path fill="rgb(99,99,99)" stroke="rgb(99,99,99)" stroke-width="1" opacity="1" d="M 76.5 388 Q 78.8 387.3 78 389.5 L 79.5 392 L 76.5 388 Z " /><path fill="rgb(99,99,99)" stroke="rgb(99,99,99)" stroke-width="1" opacity="1" d="M 134.5 390 L 135 392.5 L 134 392.5 L 134.5 390 Z " /><path fill="rgb(99,99,99)" stroke="rgb(99,99,99)" stroke-width="1" opacity="1" d="M 393.5 390 L 394 392.5 L 393 392.5 L 393.5 390 Z " /><path fill="rgb(99,99,99)" stroke="rgb(99,99,99)" stroke-width="1" opacity="1" d="M 135.5 396 L 136 398.5 L 135 398.5 L 135.5 396 Z " /><path fill="rgb(99,99,99)" stroke="rgb(99,99,99)" stroke-width="1" opacity="1" d="M 92.5 401 L 93 403.5 L 89 406.5 L 92.5 401 Z " /><path fill="rgb(99,99,99)" stroke="rgb(99,99,99)" stroke-width="1" opacity="1" d="M 442 401 L 446 401.5 L 442.5 403 L 442 401 Z " /><path fill="rgb(99,99,99)" stroke="rgb(99,99,99)" stroke-width="1" opacity="1" d="M 390.5 402 L 391 405.5 L 390 405.5 L 390.5 402 Z " /><path fill="rgb(99,99,99)" stroke="rgb(99,99,99)" stroke-width="1" opacity="1" d="M 134.5 405 L 135 407.5 L 134 407.5 L 134.5 405 Z " /><path fill="rgb(99,99,99)" stroke="rgb(99,99,99)" stroke-width="1" opacity="1" d="M 85.5 407 L 88 407.5 L 86.5 412 L 85.5 407 Z " /><path fill="rgb(99,99,99)" stroke="rgb(99,99,99)" stroke-width="1" opacity="1" d="M 64.5 419 L 65 421.5 L 64 421.5 L 64.5 419 Z " /><path fill="rgb(99,99,99)" stroke="rgb(99,99,99)" stroke-width="1" opacity="1" d="M 145.5 427 L 150 427.5 L 145.5 428 L 145.5 427 Z " /><path fill="rgb(99,99,99)" stroke="rgb(99,99,99)" stroke-width="1" opacity="1" d="M 372.5 427 L 376 427.5 L 372.5 428 L 372.5 427 Z " /><path fill="rgb(99,99,99)" stroke="rgb(99,99,99)" stroke-width="1" opacity="1" d="M 377.5 427 L 381 427.5 L 377.5 428 L 377.5 427 Z " /><path fill="rgb(99,99,99)" stroke="rgb(99,99,99)" stroke-width="1" opacity="1" d="M 133.5 429 L 140 429.5 L 133.5 430 L 133.5 429 Z " /><path fill="rgb(99,99,99)" stroke="rgb(99,99,99)" stroke-width="1" opacity="1" d="M 386.5 429 L 392 429.5 L 386.5 430 L 386.5 429 Z " /><path fill="rgb(99,99,99)" stroke="rgb(99,99,99)" stroke-width="1" opacity="1" d="M 398.5 429 L 401 436.5 L 399 435.5 L 398.5 429 Z " /><path fill="rgb(99,99,99)" stroke="rgb(99,99,99)" stroke-width="1" opacity="1" d="M 129.5 431 L 130 434.5 L 128 433.5 L 129.5 431 Z " /><path fill="rgb(99,99,99)" stroke="rgb(99,99,99)" stroke-width="1" opacity="1" d="M 393.5 434 L 394 436.5 L 393 436.5 L 393.5 434 Z " /><path fill="rgb(99,99,99)" stroke="rgb(99,99,99)" stroke-width="1" opacity="1" d="M 477.5 434 L 478 435.5 L 476 436.5 L 477.5 434 Z " /><path fill="rgb(99,99,99)" stroke="rgb(99,99,99)" stroke-width="1" opacity="1" d="M 136.5 441 Q 139.1 440.2 138 443.5 L 137 443.5 L 136.5 441 Z " /><path fill="rgb(99,99,99)" stroke="rgb(99,99,99)" stroke-width="1" opacity="1" d="M 47.5 444 Q 50.3 445.3 48 446.5 L 47.5 454 L 47.5 444 Z " /><path fill="rgb(99,99,99)" stroke="rgb(99,99,99)" stroke-width="1" opacity="1" d="M 480.5 444 L 481 450.5 L 480 450.5 L 480.5 444 Z " /><path fill="rgb(99,99,99)" stroke="rgb(99,99,99)" stroke-width="1" opacity="1" d="M 51 445 L 53 445.5 L 51.5 448 L 51 445 Z " /><path fill="rgb(99,99,99)" stroke="rgb(99,99,99)" stroke-width="1" opacity="1" d="M 127.5 447 L 128 449.5 L 127 449.5 L 127.5 447 Z " /><path fill="rgb(99,99,99)" stroke="rgb(99,99,99)" stroke-width="1" opacity="1" d="M 153.5 447 L 154 456.5 L 153 456.5 L 153.5 447 Z " /><path fill="rgb(99,99,99)" stroke="rgb(99,99,99)" stroke-width="1" opacity="1" d="M 393.5 459 L 394 461.5 L 393 461.5 L 393.5 459 Z " /><path fill="rgb(99,99,99)" stroke="rgb(99,99,99)" stroke-width="1" opacity="1" d="M 470.5 459 L 473 462.5 L 471 462.5 L 470.5 467 L 470.5 459 Z " /><path fill="rgb(99,99,99)" stroke="rgb(99,99,99)" stroke-width="1" opacity="1" d="M 53.5 465 L 56.5 466 L 58 465.5 L 54.5 467 L 53.5 465 Z " /><path fill="rgb(99,99,99)" stroke="rgb(99,99,99)" stroke-width="1" opacity="1" d="M 118.5 465 L 119 467.5 L 118 467.5 L 118.5 465 Z " /><path fill="rgb(99,99,99)" stroke="rgb(99,99,99)" stroke-width="1" opacity="1" d="M 155.5 468 L 156 470.5 L 155 470.5 L 155.5 468 Z " /><path fill="rgb(99,99,99)" stroke="rgb(99,99,99)" stroke-width="1" opacity="1" d="M 411.5 471 L 412 475.5 L 410 474.5 L 411.5 471 Z " /><path fill="rgb(99,99,99)" stroke="rgb(99,99,99)" stroke-width="1" opacity="1" d="M 373 472 L 375 472.5 L 373 473.5 L 373 472 Z " /><path fill="rgb(99,99,99)" stroke="rgb(99,99,99)" stroke-width="1" opacity="1" d="M 137.5 479 L 138 483.5 L 137 483.5 L 137.5 479 Z " /><path fill="rgb(99,99,99)" stroke="rgb(99,99,99)" stroke-width="1" opacity="1" d="M 412.5 479 L 413 481.5 L 412 481.5 L 412.5 479 Z " /><path fill="rgb(99,99,99)" stroke="rgb(99,99,99)" stroke-width="1" opacity="1" d="M 143.5 480 L 144 485.5 L 143 485.5 L 143.5 480 Z " /><path fill="rgb(99,99,99)" stroke="rgb(99,99,99)" stroke-width="1" opacity="1" d="M 157.5 480 L 158 482.5 L 157 482.5 L 157.5 480 Z " /><path fill="rgb(99,99,99)" stroke="rgb(99,99,99)" stroke-width="1" opacity="1" d="M 384 488 L 386 488.5 L 384.5 491 L 384 488 Z " /><path fill="rgb(99,99,99)" stroke="rgb(99,99,99)" stroke-width="1" opacity="1" d="M 407.5 489 L 407 490.5 L 406.5 492 L 406 490.5 L 407.5 489 Z " /><path fill="rgb(99,99,99)" stroke="rgb(99,99,99)" stroke-width="1" opacity="1" d="M 392.5 491 L 395 495.5 L 393 494.5 L 392.5 491 Z " /><path fill="rgb(99,99,99)" stroke="rgb(99,99,99)" stroke-width="1" opacity="1" d="M 119.5 492 L 122 493.5 L 120.5 493 L 119.5 492 Z " /><path fill="rgb(99,99,99)" stroke="rgb(99,99,99)" stroke-width="1" opacity="1" d="M 145.5 493 L 146 496.5 L 145 496.5 L 144 494.5 L 145.5 493 Z " /><path fill="rgb(99,99,99)" stroke="rgb(99,99,99)" stroke-width="1" opacity="1" d="M 380.5 493 L 377.5 497 L 378 495.5 Q 377.3 493.3 379.5 494 L 380.5 493 Z " /><path fill="rgb(99,99,99)" stroke="rgb(99,99,99)" stroke-width="1" opacity="1" d="M 368.5 494 L 369 499.5 L 368 499.5 L 368.5 494 Z " /><path fill="rgb(99,99,99)" stroke="rgb(99,99,99)" stroke-width="1" opacity="1" d="M 394.5 498 Q 397.1 497.2 396 500.5 L 395 500.5 L 394.5 498 Z " /><path fill="rgb(99,99,99)" stroke="rgb(99,99,99)" stroke-width="1" opacity="1" d="M 161.5 499 L 163 503.5 L 161 502.5 L 161.5 499 Z " /></svg>