<?xml version="1.0" standalone="no"?>
<!DOCTYPE svg PUBLIC "-//W3C//DTD SVG 20010904//EN"
 "http://www.w3.org/TR/2001/REC-SVG-20010904/DTD/svg10.dtd">
<svg version="1.0" xmlns="http://www.w3.org/2000/svg"
 width="512.000000pt" height="512.000000pt" viewBox="0 0 512.000000 512.000000"
 preserveAspectRatio="xMidYMid meet">

<g transform="translate(0.000000,512.000000) scale(0.100000,-0.100000)"
fill="#000000" stroke="none">
<path d="M895 3610 c-226 -48 -403 -224 -450 -445 -8 -38 -15 -89 -15 -112 l0
-41 -153 -4 c-149 -3 -155 -4 -196 -31 -78 -52 -81 -67 -81 -417 0 -350 3
-365 81 -417 41 -27 47 -28 194 -32 l152 -3 6 -72 c9 -104 41 -195 97 -280 82
-121 192 -200 335 -236 71 -18 111 -20 440 -20 329 0 369 2 441 20 164 42 287
132 394 289 83 123 143 174 253 216 78 29 101 89 52 135 -31 29 -74 24 -170
-24 -93 -46 -179 -125 -254 -235 -70 -103 -129 -159 -213 -200 -97 -49 -134
-52 -535 -49 l-368 3 -75 36 c-125 61 -211 168 -239 297 -15 73 -15 1070 0
1144 27 127 115 237 239 297 71 34 81 36 170 35 52 0 183 -12 290 -26 327 -44
335 -44 364 -14 32 32 33 70 2 101 -18 18 -39 25 -92 30 -38 4 -154 18 -259
32 -218 28 -353 36 -410 23z m-465 -1050 l0 -300 -124 0 c-68 0 -131 3 -140 6
-14 5 -16 41 -16 294 0 221 3 290 13 293 6 3 69 6 140 6 l127 1 0 -300z"/>
<path d="M3955 3605 c-123 -19 -401 -51 -630 -72 -155 -14 -306 -17 -814 -18
l-623 -1 -19 -23 c-25 -31 -24 -54 5 -88 23 -26 28 -28 152 -34 198 -11 889
-10 1079 1 270 16 515 39 725 67 107 15 238 27 290 27 89 1 100 -1 170 -35
124 -60 212 -170 239 -297 15 -73 15 -1071 0 -1144 -27 -127 -116 -237 -239
-297 l-75 -36 -368 -3 c-397 -3 -434 0 -533 47 -81 39 -143 97 -215 202 -75
110 -161 189 -254 235 -96 48 -139 53 -170 24 -49 -46 -26 -106 52 -135 110
-42 170 -93 253 -216 106 -156 230 -247 397 -289 69 -18 111 -20 438 -20 329
0 369 2 440 20 143 36 253 115 335 236 56 85 88 176 97 280 l6 72 152 3 c147
4 153 5 194 32 78 52 81 67 81 417 0 350 -3 365 -81 417 -41 27 -47 28 -196
31 l-153 4 0 41 c-1 134 -68 293 -165 392 -146 148 -327 198 -570 160z m999
-751 c14 -5 16 -41 16 -294 0 -253 -2 -289 -16 -294 -9 -3 -72 -6 -140 -6
l-124 0 0 300 0 300 124 0 c68 0 131 -3 140 -6z"/>
<path d="M953 3000 c-27 -11 -43 -40 -43 -76 0 -22 32 -60 167 -196 l167 -168
-167 -168 c-135 -136 -167 -174 -167 -196 0 -60 45 -95 98 -75 15 6 99 82 187
170 l161 159 154 -156 c175 -175 197 -192 241 -173 34 14 49 36 49 75 0 21
-34 61 -167 195 l-167 169 167 169 c133 134 167 174 167 195 0 39 -15 61 -49
75 -44 19 -66 2 -241 -173 l-155 -156 -155 154 c-193 191 -199 195 -247 176z"/>
<path d="M3417 3000 c-88 -22 -164 -84 -208 -170 -18 -35 -23 -61 -23 -120 0
-122 15 -144 247 -377 128 -130 213 -207 233 -213 47 -16 79 1 172 93 69 68
82 87 82 114 0 22 -8 38 -26 52 -44 34 -69 27 -138 -39 l-62 -60 -171 173
c-141 141 -173 180 -184 215 -17 58 2 114 53 155 47 38 125 42 167 8 127 -103
153 -106 243 -25 46 41 100 57 148 44 45 -13 62 -27 89 -70 31 -51 28 -107 -9
-161 -49 -72 -36 -127 33 -144 24 -7 34 -1 71 38 58 59 80 127 74 218 -17 226
-271 350 -459 223 l-52 -35 -36 25 c-76 53 -170 74 -244 56z"/>
</g>
</svg>
