<?xml version="1.0" standalone="no"?>
<!DOCTYPE svg PUBLIC "-//W3C//DTD SVG 20010904//EN"
 "http://www.w3.org/TR/2001/REC-SVG-20010904/DTD/svg10.dtd">
<svg version="1.0" xmlns="http://www.w3.org/2000/svg"
 width="512.000000pt" height="512.000000pt" viewBox="0 0 512.000000 512.000000"
 preserveAspectRatio="xMidYMid meet">

<g transform="translate(0.000000,512.000000) scale(0.100000,-0.100000)"
fill="#000000" stroke="none">
<path d="M2100 5115 c-8 -2 -49 -9 -90 -15 -152 -25 -371 -115 -462 -190 -46
-38 -52 -86 -16 -120 32 -30 63 -25 142 24 81 51 192 97 304 128 64 18 105 21
242 21 146 0 176 -3 261 -25 372 -100 657 -384 756 -754 23 -86 26 -119 27
-254 0 -142 -4 -180 -52 -457 -29 -166 -52 -304 -52 -307 0 -3 -44 -6 -98 -6
l-98 0 13 103 c90 698 86 656 75 762 -39 354 -293 644 -637 726 -120 28 -322
23 -430 -11 -275 -87 -478 -290 -565 -565 -41 -130 -39 -249 14 -653 25 -194
46 -355 46 -358 0 -3 -44 -3 -97 -2 l-97 3 -48 285 c-26 157 -52 326 -57 377
-25 242 51 516 198 717 57 77 62 106 26 141 -44 45 -82 32 -142 -47 -153 -205
-235 -451 -235 -713 0 -110 8 -176 51 -432 28 -166 51 -308 51 -316 0 -12 -21
-16 -97 -19 -114 -5 -161 -24 -215 -88 -73 -85 -78 -217 -13 -305 l23 -31 -23
-28 c-60 -75 -60 -210 0 -291 l23 -31 -23 -28 c-65 -82 -59 -222 13 -306 54
-64 101 -83 215 -88 76 -3 97 -7 97 -19 0 -8 -23 -150 -51 -316 -43 -255 -51
-322 -51 -432 0 -556 372 -1026 921 -1162 92 -23 128 -27 266 -27 119 -1 181
4 243 17 232 51 421 150 585 306 253 240 389 573 374 911 -4 91 -69 528 -103
692 l-6 28 85 0 c136 0 210 37 263 132 42 77 41 162 -2 238 l-31 55 31 55 c26
46 31 66 31 120 0 54 -5 74 -31 120 l-32 55 29 49 c51 91 50 167 -5 259 l-33
55 102 102 c71 71 108 101 121 98 18 -3 19 -19 24 -285 5 -258 7 -283 24 -302
25 -28 79 -28 106 -1 20 20 21 30 18 324 l-3 303 -29 37 c-33 44 -95 76 -146
76 -62 0 -111 -34 -240 -164 l-125 -126 -78 0 -78 0 6 33 c24 138 12 118 155
255 158 151 165 156 254 184 175 54 365 -31 448 -200 l33 -67 3 -755 c1 -415
0 -765 -3 -778 -7 -28 -60 -62 -97 -62 -16 0 -41 12 -60 29 l-33 29 -3 321 -3
320 -26 21 c-42 33 -85 23 -111 -27 -8 -15 -12 -111 -12 -316 0 -333 6 -370
67 -438 56 -62 105 -83 188 -83 107 0 180 47 224 144 20 44 21 62 21 810 0
829 1 812 -56 927 -39 81 -140 183 -223 227 -212 111 -432 80 -627 -90 -40
-35 -74 -63 -74 -62 0 2 7 41 15 88 52 285 17 547 -105 790 -163 326 -466 557
-830 636 -68 14 -323 28 -360 19z m294 -515 c109 -28 209 -83 293 -163 126
-119 192 -248 214 -414 11 -83 9 -109 -35 -453 -26 -201 -49 -375 -52 -387 -4
-22 -9 -23 -94 -23 -79 0 -90 2 -90 18 0 9 20 172 45 362 50 382 52 419 30
505 -23 87 -62 152 -135 226 -242 244 -643 178 -794 -132 -51 -105 -60 -176
-41 -330 27 -214 75 -583 80 -616 l6 -33 -96 0 c-53 0 -95 4 -95 10 0 5 -20
165 -45 357 -48 373 -53 471 -29 573 56 237 263 447 500 504 89 22 246 20 338
-4z m-20 -369 c103 -50 177 -152 192 -264 4 -30 -10 -175 -42 -426 l-49 -381
-252 0 -251 0 -6 38 c-4 20 -26 193 -51 385 -53 412 -52 431 32 548 94 133
275 175 427 100z m1128 -1250 c27 -24 33 -36 33 -71 0 -35 -6 -47 -33 -71
l-33 -29 -1255 2 -1256 3 -24 28 c-42 49 -26 135 30 157 11 5 580 9 1263 9
l1243 1 32 -29z m0 -350 c27 -24 33 -36 33 -71 0 -35 -6 -47 -33 -71 l-33 -29
-1255 2 -1256 3 -24 28 c-42 49 -26 135 30 157 11 5 580 9 1263 9 l1243 1 32
-29z m0 -350 c27 -24 33 -36 33 -71 0 -35 -6 -47 -33 -71 l-33 -29 -1255 2
-1256 3 -24 28 c-42 49 -26 135 30 157 11 5 580 9 1263 9 l1243 1 32 -29z
m-2022 -325 c0 -3 -21 -164 -46 -358 -53 -404 -55 -523 -14 -653 94 -295 335
-518 629 -581 99 -21 269 -18 371 6 339 82 594 374 632 725 11 106 15 65 -75
763 l-13 102 98 0 c54 0 98 -3 98 -6 0 -3 23 -141 52 -307 48 -278 52 -314 51
-457 0 -133 -4 -168 -26 -251 -173 -652 -887 -975 -1487 -674 -380 191 -612
609 -569 1026 8 82 95 628 104 657 3 8 32 12 100 12 52 0 95 -2 95 -4z m335
-28 c-5 -34 -53 -403 -80 -617 -19 -154 -10 -225 41 -330 85 -173 261 -282
452 -280 261 2 492 230 492 486 0 80 -30 275 -45 300 -19 29 -50 37 -84 23
-48 -20 -53 -47 -35 -178 19 -138 14 -202 -19 -276 -35 -76 -89 -131 -165
-168 -59 -29 -76 -33 -152 -33 -71 0 -94 4 -141 26 -69 33 -130 91 -164 159
-49 96 -49 116 0 497 25 192 47 365 51 386 l6 37 254 0 254 0 0 -22 c0 -12 5
-62 12 -112 9 -71 16 -95 34 -113 30 -30 69 -29 101 3 28 28 27 13 7 187 l-7
57 91 0 c87 0 92 -1 96 -22 3 -13 26 -187 52 -388 44 -344 46 -370 35 -453
-22 -164 -90 -296 -215 -415 -138 -131 -297 -188 -499 -180 -182 8 -310 64
-442 193 -79 77 -142 176 -176 275 -39 117 -37 218 15 618 25 194 46 357 46
363 0 5 42 9 95 9 l96 0 -6 -32z"/>
</g>
</svg>
