<svg viewBox="0 0 512 512" version="1.1" xmlns="http://www.w3.org/2000/svg" desc="Created with imagetracer.js version 1.2.6" ><path fill="rgb(254,254,254)" stroke="rgb(254,254,254)" stroke-width="1" opacity="1" d="M 0 0 L 512 0 L 512 512 L 0 512 L 0 0 Z M 146 129 L 145 130 L 133 130 L 132 131 L 108 133 L 80 139 Q 59 146 43 157 Q 34 164 31 176 L 32 187 L 35 196 L 46 219 L 68 248 Q 97 276 133 298 L 160 312 L 187 319 L 204 319 L 225 314 Q 242 307 253 295 L 253 293 Q 244 303 231 309 L 216 314 L 204 315 L 203 316 L 192 316 L 176 313 L 174 309 L 169 304 L 168 306 L 175 313 L 168 310 Q 165 311 166 309 L 161 304 L 164 309 L 160 307 Q 156 308 157 306 L 156 306 Q 112 283 78 252 Q 47 226 33 184 Q 31 172 37 167 Q 45 156 58 151 L 65 153 L 69 153 L 62 150 L 67 147 L 77 151 L 79 151 Q 76 147 70 147 L 75 144 Q 79 143 80 146 Q 82 145 81 148 L 86 149 L 88 149 L 87 146 Q 94 145 98 148 L 96 146 L 99 144 Q 104 143 107 146 L 106 143 L 115 144 L 116 145 L 115 143 L 121 141 L 124 143 Q 126 144 125 141 L 135 142 L 135 140 Q 141 138 143 141 Q 145 142 144 140 L 138 135 L 138 134 L 145 134 L 150 139 L 149 141 L 157 141 L 157 139 L 154 139 L 147 134 L 147 133 L 154 133 L 163 140 L 164 140 L 157 134 L 157 133 L 164 133 L 172 139 L 173 139 L 167 134 L 167 133 L 174 133 L 174 135 L 180 138 L 182 138 L 176 134 L 176 133 L 200 134 L 221 138 Q 241 143 256 155 Q 267 164 273 178 L 277 196 L 277 213 L 278 213 Q 281 178 266 162 Q 250 143 224 135 L 212 132 L 200 131 L 199 130 L 190 130 L 189 129 L 146 129 Z M 186 135 Q 186 138 190 138 L 192 138 L 186 135 Z M 196 136 L 196 137 L 199 137 L 196 136 Z M 52 155 L 52 156 L 60 156 L 52 155 Z M 246 155 L 247 160 L 248 160 Q 248 156 246 155 Z M 253 157 L 253 162 Q 254 165 252 164 L 252 165 Q 254 164 253 168 Q 255 166 258 171 L 257 175 L 260 174 L 264 187 Q 263 179 266 175 L 266 172 L 263 176 L 261 172 L 261 170 L 261 163 L 259 168 L 255 166 Q 256 160 253 157 Z M 50 159 L 45 161 L 45 162 L 52 160 L 50 159 Z M 42 165 L 41 167 L 43 166 L 42 165 Z M 269 181 L 267 184 L 268 189 L 269 185 L 269 181 Z M 68 189 L 67 191 L 71 198 Q 94 222 126 238 L 127 238 L 80 202 L 68 189 Z M 418 191 L 408 194 L 406 193 L 405 195 L 400 197 Q 395 196 396 199 L 391 201 L 380 209 Q 364 222 354 240 L 324 229 L 282 218 L 272 214 L 270 215 L 280 220 Q 283 219 282 222 L 284 221 L 291 223 L 296 234 L 298 235 L 295 227 L 294 224 L 314 231 L 348 240 L 352 240 L 353 242 L 344 259 L 338 277 L 334 296 L 333 313 L 332 314 L 333 339 L 336 353 L 341 368 L 349 382 L 363 394 L 375 399 Q 380 398 382 400 Q 411 399 428 384 Q 468 351 476 286 L 476 284 L 477 270 L 478 269 L 477 248 L 475 237 L 471 225 L 463 212 Q 455 200 442 194 L 432 191 L 418 191 Z M 257 213 L 245 229 L 241 239 L 238 255 L 239 270 L 241 272 L 241 259 L 244 243 Q 249 226 258 214 L 257 213 Z M 267 220 L 270 224 L 271 224 L 267 220 Z M 274 220 L 278 228 L 280 228 L 278 224 L 274 220 Z M 284 222 L 286 230 L 289 232 Q 288 225 284 222 Z M 303 228 L 302 231 L 306 237 Q 305 239 308 238 Q 307 232 303 228 Z M 312 232 L 313 238 L 317 240 L 312 232 Z M 322 238 Q 320 241 323 240 L 322 238 Z M 324 240 L 325 242 L 326 242 L 324 240 Z M 163 249 L 163 251 L 173 254 L 179 252 Q 173 248 163 249 Z M 256 257 L 256 258 L 265 262 L 296 272 L 299 272 L 292 267 L 273 260 L 256 257 Z M 316 274 L 314 276 L 316 278 Q 322 279 322 277 Q 321 273 316 274 Z M 243 277 L 243 278 L 256 283 L 287 293 L 318 301 L 330 306 L 331 306 L 323 300 L 297 291 L 259 280 L 243 277 Z M 156 291 L 156 292 L 162 294 L 177 297 L 204 297 L 177 295 L 156 291 Z M 239 297 L 234 299 L 234 300 L 240 298 L 239 297 Z M 225 302 L 227 304 Q 232 305 234 303 L 225 302 Z M 216 303 L 215 305 L 221 308 L 225 308 L 216 303 Z M 206 304 Q 207 309 214 311 L 216 311 L 206 304 Z M 178 305 L 179 309 L 186 314 L 186 313 L 178 305 Z M 188 305 L 187 307 L 196 314 L 196 313 L 188 305 Z M 197 305 L 205 313 L 206 313 Q 203 307 197 305 Z " /><path fill="rgb(254,254,254)" stroke="rgb(254,254,254)" stroke-width="1" opacity="1" d="M 131.5 134 L 134.5 134 L 139 138.5 L 132.5 139 L 128 135.5 L 131.5 134 Z " /><path fill="rgb(254,254,254)" stroke="rgb(254,254,254)" stroke-width="1" opacity="1" d="M 121.5 135 Q 127.3 134.3 128 138.5 L 121.5 139 L 118 136.5 L 121.5 135 Z " /><path fill="rgb(254,254,254)" stroke="rgb(254,254,254)" stroke-width="1" opacity="1" d="M 113.5 136 Q 118.5 135.5 119 139.5 L 111.5 140 L 108 137.5 L 113.5 136 Z " /><path fill="rgb(254,254,254)" stroke="rgb(254,254,254)" stroke-width="1" opacity="1" d="M 100.5 138 Q 107.5 136.5 109 140.5 L 102.5 142 L 99 139.5 L 100.5 138 Z " /><path fill="rgb(254,254,254)" stroke="rgb(254,254,254)" stroke-width="1" opacity="1" d="M 94.5 139 L 99 141.5 L 93.5 144 L 89 142 Q 87.7 138.3 93.5 140 L 94.5 139 Z " /><path fill="rgb(254,254,254)" stroke="rgb(254,254,254)" stroke-width="1" opacity="1" d="M 85.5 141 L 90 144.5 L 84.5 146 L 79 143.5 L 85.5 141 Z " /><path fill="rgb(254,254,254)" stroke="rgb(254,254,254)" stroke-width="1" opacity="1" d="M 421.5 194 L 431.5 196 L 435.5 195 L 443.5 198 L 459 210.5 L 469 227.5 Q 472.2 233.4 471 243 Q 474.7 241.7 473 247.5 L 471 252.5 L 474 251.5 L 474 256.5 L 470 262.5 L 471.5 263 L 473.5 260 L 474 266.5 L 469.5 272 L 469 249.5 L 466 232.5 Q 462 217 451.5 208 Q 442.6 199.4 424.5 200 L 409.5 204 L 400.5 209 Q 387 217.5 377 229.5 Q 365 243.5 357 261.5 L 348 290.5 L 347 302.5 L 343 310.5 L 345 309.5 L 345.5 308 L 346 312.5 L 341 320.5 L 344 318.5 L 344.5 317 L 345 322.5 L 340 330.5 L 345 327.5 L 346 331.5 L 341 339.5 L 346 336.5 L 347 341.5 L 343 346.5 L 343 348.5 L 346.5 346 L 348 347.5 Q 349.3 352.8 346.5 354 L 345 353.5 L 345 358.5 L 348 365.5 L 355.5 377 L 356.5 373 L 359.5 381 L 360.5 379 Q 367.5 387 379.5 390 L 394.5 390 L 411.5 384 Q 424.6 376.6 434 365.5 Q 443.8 355 449 341 Q 452.3 342.3 451 337.5 L 457 324.5 L 463 305.5 L 465 293.5 L 466.5 292 L 470.5 290 L 471 294.5 L 470 297 L 465 300.5 L 465.5 302 L 468.5 300 L 469 304.5 L 462 310.5 L 463.5 311 L 466.5 309 L 467 312.5 L 464.5 316 L 460 319.5 L 461.5 320 L 464.5 318 L 465 319.5 L 461.5 325 L 457 328.5 L 458.5 329 L 461.5 327 L 461 328.5 L 460 333 L 454 337.5 L 455.5 338 L 458 336.5 L 455.5 341 L 452 343.5 L 452.5 345 L 455 343.5 Q 444.6 364.1 428.5 379 Q 419.3 387.3 406.5 392 L 394.5 395 L 381.5 396 Q 380 393.5 374.5 395 L 364.5 391 L 351 379.5 Q 342.7 369.7 339 355.5 L 336 340.5 L 335 318.5 L 336 317.5 L 336 306.5 L 337 305.5 L 339 288.5 L 349 256.5 Q 359.8 231.8 378.5 215 L 383 213.5 Q 380.3 211.8 384.5 210 L 389.5 211 L 392 209.5 L 388 207.5 Q 389.4 204.4 394.5 205 L 399.5 206 L 398.5 204 Q 394.8 205 396 202 L 400.5 200 L 407.5 202 L 407.5 201 L 404 200 Q 402.8 197 406.5 198 L 409.5 197 L 414.5 199 L 413 196.5 L 414.5 195 L 418.5 195 L 423.5 198 L 421.5 194 Z M 387 212 L 381 217 Q 366 231 357 251 L 358 252 Q 369 229 388 213 L 387 212 Z M 353 259 L 351 261 Q 350 264 353 263 L 353 259 Z " /><path fill="rgb(254,254,254)" stroke="rgb(254,254,254)" stroke-width="1" opacity="1" d="M 422.5 204 Q 446.5 202.5 455 216.5 Q 458.7 218.8 458 225.5 L 457 226.5 L 457 242.5 L 458 245.5 L 446.5 254 L 446 252.5 Q 448.5 251 447 245.5 L 445.5 241 L 445 246 Q 439.1 246.9 436 251.5 L 437.5 252 L 445 248 L 445 255 L 447.5 255 L 460 246.5 L 461 244.5 L 460 239.5 Q 462.2 238.3 461 233.5 Q 458.8 232.2 460 227.5 L 461 227.5 L 465 241.5 L 466 255.5 L 465 255.5 L 462.5 251 L 462 252.5 L 465 260 L 467 260.5 L 467 267.5 L 457 286.5 L 459 285.5 L 465.5 272 L 466 276.5 L 461 297.5 Q 452.4 304.1 448 314 L 457 307.5 L 458.5 305 L 458 306.5 L 453 323 Q 443 323.3 439 330.5 L 441.5 331 L 451.5 325 L 452 326.5 L 446.5 338 L 441.5 337 L 436 339.5 Q 439.3 341.9 445 341 Q 436.5 362.2 419.5 376 L 405.5 384 L 405 381.5 L 408 374.5 L 408 370.5 L 407 370.5 L 404 378.5 L 404 383.5 L 402.5 385 L 394 387 L 388.5 377 Q 385.1 376.1 387 381.5 L 391 386.5 L 380.5 387 L 377 386 Q 378.1 380.5 375.5 378 L 367.5 381 L 357 368.5 L 352 353.5 L 350 337 Q 359.5 334.3 365 326.5 L 364.5 325 Q 355.8 328.3 350.5 335 L 349 333.5 L 349 313.5 L 350 312.5 L 350 302.5 L 351 301.5 L 352 290.5 L 359 267 L 368.5 274 L 369 272.5 L 360 266 Q 369.6 240.4 388.5 223 L 401.5 213 Q 404.7 222.3 411.5 228 L 412 224.5 Q 408.9 217.1 403 212.5 L 414 207 L 413 218.5 L 414.5 218 L 430 207.5 L 428.5 207 L 415.5 216 L 415 214.5 L 416 213.5 L 416 206 L 422.5 204 Z M 436 210 Q 431 216 429 225 L 430 232 Q 433 229 433 223 L 442 228 L 443 228 L 434 221 L 436 215 L 436 210 Z M 446 213 L 444 226 L 451 223 L 451 222 L 446 223 L 446 213 Z M 391 225 L 390 230 L 394 241 L 397 243 Q 397 231 391 225 Z M 415 230 L 414 232 L 412 233 L 416 234 L 418 239 L 420 240 L 419 236 L 426 238 L 421 252 L 422 254 L 427 242 L 430 240 Q 426 237 425 232 Q 422 231 423 234 L 424 235 L 419 234 L 417 231 L 415 230 Z M 409 239 L 408 241 L 415 253 L 416 253 Q 414 244 409 239 Z M 407 243 L 405 248 L 404 265 L 402 266 L 417 273 L 419 273 L 405 266 L 407 255 L 407 243 Z M 381 246 L 381 247 L 384 248 L 395 248 Q 390 244 381 246 Z M 376 247 L 374 259 Q 370 260 373 262 Q 375 268 371 270 L 373 270 L 372 274 L 374 279 L 374 278 L 379 272 L 376 273 L 374 274 Q 373 267 378 266 Q 380 267 379 265 L 381 262 L 377 264 L 375 265 Q 374 259 378 258 Q 377 254 380 255 L 381 258 L 387 262 L 382 252 L 376 247 Z M 427 252 L 423 254 L 419 259 Q 427 258 432 253 L 427 252 Z M 435 254 Q 436 264 443 269 L 443 268 L 458 262 L 459 260 L 453 260 L 442 265 L 440 258 L 435 254 Z M 431 261 L 424 269 L 425 270 L 431 263 L 431 261 Z M 432 267 L 432 281 L 433 281 Q 434 272 432 267 Z M 401 269 L 400 275 L 404 289 L 405 289 L 401 269 Z M 459 270 L 453 272 L 453 273 Q 459 274 461 271 L 459 270 Z M 387 274 L 393 284 L 399 288 L 396 281 Q 393 275 387 274 Z M 450 274 L 438 279 L 438 280 Q 447 280 451 275 L 450 274 Z M 408 275 L 407 277 L 417 277 Q 414 274 408 275 Z M 381 280 L 377 282 L 377 283 L 382 282 Q 383 279 381 280 Z M 408 280 L 406 287 Q 405 294 409 297 L 410 293 L 410 281 L 408 280 Z M 431 281 L 430 283 L 439 287 L 448 289 L 451 289 L 447 285 L 431 281 Z M 371 285 L 362 289 L 359 293 Q 368 292 373 286 L 371 285 Z M 384 288 L 378 291 L 390 293 Q 397 295 396 291 Q 392 288 384 288 Z M 426 291 L 417 296 Q 414 295 415 298 L 421 301 L 422 301 L 419 296 L 422 296 L 427 292 L 426 291 Z M 448 295 Q 436 299 427 307 L 443 312 L 444 312 L 436 306 L 449 296 L 448 295 Z M 372 298 L 379 306 Q 374 308 373 314 L 373 315 L 381 309 L 385 303 L 372 298 Z M 399 301 L 373 316 L 371 319 L 392 308 L 400 302 L 399 301 Z M 411 304 L 409 311 L 402 317 L 403 318 L 407 316 L 406 320 Q 407 324 404 323 L 403 326 L 404 329 L 405 327 L 406 329 Q 406 323 411 321 L 410 320 L 408 321 L 411 310 L 411 304 Z M 358 306 L 357 311 L 362 321 L 366 324 L 365 319 L 358 306 Z M 427 316 Q 426 323 430 328 L 433 330 Q 434 321 429 318 Q 430 315 427 316 Z M 391 318 L 380 323 L 379 325 L 393 319 L 391 318 Z M 369 319 L 368 321 L 370 320 L 369 319 Z M 395 319 L 389 329 L 390 331 L 395 321 L 395 319 Z M 386 324 L 374 337 L 375 338 L 386 326 L 386 324 Z M 418 328 L 418 329 L 429 334 L 432 334 Q 426 329 418 328 Z M 395 330 L 394 338 L 397 347 L 399 348 Q 400 335 395 330 Z M 361 334 L 357 343 Q 359 348 356 350 L 358 353 L 360 349 L 362 340 Q 363 335 361 334 Z M 415 335 L 408 345 L 409 346 L 415 337 L 415 335 Z M 388 336 L 371 345 L 370 347 Q 379 345 386 341 L 388 348 Q 387 351 390 350 L 389 338 L 388 336 Z M 424 340 L 423 353 L 425 354 L 425 342 L 424 340 Z M 435 342 L 430 355 L 431 364 L 435 353 L 435 342 Z M 414 343 L 406 363 L 407 364 L 415 348 L 419 362 L 420 362 L 416 348 Q 418 342 414 343 Z M 366 350 L 366 361 L 370 374 L 371 372 Q 372 357 366 350 Z M 401 352 L 401 357 L 401 365 L 403 365 Q 404 357 401 352 Z M 384 357 L 380 370 L 381 376 Q 385 371 386 364 Q 387 356 384 357 Z M 388 357 L 392 366 L 396 369 L 396 365 L 393 359 L 388 357 Z M 410 370 L 414 374 L 416 374 L 410 370 Z " /><path fill="rgb(254,254,254)" stroke="rgb(254,254,254)" stroke-width="1" opacity="1" d="M 376 251 Q 378.7 249.9 378 252.5 L 378.5 254 L 377 253.5 L 376.5 256 L 376 251 Z " /><path fill="rgb(254,254,254)" stroke="rgb(254,254,254)" stroke-width="1" opacity="1" d="M 473.5 270 L 473 271.5 L 473 276.5 L 468.5 281 L 468 276.5 L 469 273 L 473.5 270 Z " /><path fill="rgb(254,254,254)" stroke="rgb(254,254,254)" stroke-width="1" opacity="1" d="M 472.5 280 L 472 281.5 Q 473.3 286.8 470.5 288 L 466.5 291 L 466 288.5 L 467 283 L 472.5 280 Z " /><path fill="rgb(254,254,254)" stroke="rgb(254,254,254)" stroke-width="1" opacity="1" d="M 348.5 355 L 351 360.5 L 349.5 363 L 347 357.5 L 348.5 355 Z " /><path fill="rgb(254,254,254)" stroke="rgb(254,254,254)" stroke-width="1" opacity="1" d="M 351 365 Q 354 363.8 353 367.5 L 354 371.5 L 353 371.5 L 351 365 Z " /><path fill="rgb(254,254,254)" stroke="rgb(254,254,254)" stroke-width="1" opacity="1" d="M 374.5 380 L 376 384.5 L 374.5 385 L 370 382.5 L 374.5 380 Z " /><path fill="rgb(131,131,131)" stroke="rgb(131,131,131)" stroke-width="1" opacity="1" d="M 150.5 129 L 154 129.5 L 150.5 130 L 150.5 129 Z " /><path fill="rgb(131,131,131)" stroke="rgb(131,131,131)" stroke-width="1" opacity="1" d="M 182.5 129 L 185 129.5 L 182.5 130 L 182.5 129 Z " /><path fill="rgb(131,131,131)" stroke="rgb(131,131,131)" stroke-width="1" opacity="1" d="M 160.5 132 L 177 132.5 L 165.5 133 L 164.5 134 L 160.5 133 L 160.5 132 Z " /><path fill="rgb(131,131,131)" stroke="rgb(131,131,131)" stroke-width="1" opacity="1" d="M 138.5 133 L 141 133.5 L 138.5 134 L 138.5 133 Z " /><path fill="rgb(131,131,131)" stroke="rgb(131,131,131)" stroke-width="1" opacity="1" d="M 124.5 139 L 130 140.5 L 127.5 141 L 124.5 140 L 124.5 139 Z " /><path fill="rgb(131,131,131)" stroke="rgb(131,131,131)" stroke-width="1" opacity="1" d="M 95.5 143 L 97 144.5 L 96.5 147 L 95 145.5 L 95.5 143 Z " /><path fill="rgb(131,131,131)" stroke="rgb(131,131,131)" stroke-width="1" opacity="1" d="M 104.5 143 L 106.5 146 Q 104.8 142.9 103 144.5 L 104.5 143 Z " /><path fill="rgb(131,131,131)" stroke="rgb(131,131,131)" stroke-width="1" opacity="1" d="M 46.5 160 L 45.5 162 L 44 161.5 L 46.5 160 Z " /><path fill="rgb(131,131,131)" stroke="rgb(131,131,131)" stroke-width="1" opacity="1" d="M 254.5 161 L 255 163.5 L 254 163.5 L 254.5 161 Z " /><path fill="rgb(131,131,131)" stroke="rgb(131,131,131)" stroke-width="1" opacity="1" d="M 265.5 172 L 266 174 L 264 173.5 L 265.5 172 Z " /><path fill="rgb(131,131,131)" stroke="rgb(131,131,131)" stroke-width="1" opacity="1" d="M 268.5 181 L 269 184 L 267 183.5 L 268.5 181 Z " /><path fill="rgb(131,131,131)" stroke="rgb(131,131,131)" stroke-width="1" opacity="1" d="M 277.5 190 L 278 191.5 L 276 192.5 L 277.5 190 Z " /><path fill="rgb(131,131,131)" stroke="rgb(131,131,131)" stroke-width="1" opacity="1" d="M 419.5 191 L 422 191.5 L 419.5 192 L 419.5 191 Z " /><path fill="rgb(131,131,131)" stroke="rgb(131,131,131)" stroke-width="1" opacity="1" d="M 427.5 203 L 430 203.5 L 427.5 204 L 427.5 203 Z " /><path fill="rgb(131,131,131)" stroke="rgb(131,131,131)" stroke-width="1" opacity="1" d="M 277.5 205 L 278 207.5 L 277 207.5 L 277.5 205 Z " /><path fill="rgb(131,131,131)" stroke="rgb(131,131,131)" stroke-width="1" opacity="1" d="M 388.5 211 L 385.5 215 L 385 213 L 388.5 211 Z " /><path fill="rgb(131,131,131)" stroke="rgb(131,131,131)" stroke-width="1" opacity="1" d="M 435.5 211 L 436 213.5 L 435 213.5 L 435.5 211 Z " /><path fill="rgb(131,131,131)" stroke="rgb(131,131,131)" stroke-width="1" opacity="1" d="M 255.5 214 L 255.5 217 L 253 216.5 L 255.5 214 Z " /><path fill="rgb(131,131,131)" stroke="rgb(131,131,131)" stroke-width="1" opacity="1" d="M 414.5 216 Q 416.8 215.3 416 217.5 L 414 217.5 L 413.5 219 L 413 217.5 L 414.5 216 Z " /><path fill="rgb(131,131,131)" stroke="rgb(131,131,131)" stroke-width="1" opacity="1" d="M 471.5 239 Q 474.3 240.3 472 241.5 L 471.5 243 L 471.5 239 Z " /><path fill="rgb(131,131,131)" stroke="rgb(131,131,131)" stroke-width="1" opacity="1" d="M 163 249 L 165 249.5 L 163 250.5 L 163 249 Z " /><path fill="rgb(131,131,131)" stroke="rgb(131,131,131)" stroke-width="1" opacity="1" d="M 167.5 249 L 170 249.5 L 167.5 250 L 167.5 249 Z " /><path fill="rgb(131,131,131)" stroke="rgb(131,131,131)" stroke-width="1" opacity="1" d="M 422.5 251 L 422 252.5 L 421.5 254 L 421 252.5 L 422.5 251 Z " /><path fill="rgb(131,131,131)" stroke="rgb(131,131,131)" stroke-width="1" opacity="1" d="M 240.5 264 L 241 266.5 L 240 266.5 L 240.5 264 Z " /><path fill="rgb(131,131,131)" stroke="rgb(131,131,131)" stroke-width="1" opacity="1" d="M 442.5 265 L 443 268 L 441 267.5 L 442.5 265 Z " /><path fill="rgb(131,131,131)" stroke="rgb(131,131,131)" stroke-width="1" opacity="1" d="M 400.5 270 L 401 272.5 L 400 272.5 L 400.5 270 Z " /><path fill="rgb(131,131,131)" stroke="rgb(131,131,131)" stroke-width="1" opacity="1" d="M 465.5 270 L 467 272.5 L 466 272.5 L 465.5 271 L 464 271.5 L 465.5 270 Z " /><path fill="rgb(131,131,131)" stroke="rgb(131,131,131)" stroke-width="1" opacity="1" d="M 468.5 271 L 469 273.5 L 468 273.5 L 468.5 271 Z " /><path fill="rgb(131,131,131)" stroke="rgb(131,131,131)" stroke-width="1" opacity="1" d="M 377 272 L 379 272.5 L 374 276.5 L 377 272 Z " /><path fill="rgb(131,131,131)" stroke="rgb(131,131,131)" stroke-width="1" opacity="1" d="M 408.5 275 L 409.5 277 L 407 276.5 L 408.5 275 Z " /><path fill="rgb(131,131,131)" stroke="rgb(131,131,131)" stroke-width="1" opacity="1" d="M 243.5 277 L 246 278.5 L 244.5 278 L 243.5 277 Z " /><path fill="rgb(131,131,131)" stroke="rgb(131,131,131)" stroke-width="1" opacity="1" d="M 253.5 292 L 251 295.5 L 246.5 301 L 248 298.5 L 253.5 292 Z " /><path fill="rgb(131,131,131)" stroke="rgb(131,131,131)" stroke-width="1" opacity="1" d="M 228.5 302 L 230 302.5 L 227.5 304 L 228.5 302 Z " /><path fill="rgb(131,131,131)" stroke="rgb(131,131,131)" stroke-width="1" opacity="1" d="M 346.5 304 L 347 305.5 L 345 306.5 L 346.5 304 Z " /><path fill="rgb(131,131,131)" stroke="rgb(131,131,131)" stroke-width="1" opacity="1" d="M 189.5 318 L 192 318.5 L 189.5 319 L 189.5 318 Z " /><path fill="rgb(131,131,131)" stroke="rgb(131,131,131)" stroke-width="1" opacity="1" d="M 198.5 318 L 201 318.5 L 198.5 319 L 198.5 318 Z " /><path fill="rgb(131,131,131)" stroke="rgb(131,131,131)" stroke-width="1" opacity="1" d="M 409.5 320 L 410 321.5 L 408 322.5 L 409.5 320 Z " /><path fill="rgb(131,131,131)" stroke="rgb(131,131,131)" stroke-width="1" opacity="1" d="M 342.5 326 Q 346 328 341.5 330 L 340 329.5 L 343 327.5 L 342.5 326 Z " /><path fill="rgb(131,131,131)" stroke="rgb(131,131,131)" stroke-width="1" opacity="1" d="M 395.5 331 L 395 332.5 L 394.5 337 L 394 332.5 L 395.5 331 Z " /><path fill="rgb(131,131,131)" stroke="rgb(131,131,131)" stroke-width="1" opacity="1" d="M 423.5 341 Q 426.5 344 425 351.5 L 423 350.5 Q 425.5 349 424 343.5 L 423.5 341 Z " /><path fill="rgb(131,131,131)" stroke="rgb(131,131,131)" stroke-width="1" opacity="1" d="M 402.5 359 L 403 363.5 L 401 362.5 L 402.5 359 Z " /><path fill="rgb(131,131,131)" stroke="rgb(131,131,131)" stroke-width="1" opacity="1" d="M 390.5 387 L 393 387.5 L 390.5 388 L 390.5 387 Z " /><path fill="rgb(77,77,77)" stroke="rgb(77,77,77)" stroke-width="1" opacity="1" d="M 154.5 129 L 163 129.5 L 154.5 130 L 154.5 129 Z " /><path fill="rgb(77,77,77)" stroke="rgb(77,77,77)" stroke-width="1" opacity="1" d="M 174.5 129 L 182 129.5 L 174.5 130 L 174.5 129 Z " /><path fill="rgb(77,77,77)" stroke="rgb(77,77,77)" stroke-width="1" opacity="1" d="M 137.5 130 L 140 130.5 L 137.5 131 L 137.5 130 Z " /><path fill="rgb(77,77,77)" stroke="rgb(77,77,77)" stroke-width="1" opacity="1" d="M 117.5 132 L 120 132.5 L 117.5 133 L 117.5 132 Z " /><path fill="rgb(77,77,77)" stroke="rgb(77,77,77)" stroke-width="1" opacity="1" d="M 152.5 132 L 160 132.5 L 155.5 134 L 152.5 133 L 152.5 132 Z " /><path fill="rgb(77,77,77)" stroke="rgb(77,77,77)" stroke-width="1" opacity="1" d="M 177.5 132 L 184 132.5 L 177.5 133 L 177.5 132 Z " /><path fill="rgb(77,77,77)" stroke="rgb(77,77,77)" stroke-width="1" opacity="1" d="M 136 133 L 138 133.5 L 137 135.5 L 137.5 137 L 136 133 Z " /><path fill="rgb(77,77,77)" stroke="rgb(77,77,77)" stroke-width="1" opacity="1" d="M 116 135 L 118 135.5 L 116 136.5 L 116 135 Z " /><path fill="rgb(77,77,77)" stroke="rgb(77,77,77)" stroke-width="1" opacity="1" d="M 185.5 135 L 189 136.5 L 187.5 137 L 185.5 135 Z " /><path fill="rgb(77,77,77)" stroke="rgb(77,77,77)" stroke-width="1" opacity="1" d="M 179.5 136 L 182 137.5 L 180.5 138 L 179.5 136 Z " /><path fill="rgb(77,77,77)" stroke="rgb(77,77,77)" stroke-width="1" opacity="1" d="M 108.5 138 L 110 140.5 L 108 139.5 L 108.5 138 Z " /><path fill="rgb(77,77,77)" stroke="rgb(77,77,77)" stroke-width="1" opacity="1" d="M 127.5 139 L 130 139.5 L 124.5 141 L 124.5 140 L 127.5 139 Z " /><path fill="rgb(77,77,77)" stroke="rgb(77,77,77)" stroke-width="1" opacity="1" d="M 132.5 139 L 139 139.5 L 134 140.5 L 134.5 142 Q 132.3 142.8 133 140.5 L 132.5 139 Z " /><path fill="rgb(77,77,77)" stroke="rgb(77,77,77)" stroke-width="1" opacity="1" d="M 114 140 L 117 140.5 L 114 142 L 114 140 Z " /><path fill="rgb(77,77,77)" stroke="rgb(77,77,77)" stroke-width="1" opacity="1" d="M 107.5 141 L 108 143 L 106 142.5 L 107.5 141 Z " /><path fill="rgb(77,77,77)" stroke="rgb(77,77,77)" stroke-width="1" opacity="1" d="M 260.5 164 L 261 167.5 L 259 166.5 L 260.5 164 Z " /><path fill="rgb(77,77,77)" stroke="rgb(77,77,77)" stroke-width="1" opacity="1" d="M 259.5 172 L 261 172.5 L 258.5 174 L 259.5 172 Z " /><path fill="rgb(77,77,77)" stroke="rgb(77,77,77)" stroke-width="1" opacity="1" d="M 32.5 176 L 33 178.5 L 32 178.5 L 32.5 176 Z " /><path fill="rgb(77,77,77)" stroke="rgb(77,77,77)" stroke-width="1" opacity="1" d="M 263.5 176 L 264.5 178 L 262.5 178 L 261 177.5 L 263.5 176 Z " /><path fill="rgb(77,77,77)" stroke="rgb(77,77,77)" stroke-width="1" opacity="1" d="M 262.5 180 Q 265.1 179.2 264 182.5 L 263 182.5 L 262.5 180 Z " /><path fill="rgb(77,77,77)" stroke="rgb(77,77,77)" stroke-width="1" opacity="1" d="M 32.5 184 L 34 186.5 L 32 185.5 L 32.5 184 Z " /><path fill="rgb(77,77,77)" stroke="rgb(77,77,77)" stroke-width="1" opacity="1" d="M 267.5 184 L 268 187.5 L 267 187.5 L 267.5 184 Z " /><path fill="rgb(77,77,77)" stroke="rgb(77,77,77)" stroke-width="1" opacity="1" d="M 422.5 191 L 428 191.5 L 422.5 192 L 422.5 191 Z " /><path fill="rgb(77,77,77)" stroke="rgb(77,77,77)" stroke-width="1" opacity="1" d="M 68.5 192 L 72 194.5 L 70 195.5 Q 72.3 194.3 69.5 193 L 68.5 192 Z " /><path fill="rgb(77,77,77)" stroke="rgb(77,77,77)" stroke-width="1" opacity="1" d="M 277.5 192 L 278 194.5 L 277 194.5 L 277.5 192 Z " /><path fill="rgb(77,77,77)" stroke="rgb(77,77,77)" stroke-width="1" opacity="1" d="M 277.5 199 L 278 204.5 L 277 204.5 L 277.5 199 Z " /><path fill="rgb(77,77,77)" stroke="rgb(77,77,77)" stroke-width="1" opacity="1" d="M 424.5 203 L 427 203.5 L 424.5 204 L 424.5 203 Z " /><path fill="rgb(77,77,77)" stroke="rgb(77,77,77)" stroke-width="1" opacity="1" d="M 430.5 203 L 433 203.5 L 430.5 204 L 430.5 203 Z " /><path fill="rgb(77,77,77)" stroke="rgb(77,77,77)" stroke-width="1" opacity="1" d="M 415.5 206 L 416 210.5 L 414 211.5 L 415.5 206 Z " /><path fill="rgb(77,77,77)" stroke="rgb(77,77,77)" stroke-width="1" opacity="1" d="M 455.5 206 L 460 208.5 L 458.5 210 L 455.5 206 Z " /><path fill="rgb(77,77,77)" stroke="rgb(77,77,77)" stroke-width="1" opacity="1" d="M 387.5 208 L 391 209.5 L 388.5 210 L 387.5 208 Z " /><path fill="rgb(77,77,77)" stroke="rgb(77,77,77)" stroke-width="1" opacity="1" d="M 437.5 223 L 439 225.5 L 437 224.5 L 437.5 223 Z " /><path fill="rgb(77,77,77)" stroke="rgb(77,77,77)" stroke-width="1" opacity="1" d="M 276.5 224 L 279 225.5 L 277.5 226 L 276.5 224 Z " /><path fill="rgb(77,77,77)" stroke="rgb(77,77,77)" stroke-width="1" opacity="1" d="M 429.5 227 L 430 230.5 L 429 230.5 L 429.5 227 Z " /><path fill="rgb(77,77,77)" stroke="rgb(77,77,77)" stroke-width="1" opacity="1" d="M 457.5 229 L 458 239.5 L 457 239.5 L 457.5 229 Z " /><path fill="rgb(77,77,77)" stroke="rgb(77,77,77)" stroke-width="1" opacity="1" d="M 415.5 232 L 416.5 234 L 418 233.5 Q 416.5 236.5 415 233.5 L 415.5 232 Z " /><path fill="rgb(77,77,77)" stroke="rgb(77,77,77)" stroke-width="1" opacity="1" d="M 467.5 244 L 468 246.5 L 467 246.5 L 467.5 244 Z " /><path fill="rgb(77,77,77)" stroke="rgb(77,77,77)" stroke-width="1" opacity="1" d="M 382.5 246 L 394 247.5 L 386.5 248 L 382.5 247 L 382.5 246 Z " /><path fill="rgb(77,77,77)" stroke="rgb(77,77,77)" stroke-width="1" opacity="1" d="M 456.5 247 L 457 248.5 L 455 249.5 L 456.5 247 Z " /><path fill="rgb(77,77,77)" stroke="rgb(77,77,77)" stroke-width="1" opacity="1" d="M 406.5 248 L 407 250.5 L 405 251.5 L 406.5 248 Z " /><path fill="rgb(77,77,77)" stroke="rgb(77,77,77)" stroke-width="1" opacity="1" d="M 414.5 249 L 416 251.5 L 414 250.5 L 414.5 249 Z " /><path fill="rgb(77,77,77)" stroke="rgb(77,77,77)" stroke-width="1" opacity="1" d="M 438.5 249 L 439 251 L 437 250.5 L 438.5 249 Z " /><path fill="rgb(77,77,77)" stroke="rgb(77,77,77)" stroke-width="1" opacity="1" d="M 476.5 250 L 477 252.5 L 476 252.5 L 476.5 250 Z " /><path fill="rgb(77,77,77)" stroke="rgb(77,77,77)" stroke-width="1" opacity="1" d="M 468.5 254 L 469 259.5 L 468 259.5 L 468.5 254 Z " /><path fill="rgb(77,77,77)" stroke="rgb(77,77,77)" stroke-width="1" opacity="1" d="M 375.5 255 L 378 256.5 L 375 257 L 375.5 255 Z " /><path fill="rgb(77,77,77)" stroke="rgb(77,77,77)" stroke-width="1" opacity="1" d="M 261.5 258 L 263 258.5 L 260.5 260 L 261.5 258 Z " /><path fill="rgb(77,77,77)" stroke="rgb(77,77,77)" stroke-width="1" opacity="1" d="M 472.5 259 L 475 259 L 475 265.5 L 474 265.5 Q 475.3 259.4 472.5 260 L 472.5 259 Z " /><path fill="rgb(77,77,77)" stroke="rgb(77,77,77)" stroke-width="1" opacity="1" d="M 240.5 261 L 241 263.5 L 240 263.5 L 240.5 261 Z " /><path fill="rgb(77,77,77)" stroke="rgb(77,77,77)" stroke-width="1" opacity="1" d="M 374.5 264 L 375 265.5 L 373 266.5 L 374.5 264 Z " /><path fill="rgb(77,77,77)" stroke="rgb(77,77,77)" stroke-width="1" opacity="1" d="M 427.5 264 L 429 264.5 L 426.5 266 L 427.5 264 Z " /><path fill="rgb(77,77,77)" stroke="rgb(77,77,77)" stroke-width="1" opacity="1" d="M 404.5 266 L 407 267.5 L 405.5 267 L 404.5 266 Z " /><path fill="rgb(77,77,77)" stroke="rgb(77,77,77)" stroke-width="1" opacity="1" d="M 362.5 267 L 365 270.5 L 362 268.5 L 362.5 267 Z " /><path fill="rgb(77,77,77)" stroke="rgb(77,77,77)" stroke-width="1" opacity="1" d="M 468.5 267 L 469 270.5 L 468 270.5 L 468.5 267 Z " /><path fill="rgb(77,77,77)" stroke="rgb(77,77,77)" stroke-width="1" opacity="1" d="M 431.5 269 L 433 274.5 L 431 273.5 L 431.5 269 Z " /><path fill="rgb(77,77,77)" stroke="rgb(77,77,77)" stroke-width="1" opacity="1" d="M 409.5 275 L 416 276.5 L 410.5 277 L 409.5 275 Z " /><path fill="rgb(77,77,77)" stroke="rgb(77,77,77)" stroke-width="1" opacity="1" d="M 409.5 282 L 410 290.5 L 409 290.5 L 409.5 282 Z " /><path fill="rgb(77,77,77)" stroke="rgb(77,77,77)" stroke-width="1" opacity="1" d="M 159.5 292 L 162 292.5 L 159.5 293 L 159.5 292 Z " /><path fill="rgb(77,77,77)" stroke="rgb(77,77,77)" stroke-width="1" opacity="1" d="M 165.5 293 L 168 294.5 L 166.5 294 L 165.5 293 Z " /><path fill="rgb(77,77,77)" stroke="rgb(77,77,77)" stroke-width="1" opacity="1" d="M 171.5 294 L 174 295.5 L 172.5 296 L 171.5 294 Z " /><path fill="rgb(77,77,77)" stroke="rgb(77,77,77)" stroke-width="1" opacity="1" d="M 225.5 302 L 232 303.5 L 228.5 304 L 225.5 303 L 225.5 302 Z " /><path fill="rgb(77,77,77)" stroke="rgb(77,77,77)" stroke-width="1" opacity="1" d="M 197.5 305 L 200.5 309 L 201.5 308 L 205 311.5 L 203 312 L 201.5 309 L 200.5 310 L 197 306.5 L 197.5 305 Z " /><path fill="rgb(77,77,77)" stroke="rgb(77,77,77)" stroke-width="1" opacity="1" d="M 333.5 306 L 334 308.5 L 333 308.5 L 333.5 306 Z " /><path fill="rgb(77,77,77)" stroke="rgb(77,77,77)" stroke-width="1" opacity="1" d="M 346.5 306 L 347 309.5 L 346 309.5 L 346.5 306 Z " /><path fill="rgb(77,77,77)" stroke="rgb(77,77,77)" stroke-width="1" opacity="1" d="M 170.5 307 L 175 310.5 L 173.5 311 L 170.5 307 Z " /><path fill="rgb(77,77,77)" stroke="rgb(77,77,77)" stroke-width="1" opacity="1" d="M 164.5 308 L 166.5 311 Q 164.8 307.9 163 309.5 L 164.5 308 Z " /><path fill="rgb(77,77,77)" stroke="rgb(77,77,77)" stroke-width="1" opacity="1" d="M 189.5 308 L 191.5 308 L 194 310.5 L 191.5 311 L 189.5 308 Z " /><path fill="rgb(77,77,77)" stroke="rgb(77,77,77)" stroke-width="1" opacity="1" d="M 441.5 309 L 443.5 312 Q 441.7 308.9 440 310.5 L 441.5 309 Z " /><path fill="rgb(77,77,77)" stroke="rgb(77,77,77)" stroke-width="1" opacity="1" d="M 408.5 311 L 409.5 313 L 408.5 312 L 406 313.5 L 408.5 311 Z " /><path fill="rgb(77,77,77)" stroke="rgb(77,77,77)" stroke-width="1" opacity="1" d="M 345.5 315 L 344.5 317 L 343 316.5 L 345.5 315 Z " /><path fill="rgb(77,77,77)" stroke="rgb(77,77,77)" stroke-width="1" opacity="1" d="M 371.5 317 L 373 317.5 L 370.5 319 L 371.5 317 Z " /><path fill="rgb(77,77,77)" stroke="rgb(77,77,77)" stroke-width="1" opacity="1" d="M 192.5 318 L 198 318.5 L 192.5 319 L 192.5 318 Z " /><path fill="rgb(77,77,77)" stroke="rgb(77,77,77)" stroke-width="1" opacity="1" d="M 407.5 320 L 408 322 L 406 321.5 L 407.5 320 Z " /><path fill="rgb(77,77,77)" stroke="rgb(77,77,77)" stroke-width="1" opacity="1" d="M 348.5 321 L 349 327.5 L 348 327.5 L 348.5 321 Z " /><path fill="rgb(77,77,77)" stroke="rgb(77,77,77)" stroke-width="1" opacity="1" d="M 362.5 326 L 364 327.5 L 360.5 331 L 363 327.5 L 362.5 326 Z " /><path fill="rgb(77,77,77)" stroke="rgb(77,77,77)" stroke-width="1" opacity="1" d="M 383.5 326 L 384 328 L 380.5 330 L 383.5 326 Z " /><path fill="rgb(77,77,77)" stroke="rgb(77,77,77)" stroke-width="1" opacity="1" d="M 432.5 327 L 433 329 L 431 328.5 L 432.5 327 Z " /><path fill="rgb(77,77,77)" stroke="rgb(77,77,77)" stroke-width="1" opacity="1" d="M 333.5 333 L 334 335.5 L 333 335.5 L 333.5 333 Z " /><path fill="rgb(77,77,77)" stroke="rgb(77,77,77)" stroke-width="1" opacity="1" d="M 378.5 333 L 375.5 337 L 376 335.5 Q 375.3 333.3 377.5 334 L 378.5 333 Z " /><path fill="rgb(77,77,77)" stroke="rgb(77,77,77)" stroke-width="1" opacity="1" d="M 457.5 334 L 459 334.5 L 458.5 337 L 456.5 336 L 455 336.5 L 457.5 334 Z " /><path fill="rgb(77,77,77)" stroke="rgb(77,77,77)" stroke-width="1" opacity="1" d="M 346.5 335 L 347 337.5 L 346 337.5 L 346.5 335 Z " /><path fill="rgb(77,77,77)" stroke="rgb(77,77,77)" stroke-width="1" opacity="1" d="M 398.5 342 L 399 345.5 L 398 345.5 L 398.5 342 Z " /><path fill="rgb(77,77,77)" stroke="rgb(77,77,77)" stroke-width="1" opacity="1" d="M 423.5 343 L 424 349.5 L 423 349.5 L 423.5 343 Z " /><path fill="rgb(77,77,77)" stroke="rgb(77,77,77)" stroke-width="1" opacity="1" d="M 344.5 345 Q 347.5 346.5 344.5 348 L 343 347.5 L 345 346.5 L 344.5 345 Z " /><path fill="rgb(77,77,77)" stroke="rgb(77,77,77)" stroke-width="1" opacity="1" d="M 434.5 347 L 435 349.5 L 434 349.5 L 434.5 347 Z " /><path fill="rgb(77,77,77)" stroke="rgb(77,77,77)" stroke-width="1" opacity="1" d="M 337.5 349 L 338 350.5 L 336 351.5 L 337.5 349 Z " /><path fill="rgb(77,77,77)" stroke="rgb(77,77,77)" stroke-width="1" opacity="1" d="M 384.5 358 Q 387.1 357.2 386 360.5 L 385 360.5 L 384.5 358 Z " /><path fill="rgb(77,77,77)" stroke="rgb(77,77,77)" stroke-width="1" opacity="1" d="M 401.5 359 L 402 361.5 L 401 361.5 L 401.5 359 Z " /><path fill="rgb(77,77,77)" stroke="rgb(77,77,77)" stroke-width="1" opacity="1" d="M 408.5 359 L 408 360.5 L 407.5 362 L 407 360.5 L 408.5 359 Z " /><path fill="rgb(77,77,77)" stroke="rgb(77,77,77)" stroke-width="1" opacity="1" d="M 370.5 365 L 371 369.5 L 370 369.5 L 370.5 365 Z " /><path fill="rgb(77,77,77)" stroke="rgb(77,77,77)" stroke-width="1" opacity="1" d="M 354.5 370 L 356.5 373 L 355 372.5 L 354.5 374 L 354.5 370 Z " /><path fill="rgb(77,77,77)" stroke="rgb(77,77,77)" stroke-width="1" opacity="1" d="M 380.5 372 L 381 374.5 L 380 374.5 L 380.5 372 Z " /><path fill="rgb(77,77,77)" stroke="rgb(77,77,77)" stroke-width="1" opacity="1" d="M 405.5 379 L 405 380.5 L 404.5 383 L 404 380.5 L 405.5 379 Z " /><path fill="rgb(77,77,77)" stroke="rgb(77,77,77)" stroke-width="1" opacity="1" d="M 370.5 380 L 371 382 L 367 381.5 L 370.5 380 Z " /><path fill="rgb(77,77,77)" stroke="rgb(77,77,77)" stroke-width="1" opacity="1" d="M 375.5 380 L 377 382.5 L 375 381.5 L 375.5 380 Z " /><path fill="rgb(77,77,77)" stroke="rgb(77,77,77)" stroke-width="1" opacity="1" d="M 392.5 386 L 395 387.5 L 393.5 388 L 392.5 386 Z " /><path fill="rgb(77,77,77)" stroke="rgb(77,77,77)" stroke-width="1" opacity="1" d="M 382.5 389 L 385 389.5 L 382.5 390 L 382.5 389 Z " /><path fill="rgb(77,77,77)" stroke="rgb(77,77,77)" stroke-width="1" opacity="1" d="M 389.5 389 L 392 389.5 L 389.5 390 L 389.5 389 Z " /><path fill="rgb(170,170,170)" stroke="rgb(170,170,170)" stroke-width="1" opacity="1" d="M 145.5 129 L 150 129.5 L 145.5 130 L 145.5 129 Z " /><path fill="rgb(170,170,170)" stroke="rgb(170,170,170)" stroke-width="1" opacity="1" d="M 185.5 129 L 189 129.5 L 185.5 130 L 185.5 129 Z " /><path fill="rgb(170,170,170)" stroke="rgb(170,170,170)" stroke-width="1" opacity="1" d="M 132.5 130 L 135 130.5 L 132.5 131 L 132.5 130 Z " /><path fill="rgb(170,170,170)" stroke="rgb(170,170,170)" stroke-width="1" opacity="1" d="M 141.5 133 Q 145.8 132.3 146.5 135 L 148 134.5 L 147 135.5 L 148.5 138 L 144.5 134 L 141.5 134 L 141.5 133 Z " /><path fill="rgb(170,170,170)" stroke="rgb(170,170,170)" stroke-width="1" opacity="1" d="M 190.5 133 L 193 133.5 L 190.5 134 L 190.5 133 Z " /><path fill="rgb(170,170,170)" stroke="rgb(170,170,170)" stroke-width="1" opacity="1" d="M 128.5 134 L 131 134.5 L 127 136.5 L 128.5 139 L 125.5 135 Q 127 137.5 128.5 134 Z " /><path fill="rgb(170,170,170)" stroke="rgb(170,170,170)" stroke-width="1" opacity="1" d="M 193.5 135 L 199 136.5 L 195.5 137 L 193.5 135 Z " /><path fill="rgb(170,170,170)" stroke="rgb(170,170,170)" stroke-width="1" opacity="1" d="M 98 138 L 100 138.5 Q 98 143 96 139.5 L 98 139.5 L 98 138 Z " /><path fill="rgb(170,170,170)" stroke="rgb(170,170,170)" stroke-width="1" opacity="1" d="M 149.5 139 L 155 140.5 L 150.5 141 L 149.5 139 Z " /><path fill="rgb(170,170,170)" stroke="rgb(170,170,170)" stroke-width="1" opacity="1" d="M 109.5 142 L 112 142.5 L 109.5 143 L 109.5 142 Z " /><path fill="rgb(170,170,170)" stroke="rgb(170,170,170)" stroke-width="1" opacity="1" d="M 76.5 143 L 79 143.5 L 76.5 144 L 76.5 143 Z " /><path fill="rgb(170,170,170)" stroke="rgb(170,170,170)" stroke-width="1" opacity="1" d="M 86.5 145 L 87 147.5 L 85 148.5 L 86.5 145 Z " /><path fill="rgb(170,170,170)" stroke="rgb(170,170,170)" stroke-width="1" opacity="1" d="M 61.5 149 L 64 150.5 L 60.5 152 L 59.5 150 L 61.5 149 Z " /><path fill="rgb(170,170,170)" stroke="rgb(170,170,170)" stroke-width="1" opacity="1" d="M 49.5 159 L 52 159.5 L 49.5 160 L 49.5 159 Z " /><path fill="rgb(170,170,170)" stroke="rgb(170,170,170)" stroke-width="1" opacity="1" d="M 41.5 165 L 43 165.5 L 39.5 168 L 41.5 165 Z " /><path fill="rgb(170,170,170)" stroke="rgb(170,170,170)" stroke-width="1" opacity="1" d="M 256.5 166 L 257.5 168 L 255 167.5 L 256.5 166 Z " /><path fill="rgb(170,170,170)" stroke="rgb(170,170,170)" stroke-width="1" opacity="1" d="M 257.5 172 L 258.5 174 L 260 173.5 L 257 175 L 257.5 172 Z " /><path fill="rgb(170,170,170)" stroke="rgb(170,170,170)" stroke-width="1" opacity="1" d="M 31.5 175 L 32 177.5 L 31 177.5 L 31.5 175 Z " /><path fill="rgb(170,170,170)" stroke="rgb(170,170,170)" stroke-width="1" opacity="1" d="M 263.5 186 L 265 188.5 L 264 188.5 L 263.5 186 Z " /><path fill="rgb(170,170,170)" stroke="rgb(170,170,170)" stroke-width="1" opacity="1" d="M 424.5 200 L 428 200.5 L 424.5 201 L 424.5 200 Z " /><path fill="rgb(170,170,170)" stroke="rgb(170,170,170)" stroke-width="1" opacity="1" d="M 430.5 200 L 433 200.5 L 430.5 201 L 430.5 200 Z " /><path fill="rgb(170,170,170)" stroke="rgb(170,170,170)" stroke-width="1" opacity="1" d="M 277.5 208 L 278 212.5 L 277 212.5 L 277.5 208 Z " /><path fill="rgb(170,170,170)" stroke="rgb(170,170,170)" stroke-width="1" opacity="1" d="M 384.5 215 L 380.5 220 L 379.5 219 L 375 222.5 L 380.5 217 L 381.5 218 L 384.5 215 Z " /><path fill="rgb(170,170,170)" stroke="rgb(170,170,170)" stroke-width="1" opacity="1" d="M 444.5 221 L 446 225.5 L 444 226 L 444.5 221 Z " /><path fill="rgb(170,170,170)" stroke="rgb(170,170,170)" stroke-width="1" opacity="1" d="M 268.5 222 L 271 223.5 L 269.5 224 L 268.5 222 Z " /><path fill="rgb(170,170,170)" stroke="rgb(170,170,170)" stroke-width="1" opacity="1" d="M 433.5 222 L 435.5 223 L 437 222.5 Q 435.8 225.3 434.5 223 L 433.5 222 Z " /><path fill="rgb(170,170,170)" stroke="rgb(170,170,170)" stroke-width="1" opacity="1" d="M 439.5 224 L 442.5 228 Q 440.8 224.9 439 226.5 L 439.5 224 Z " /><path fill="rgb(170,170,170)" stroke="rgb(170,170,170)" stroke-width="1" opacity="1" d="M 459.5 224 L 461 226.5 L 459 225.5 L 459.5 224 Z " /><path fill="rgb(170,170,170)" stroke="rgb(170,170,170)" stroke-width="1" opacity="1" d="M 414.5 230 L 415 232.5 L 414 232.5 L 414.5 230 Z " /><path fill="rgb(170,170,170)" stroke="rgb(170,170,170)" stroke-width="1" opacity="1" d="M 423 232 L 425 232.5 L 423 233.5 L 423 232 Z " /><path fill="rgb(170,170,170)" stroke="rgb(170,170,170)" stroke-width="1" opacity="1" d="M 460.5 233 L 461 238.5 L 460 238.5 L 460.5 233 Z " /><path fill="rgb(170,170,170)" stroke="rgb(170,170,170)" stroke-width="1" opacity="1" d="M 313.5 237 Q 315.3 240.1 317 238.5 L 315.5 240 L 313.5 237 Z " /><path fill="rgb(170,170,170)" stroke="rgb(170,170,170)" stroke-width="1" opacity="1" d="M 407.5 241 L 408 242.5 L 406 243.5 L 407.5 241 Z " /><path fill="rgb(170,170,170)" stroke="rgb(170,170,170)" stroke-width="1" opacity="1" d="M 446.5 246 L 447 251.5 L 446 251.5 L 446.5 246 Z " /><path fill="rgb(170,170,170)" stroke="rgb(170,170,170)" stroke-width="1" opacity="1" d="M 376 247 L 379 248.5 L 377 248.5 Q 378.1 251.8 375.5 251 L 376 249.5 L 376 247 Z " /><path fill="rgb(170,170,170)" stroke="rgb(170,170,170)" stroke-width="1" opacity="1" d="M 468.5 249 L 469 251.5 L 468 251.5 L 468.5 249 Z " /><path fill="rgb(170,170,170)" stroke="rgb(170,170,170)" stroke-width="1" opacity="1" d="M 357 250 L 359 250.5 L 357 251.5 L 357 250 Z " /><path fill="rgb(170,170,170)" stroke="rgb(170,170,170)" stroke-width="1" opacity="1" d="M 406.5 252 L 407 254.5 L 406 254.5 L 406.5 252 Z " /><path fill="rgb(170,170,170)" stroke="rgb(170,170,170)" stroke-width="1" opacity="1" d="M 377.5 253 L 380 254.5 L 378.5 255 L 377.5 253 Z " /><path fill="rgb(170,170,170)" stroke="rgb(170,170,170)" stroke-width="1" opacity="1" d="M 447.5 253 L 448 255 L 445 254.5 L 447.5 253 Z " /><path fill="rgb(170,170,170)" stroke="rgb(170,170,170)" stroke-width="1" opacity="1" d="M 238.5 254 L 239 262.5 L 238 262.5 L 238.5 254 Z " /><path fill="rgb(170,170,170)" stroke="rgb(170,170,170)" stroke-width="1" opacity="1" d="M 466.5 254 L 467 257 L 465 256.5 L 466.5 254 Z " /><path fill="rgb(170,170,170)" stroke="rgb(170,170,170)" stroke-width="1" opacity="1" d="M 404.5 256 L 406 263.5 L 405 266 L 402 265.5 L 404 265 L 404.5 256 Z " /><path fill="rgb(170,170,170)" stroke="rgb(170,170,170)" stroke-width="1" opacity="1" d="M 255.5 257 L 259 257.5 L 255.5 258 L 255.5 257 Z " /><path fill="rgb(170,170,170)" stroke="rgb(170,170,170)" stroke-width="1" opacity="1" d="M 377.5 257 L 376 259.5 L 375.5 261 L 375 259.5 L 377.5 257 Z " /><path fill="rgb(170,170,170)" stroke="rgb(170,170,170)" stroke-width="1" opacity="1" d="M 466.5 258 L 467 260 L 465 259.5 L 466.5 258 Z " /><path fill="rgb(170,170,170)" stroke="rgb(170,170,170)" stroke-width="1" opacity="1" d="M 477.5 258 L 478 268.5 L 477 268.5 L 477.5 258 Z " /><path fill="rgb(170,170,170)" stroke="rgb(170,170,170)" stroke-width="1" opacity="1" d="M 372.5 260 L 374 262.5 L 373 262.5 L 372.5 260 Z " /><path fill="rgb(170,170,170)" stroke="rgb(170,170,170)" stroke-width="1" opacity="1" d="M 240.5 267 L 241 271.5 L 240 271.5 L 239 269.5 L 240.5 267 Z " /><path fill="rgb(170,170,170)" stroke="rgb(170,170,170)" stroke-width="1" opacity="1" d="M 466.5 268 L 467 270.5 L 465 271.5 L 466.5 268 Z " /><path fill="rgb(170,170,170)" stroke="rgb(170,170,170)" stroke-width="1" opacity="1" d="M 366.5 270 L 369 273.5 L 368 273.5 L 367.5 272 L 366 272.5 L 366.5 270 Z " /><path fill="rgb(170,170,170)" stroke="rgb(170,170,170)" stroke-width="1" opacity="1" d="M 473.5 271 L 474 273.5 L 473 273.5 L 473.5 271 Z " /><path fill="rgb(170,170,170)" stroke="rgb(170,170,170)" stroke-width="1" opacity="1" d="M 401.5 272 L 401 273.5 L 400.5 275 L 400 273.5 L 401.5 272 Z " /><path fill="rgb(170,170,170)" stroke="rgb(170,170,170)" stroke-width="1" opacity="1" d="M 372.5 273 L 373 276.5 L 372 276.5 L 372.5 273 Z " /><path fill="rgb(170,170,170)" stroke="rgb(170,170,170)" stroke-width="1" opacity="1" d="M 315.5 274 L 319 274.5 L 315.5 275 L 315.5 274 Z " /><path fill="rgb(170,170,170)" stroke="rgb(170,170,170)" stroke-width="1" opacity="1" d="M 320.5 275 L 322 277.5 L 321 277.5 L 320.5 275 Z " /><path fill="rgb(170,170,170)" stroke="rgb(170,170,170)" stroke-width="1" opacity="1" d="M 240.5 276 L 243 277.5 L 241.5 277 L 240.5 276 Z " /><path fill="rgb(170,170,170)" stroke="rgb(170,170,170)" stroke-width="1" opacity="1" d="M 370.5 285 L 373 285.5 L 370.5 286 L 370.5 285 Z " /><path fill="rgb(170,170,170)" stroke="rgb(170,170,170)" stroke-width="1" opacity="1" d="M 406.5 286 L 407 291.5 L 406 291.5 L 406.5 286 Z " /><path fill="rgb(170,170,170)" stroke="rgb(170,170,170)" stroke-width="1" opacity="1" d="M 383.5 288 L 388 288.5 L 383.5 289 L 383.5 288 Z " /><path fill="rgb(170,170,170)" stroke="rgb(170,170,170)" stroke-width="1" opacity="1" d="M 447.5 288 L 451 288.5 L 447.5 289 L 447.5 288 Z " /><path fill="rgb(170,170,170)" stroke="rgb(170,170,170)" stroke-width="1" opacity="1" d="M 469.5 288 L 468.5 292 L 467.5 291 L 465 292.5 L 469.5 288 Z " /><path fill="rgb(170,170,170)" stroke="rgb(170,170,170)" stroke-width="1" opacity="1" d="M 389.5 292 L 393 292.5 L 389.5 293 L 389.5 292 Z " /><path fill="rgb(170,170,170)" stroke="rgb(170,170,170)" stroke-width="1" opacity="1" d="M 184.5 295 L 188 295.5 L 184.5 296 L 184.5 295 Z " /><path fill="rgb(170,170,170)" stroke="rgb(170,170,170)" stroke-width="1" opacity="1" d="M 238 297 L 240 297.5 L 238 298.5 L 238 297 Z " /><path fill="rgb(170,170,170)" stroke="rgb(170,170,170)" stroke-width="1" opacity="1" d="M 230.5 302 L 234 302.5 L 230.5 303 L 230.5 302 Z " /><path fill="rgb(170,170,170)" stroke="rgb(170,170,170)" stroke-width="1" opacity="1" d="M 346.5 303 L 346 304.5 L 345.5 306 L 345 304.5 L 346.5 303 Z " /><path fill="rgb(170,170,170)" stroke="rgb(170,170,170)" stroke-width="1" opacity="1" d="M 349.5 309 L 350 312.5 L 349 312.5 L 349.5 309 Z " /><path fill="rgb(170,170,170)" stroke="rgb(170,170,170)" stroke-width="1" opacity="1" d="M 332.5 313 L 333 328.5 L 332 328.5 L 332.5 313 Z " /><path fill="rgb(170,170,170)" stroke="rgb(170,170,170)" stroke-width="1" opacity="1" d="M 335.5 313 L 336 317.5 L 335 317.5 L 335.5 313 Z " /><path fill="rgb(170,170,170)" stroke="rgb(170,170,170)" stroke-width="1" opacity="1" d="M 188.5 315 L 191 315.5 L 188.5 316 L 188.5 315 Z " /><path fill="rgb(170,170,170)" stroke="rgb(170,170,170)" stroke-width="1" opacity="1" d="M 403.5 315 L 404.5 317 L 403 316.5 L 402.5 318 L 402 316.5 L 403.5 315 Z " /><path fill="rgb(170,170,170)" stroke="rgb(170,170,170)" stroke-width="1" opacity="1" d="M 345.5 316 L 346 321.5 L 345 321.5 L 345.5 316 Z " /><path fill="rgb(170,170,170)" stroke="rgb(170,170,170)" stroke-width="1" opacity="1" d="M 186.5 318 L 189 318.5 L 186.5 319 L 186.5 318 Z " /><path fill="rgb(170,170,170)" stroke="rgb(170,170,170)" stroke-width="1" opacity="1" d="M 201.5 318 L 204 318.5 L 201.5 319 L 201.5 318 Z " /><path fill="rgb(170,170,170)" stroke="rgb(170,170,170)" stroke-width="1" opacity="1" d="M 368.5 319 L 369 321 L 367 320.5 L 368.5 319 Z " /><path fill="rgb(170,170,170)" stroke="rgb(170,170,170)" stroke-width="1" opacity="1" d="M 379.5 323 L 380 325 L 378 324.5 L 379.5 323 Z " /><path fill="rgb(170,170,170)" stroke="rgb(170,170,170)" stroke-width="1" opacity="1" d="M 344.5 326 Q 347.1 325.2 346 328.5 L 345 328.5 L 344.5 326 Z " /><path fill="rgb(170,170,170)" stroke="rgb(170,170,170)" stroke-width="1" opacity="1" d="M 335.5 330 L 336 333.5 L 335 333.5 L 335.5 330 Z " /><path fill="rgb(170,170,170)" stroke="rgb(170,170,170)" stroke-width="1" opacity="1" d="M 360.5 334 Q 363 335 362 339.5 L 361 339.5 L 360.5 334 Z " /><path fill="rgb(170,170,170)" stroke="rgb(170,170,170)" stroke-width="1" opacity="1" d="M 414.5 335 L 415 337 L 412.5 338 L 414.5 335 Z " /><path fill="rgb(170,170,170)" stroke="rgb(170,170,170)" stroke-width="1" opacity="1" d="M 441.5 337 L 444 337.5 L 441.5 338 L 441.5 337 Z " /><path fill="rgb(170,170,170)" stroke="rgb(170,170,170)" stroke-width="1" opacity="1" d="M 423.5 340 L 425 342.5 L 424 342.5 L 423.5 340 Z " /><path fill="rgb(170,170,170)" stroke="rgb(170,170,170)" stroke-width="1" opacity="1" d="M 389.5 344 L 390 350 L 388 349.5 L 389.5 344 Z " /><path fill="rgb(170,170,170)" stroke="rgb(170,170,170)" stroke-width="1" opacity="1" d="M 370.5 345 L 371.5 347 L 369 346.5 L 370.5 345 Z " /><path fill="rgb(170,170,170)" stroke="rgb(170,170,170)" stroke-width="1" opacity="1" d="M 423.5 351 L 425 353.5 L 423 352.5 L 423.5 351 Z " /><path fill="rgb(170,170,170)" stroke="rgb(170,170,170)" stroke-width="1" opacity="1" d="M 400.5 352 Q 403.3 353.3 401 354.5 L 400.5 356 L 400.5 352 Z " /><path fill="rgb(170,170,170)" stroke="rgb(170,170,170)" stroke-width="1" opacity="1" d="M 408.5 369 L 411 370.5 L 409.5 371 L 408.5 369 Z " /><path fill="rgb(170,170,170)" stroke="rgb(170,170,170)" stroke-width="1" opacity="1" d="M 355.5 372 L 356 376.5 L 355 376.5 L 355.5 372 Z " /><path fill="rgb(170,170,170)" stroke="rgb(170,170,170)" stroke-width="1" opacity="1" d="M 358.5 376 L 359 378 L 361 378.5 L 358 379 L 358.5 376 Z " /><path fill="rgb(170,170,170)" stroke="rgb(170,170,170)" stroke-width="1" opacity="1" d="M 385.5 387 L 390 387.5 L 385.5 388 L 385.5 387 Z " /><path fill="rgb(170,170,170)" stroke="rgb(170,170,170)" stroke-width="1" opacity="1" d="M 387.5 395 L 390 395.5 L 387.5 396 L 387.5 395 Z " /><path fill="rgb(170,170,170)" stroke="rgb(170,170,170)" stroke-width="1" opacity="1" d="M 381.5 399 L 387 399.5 L 381.5 400 L 381.5 399 Z " /><path fill="rgb(3,3,3)" stroke="rgb(3,3,3)" stroke-width="1" opacity="1" d="M 163.5 129 L 201.5 131 L 224.5 136 Q 250.5 144 266 162.5 Q 272.5 169.5 275 180.5 L 274 180.5 L 269 168.5 L 257.5 156 Q 247.6 147.4 234.5 142 L 215.5 136 L 197.5 134 L 196.5 133 L 184.5 133 L 183.5 132 L 152.5 132 L 151.5 133 L 136.5 133 L 135.5 134 L 126 134.5 L 133 140.5 L 131.5 140 L 124.5 134 L 123.5 135 L 96.5 138 L 72.5 144 L 48.5 155 L 37 165.5 L 33.5 172 L 33 170.5 L 43.5 157 Q 61.3 144.3 85.5 138 L 105.5 134 L 127.5 132 L 128.5 131 L 162.5 130 L 163.5 129 Z " /><path fill="rgb(3,3,3)" stroke="rgb(3,3,3)" stroke-width="1" opacity="1" d="M 146.5 134 L 155 139.5 L 151 140 Q 152.1 137.3 149.5 138 L 146.5 134 Z " /><path fill="rgb(3,3,3)" stroke="rgb(3,3,3)" stroke-width="1" opacity="1" d="M 156.5 134 L 161 137.5 L 159.5 137 L 156.5 134 Z " /><path fill="rgb(3,3,3)" stroke="rgb(3,3,3)" stroke-width="1" opacity="1" d="M 137.5 135 L 143 139.5 L 141.5 140 L 137.5 135 Z " /><path fill="rgb(3,3,3)" stroke="rgb(3,3,3)" stroke-width="1" opacity="1" d="M 167.5 135 L 171 137.5 L 169.5 137 L 167.5 135 Z " /><path fill="rgb(3,3,3)" stroke="rgb(3,3,3)" stroke-width="1" opacity="1" d="M 117.5 137 L 121.5 140 L 124 140 L 125 142.5 L 122.5 141 L 117 140.5 L 120 139.5 L 117.5 137 Z " /><path fill="rgb(3,3,3)" stroke="rgb(3,3,3)" stroke-width="1" opacity="1" d="M 109.5 139 Q 110.6 141.8 114 141 L 115 143.5 L 112.5 142 L 108 141.5 L 110 140.5 L 109.5 139 Z " /><path fill="rgb(3,3,3)" stroke="rgb(3,3,3)" stroke-width="1" opacity="1" d="M 98.5 140 Q 100.8 142.8 106 142.5 L 104 143.5 L 104.5 145 L 100.5 143 L 97.5 144 L 97.5 143 L 100 142.5 L 98.5 140 Z " /><path fill="rgb(3,3,3)" stroke="rgb(3,3,3)" stroke-width="1" opacity="1" d="M 89.5 142 L 95 144 L 96 146.5 L 94.5 146 Q 89.9 145.3 89.5 142 Z " /><path fill="rgb(3,3,3)" stroke="rgb(3,3,3)" stroke-width="1" opacity="1" d="M 81.5 145 L 86 147.5 L 84.5 148 L 81.5 145 Z " /><path fill="rgb(3,3,3)" stroke="rgb(3,3,3)" stroke-width="1" opacity="1" d="M 62.5 151 L 65 151.5 L 62.5 152 L 62.5 151 Z " /><path fill="rgb(3,3,3)" stroke="rgb(3,3,3)" stroke-width="1" opacity="1" d="M 54.5 155 L 58 155.5 L 54.5 156 L 54.5 155 Z " /><path fill="rgb(3,3,3)" stroke="rgb(3,3,3)" stroke-width="1" opacity="1" d="M 253.5 159 L 254 165.5 L 253 165.5 L 253.5 159 Z " /><path fill="rgb(3,3,3)" stroke="rgb(3,3,3)" stroke-width="1" opacity="1" d="M 255.5 166 L 259 168.5 L 259.5 167 L 260 171.5 L 258 172.5 L 258 169.5 L 255.5 166 Z " /><path fill="rgb(3,3,3)" stroke="rgb(3,3,3)" stroke-width="1" opacity="1" d="M 32.5 173 L 33 175.5 L 32 175.5 L 32.5 173 Z " /><path fill="rgb(3,3,3)" stroke="rgb(3,3,3)" stroke-width="1" opacity="1" d="M 264.5 174 L 265 176.5 L 264 180 Q 261.3 181.1 262 178.5 L 264.5 174 Z " /><path fill="rgb(3,3,3)" stroke="rgb(3,3,3)" stroke-width="1" opacity="1" d="M 275.5 182 L 276 184.5 L 275 184.5 L 275.5 182 Z " /><path fill="rgb(3,3,3)" stroke="rgb(3,3,3)" stroke-width="1" opacity="1" d="M 276.5 186 L 277 189.5 L 276 189.5 L 276.5 186 Z " /><path fill="rgb(3,3,3)" stroke="rgb(3,3,3)" stroke-width="1" opacity="1" d="M 415.5 192 L 433.5 192 L 439.5 194 Q 450.5 198.5 458 206.5 Q 469.3 217.7 474 235.5 L 476 244.5 L 476 252.5 L 477 253.5 L 477 274.5 L 475 283.5 L 475 285.5 Q 468 344.5 434.5 377 Q 423.4 388.4 407.5 395 L 390.5 399 L 378.5 399 L 363.5 394 L 349 380.5 L 341 364.5 L 342 364.5 Q 346.8 377.8 356.5 386 Q 362.9 392.1 372.5 395 Q 380.4 397.6 392.5 396 Q 420.8 390.8 436 372.5 L 453 348.5 L 463 326.5 Q 460.5 325 464 323.5 L 466 317.5 L 464.5 318 L 462.5 319 L 464.5 316 L 467 314.5 L 468 308.5 L 466.5 309 L 464.5 310 L 465.5 308 L 469 305.5 L 470 299 L 467.5 300 L 468.5 298 L 471 296.5 L 472 289.5 L 470.5 290 L 468.5 291 L 470.5 288 Q 472.8 288.8 472 286.5 Q 474.5 285 473 279.5 L 469 281.5 L 474 276.5 L 474 269.5 L 471 270.5 Q 476.6 267.7 475 259 L 473 258.5 L 475 255.5 L 473 247.5 L 474 245.5 L 468 223.5 Q 463.4 213.1 455.5 206 L 440.5 196 Q 432.9 192.6 420.5 194 L 420.5 196 L 416.5 194 L 412 195 L 413 197.5 L 411.5 197 L 408.5 196 L 403 198 Q 401.9 200.7 404.5 200 L 404.5 201 L 398.5 200 L 394 203.5 L 397 204.5 L 394.5 205 L 391.5 204 L 387 207.5 Q 387.8 210.1 384.5 209 L 374 218.5 Q 350.8 241.3 341 277.5 L 335 309.5 L 335 337.5 L 339 356.5 L 338 356.5 L 333 332.5 L 333 309.5 L 334 308.5 L 334 300.5 L 337 283.5 L 346 255.5 Q 358.2 227.2 380.5 209 L 401.5 196 L 415.5 192 Z " /><path fill="rgb(3,3,3)" stroke="rgb(3,3,3)" stroke-width="1" opacity="1" d="M 69.5 193 Q 93.3 216.3 122 234.5 L 120.5 235 Q 91.7 219.8 71 196.5 L 69.5 193 Z " /><path fill="rgb(3,3,3)" stroke="rgb(3,3,3)" stroke-width="1" opacity="1" d="M 277.5 195 L 278 198.5 L 277 198.5 L 277.5 195 Z " /><path fill="rgb(3,3,3)" stroke="rgb(3,3,3)" stroke-width="1" opacity="1" d="M 37.5 197 L 39 200.5 L 38 200.5 L 37.5 197 Z " /><path fill="rgb(3,3,3)" stroke="rgb(3,3,3)" stroke-width="1" opacity="1" d="M 422.5 201 Q 446.7 199.8 456 213.5 Q 463 222.5 466 235.5 L 467 246.5 L 468 247.5 L 469 266.5 L 468 267.5 L 468 277.5 L 465 294.5 L 454 330.5 Q 443.7 357.7 423.5 375 L 403.5 387 L 396.5 389 L 385.5 390 Q 384 387.5 378.5 389 L 368.5 385 L 359 376.5 L 351.5 363 L 351 366 Q 348.3 367.1 349 364.5 L 347 360.5 L 348 360.5 L 349.5 364 Q 352.3 362.8 351 357.5 L 350 354 Q 347.3 352.9 348 355.5 L 346.5 359 L 345 354.5 L 348 353.5 L 349 349.5 L 347.5 344 L 344 346.5 Q 348.7 343.5 347 335 L 342.5 338 L 344 335.5 Q 347.4 332.9 346 325.5 L 341 328.5 L 346 322.5 L 346 315.5 L 344 315.5 L 347 309.5 L 347 300.5 L 351 280.5 L 358 260.5 Q 370.4 233.9 391.5 216 L 411.5 204 L 422.5 201 Z M 425 203 L 411 207 L 395 217 Q 373 234 361 261 L 352 288 L 350 305 L 349 306 L 349 321 L 348 322 L 349 341 L 351 352 L 355 366 L 360 375 Q 367 385 382 388 L 395 388 L 403 386 Q 413 382 421 376 Q 437 362 446 342 L 439 340 L 440 338 Q 445 337 447 339 L 453 326 L 453 324 L 443 330 Q 440 331 441 328 L 448 324 L 454 323 L 460 305 L 460 303 L 457 307 L 451 312 L 449 313 L 462 297 L 467 275 L 467 251 L 466 250 L 465 239 Q 462 225 455 216 Q 446 203 425 203 Z " /><path fill="rgb(3,3,3)" stroke="rgb(3,3,3)" stroke-width="1" opacity="1" d="M 40.5 204 Q 53.6 230.9 74.5 250 Q 112.1 284.9 160.5 309 L 185.5 316 L 208.5 316 L 227.5 311 L 238.5 305 L 237.5 307 Q 226.4 313.9 211.5 317 Q 206.8 315.8 205.5 318 L 184.5 318 L 170.5 315 L 156.5 310 L 130.5 296 Q 95.4 274.1 67 245.5 L 48 220.5 L 40 205.5 L 40.5 204 Z " /><path fill="rgb(3,3,3)" stroke="rgb(3,3,3)" stroke-width="1" opacity="1" d="M 424.5 210 L 423.5 212 L 420.5 214 L 422.5 211 L 424.5 210 Z " /><path fill="rgb(3,3,3)" stroke="rgb(3,3,3)" stroke-width="1" opacity="1" d="M 414.5 212 L 415 214.5 L 414 214.5 L 414.5 212 Z " /><path fill="rgb(3,3,3)" stroke="rgb(3,3,3)" stroke-width="1" opacity="1" d="M 434.5 212 L 435 216.5 L 430.5 230 L 430 223.5 L 434.5 212 Z " /><path fill="rgb(3,3,3)" stroke="rgb(3,3,3)" stroke-width="1" opacity="1" d="M 403.5 213 L 412 226.5 L 407 222.5 L 404 217.5 L 403.5 213 Z " /><path fill="rgb(3,3,3)" stroke="rgb(3,3,3)" stroke-width="1" opacity="1" d="M 255.5 215 L 254 217.5 L 244 240.5 L 239.5 266 L 239 251.5 L 244 232.5 Q 248.2 222.2 255.5 215 Z " /><path fill="rgb(3,3,3)" stroke="rgb(3,3,3)" stroke-width="1" opacity="1" d="M 274.5 216 L 311.5 226 L 348 238.5 L 346.5 239 L 302.5 227 L 278.5 219 L 274.5 217 L 274.5 216 Z " /><path fill="rgb(3,3,3)" stroke="rgb(3,3,3)" stroke-width="1" opacity="1" d="M 382.5 216 L 375 224.5 L 364.5 239 L 365 237.5 Q 372 225 382.5 216 Z " /><path fill="rgb(3,3,3)" stroke="rgb(3,3,3)" stroke-width="1" opacity="1" d="M 445.5 217 L 446 224.5 L 445 224.5 L 445.5 217 Z " /><path fill="rgb(3,3,3)" stroke="rgb(3,3,3)" stroke-width="1" opacity="1" d="M 284.5 224 L 288 229.5 L 287 229.5 L 284.5 224 Z " /><path fill="rgb(3,3,3)" stroke="rgb(3,3,3)" stroke-width="1" opacity="1" d="M 458.5 224 Q 461.8 230.8 460 242.5 L 458.5 245 L 458.5 224 Z " /><path fill="rgb(3,3,3)" stroke="rgb(3,3,3)" stroke-width="1" opacity="1" d="M 293.5 226 L 297 232.5 L 296 232.5 L 293.5 226 Z " /><path fill="rgb(3,3,3)" stroke="rgb(3,3,3)" stroke-width="1" opacity="1" d="M 391.5 227 Q 395.8 231.7 396 240.5 L 395 240.5 Q 390.8 235.3 391.5 227 Z " /><path fill="rgb(3,3,3)" stroke="rgb(3,3,3)" stroke-width="1" opacity="1" d="M 303.5 230 L 306 234.5 L 304 233.5 L 303.5 230 Z " /><path fill="rgb(3,3,3)" stroke="rgb(3,3,3)" stroke-width="1" opacity="1" d="M 415.5 231 L 417 234 L 419 234.5 L 417 235.5 L 415.5 231 Z " /><path fill="rgb(3,3,3)" stroke="rgb(3,3,3)" stroke-width="1" opacity="1" d="M 424.5 233 L 429 239.5 L 427 240 L 426.5 242 L 426 240.5 L 427 238 L 423 236.5 L 425 235.5 L 424.5 233 Z " /><path fill="rgb(3,3,3)" stroke="rgb(3,3,3)" stroke-width="1" opacity="1" d="M 312.5 234 L 316 238.5 L 313 236.5 L 312.5 234 Z " /><path fill="rgb(3,3,3)" stroke="rgb(3,3,3)" stroke-width="1" opacity="1" d="M 410.5 243 L 413 246.5 L 411 245.5 L 410.5 243 Z " /><path fill="rgb(3,3,3)" stroke="rgb(3,3,3)" stroke-width="1" opacity="1" d="M 445.5 244 L 446 251.5 L 445 251.5 L 444 246.5 L 445.5 244 Z " /><path fill="rgb(3,3,3)" stroke="rgb(3,3,3)" stroke-width="1" opacity="1" d="M 406.5 245 L 407 247.5 L 406 247.5 L 406.5 245 Z " /><path fill="rgb(3,3,3)" stroke="rgb(3,3,3)" stroke-width="1" opacity="1" d="M 442.5 247 L 441.5 249 L 439.5 250 L 440.5 248 L 442.5 247 Z " /><path fill="rgb(3,3,3)" stroke="rgb(3,3,3)" stroke-width="1" opacity="1" d="M 377.5 248 Q 383.5 252.5 386 260.5 L 381 256.5 L 377.5 248 Z " /><path fill="rgb(3,3,3)" stroke="rgb(3,3,3)" stroke-width="1" opacity="1" d="M 164.5 250 Q 173.1 248.9 178 251.5 Q 175.6 254.1 169.5 253 L 164.5 251 L 164.5 250 Z " /><path fill="rgb(3,3,3)" stroke="rgb(3,3,3)" stroke-width="1" opacity="1" d="M 405.5 252 L 406 257.5 L 405 257.5 L 405.5 252 Z " /><path fill="rgb(3,3,3)" stroke="rgb(3,3,3)" stroke-width="1" opacity="1" d="M 429.5 252 L 430 254 L 420.5 258 L 423.5 254 L 429.5 252 Z " /><path fill="rgb(3,3,3)" stroke="rgb(3,3,3)" stroke-width="1" opacity="1" d="M 436.5 255 L 442 263.5 L 442 266.5 L 440 265.5 L 436.5 255 Z " /><path fill="rgb(3,3,3)" stroke="rgb(3,3,3)" stroke-width="1" opacity="1" d="M 375 257 L 377 257.5 Q 373.9 258.9 374.5 264 L 374 259.5 L 375 257 Z " /><path fill="rgb(3,3,3)" stroke="rgb(3,3,3)" stroke-width="1" opacity="1" d="M 259.5 258 L 270.5 260 L 285.5 265 L 296 270.5 L 294.5 271 L 263.5 261 L 259.5 259 L 259.5 258 Z " /><path fill="rgb(3,3,3)" stroke="rgb(3,3,3)" stroke-width="1" opacity="1" d="M 455.5 260 L 458 260.5 Q 452.8 265.3 443.5 266 L 443.5 265 L 455.5 260 Z " /><path fill="rgb(3,3,3)" stroke="rgb(3,3,3)" stroke-width="1" opacity="1" d="M 377.5 264 L 379 264.5 L 374 268.5 L 373.5 272 L 373 267.5 L 377.5 264 Z " /><path fill="rgb(3,3,3)" stroke="rgb(3,3,3)" stroke-width="1" opacity="1" d="M 401.5 274 L 402 276.5 L 401 276.5 L 401.5 274 Z " /><path fill="rgb(3,3,3)" stroke="rgb(3,3,3)" stroke-width="1" opacity="1" d="M 315 275 Q 319.6 273.8 321 276.5 L 317.5 278 L 315 277 L 315 275 Z " /><path fill="rgb(3,3,3)" stroke="rgb(3,3,3)" stroke-width="1" opacity="1" d="M 388.5 275 L 396 281.5 L 398 286.5 L 392 281.5 L 388.5 275 Z " /><path fill="rgb(3,3,3)" stroke="rgb(3,3,3)" stroke-width="1" opacity="1" d="M 432.5 275 L 433 277.5 L 432 277.5 L 432.5 275 Z " /><path fill="rgb(3,3,3)" stroke="rgb(3,3,3)" stroke-width="1" opacity="1" d="M 462.5 276 L 463 277.5 L 460.5 281 L 461 279.5 L 462.5 276 Z " /><path fill="rgb(3,3,3)" stroke="rgb(3,3,3)" stroke-width="1" opacity="1" d="M 249.5 279 L 294.5 291 L 318.5 299 L 325 302.5 L 323.5 303 L 316.5 300 L 269.5 287 L 249.5 280 L 249.5 279 Z " /><path fill="rgb(3,3,3)" stroke="rgb(3,3,3)" stroke-width="1" opacity="1" d="M 408.5 281 L 409 294.5 L 407 293.5 Q 405.6 285.1 408.5 281 Z " /><path fill="rgb(3,3,3)" stroke="rgb(3,3,3)" stroke-width="1" opacity="1" d="M 431.5 282 Q 442.3 282.7 449 287.5 L 445.5 288 L 437.5 286 L 431.5 283 L 431.5 282 Z " /><path fill="rgb(3,3,3)" stroke="rgb(3,3,3)" stroke-width="1" opacity="1" d="M 368.5 286 L 371 286.5 L 359.5 293 L 362.5 289 L 368.5 286 Z " /><path fill="rgb(3,3,3)" stroke="rgb(3,3,3)" stroke-width="1" opacity="1" d="M 381 289 Q 389.8 287.9 395 291.5 L 387.5 292 L 381 291 L 381 289 Z " /><path fill="rgb(3,3,3)" stroke="rgb(3,3,3)" stroke-width="1" opacity="1" d="M 168.5 294 L 171 294.5 L 168.5 295 L 168.5 294 Z " /><path fill="rgb(3,3,3)" stroke="rgb(3,3,3)" stroke-width="1" opacity="1" d="M 174.5 295 L 179 295.5 L 174.5 296 L 174.5 295 Z " /><path fill="rgb(3,3,3)" stroke="rgb(3,3,3)" stroke-width="1" opacity="1" d="M 418.5 295 L 420 295.5 L 418 296 L 419 298.5 L 416 296.5 L 418.5 295 Z " /><path fill="rgb(3,3,3)" stroke="rgb(3,3,3)" stroke-width="1" opacity="1" d="M 182.5 296 L 199 296.5 L 182.5 297 L 182.5 296 Z " /><path fill="rgb(3,3,3)" stroke="rgb(3,3,3)" stroke-width="1" opacity="1" d="M 444.5 297 L 446 297.5 L 435 305.5 L 442 310.5 L 440.5 310 L 429 307 Q 427.9 304.3 430.5 305 L 444.5 297 Z " /><path fill="rgb(3,3,3)" stroke="rgb(3,3,3)" stroke-width="1" opacity="1" d="M 373.5 299 L 384 304.5 L 373.5 314 L 374 312.5 L 379 304.5 L 373.5 299 Z " /><path fill="rgb(3,3,3)" stroke="rgb(3,3,3)" stroke-width="1" opacity="1" d="M 208.5 306 L 213 309.5 L 211.5 309 L 208.5 306 Z " /><path fill="rgb(3,3,3)" stroke="rgb(3,3,3)" stroke-width="1" opacity="1" d="M 179.5 307 L 184 310.5 L 183.5 312 L 179.5 307 Z " /><path fill="rgb(3,3,3)" stroke="rgb(3,3,3)" stroke-width="1" opacity="1" d="M 357.5 307 Q 362.9 312.6 365 321.5 L 362 319.5 Q 357.5 314 357.5 307 Z " /><path fill="rgb(3,3,3)" stroke="rgb(3,3,3)" stroke-width="1" opacity="1" d="M 389.5 307 L 388.5 309 L 380.5 313 L 381.5 311 L 389.5 307 Z " /><path fill="rgb(3,3,3)" stroke="rgb(3,3,3)" stroke-width="1" opacity="1" d="M 409.5 310 L 410 311.5 L 408.5 316 L 407.5 314 L 403.5 317 L 405.5 314 L 409 311.5 L 409.5 310 Z " /><path fill="rgb(3,3,3)" stroke="rgb(3,3,3)" stroke-width="1" opacity="1" d="M 407.5 317 L 408 319.5 L 407 319.5 L 407.5 317 Z " /><path fill="rgb(3,3,3)" stroke="rgb(3,3,3)" stroke-width="1" opacity="1" d="M 428.5 317 L 432 323.5 L 432 327.5 L 430 326.5 Q 426.9 322.9 428.5 317 Z " /><path fill="rgb(3,3,3)" stroke="rgb(3,3,3)" stroke-width="1" opacity="1" d="M 408.5 321 L 403.5 327 L 404 325.5 L 406.5 322 L 408.5 321 Z " /><path fill="rgb(3,3,3)" stroke="rgb(3,3,3)" stroke-width="1" opacity="1" d="M 363.5 326 L 357.5 333 L 350.5 337 L 356.5 330 L 363.5 326 Z " /><path fill="rgb(3,3,3)" stroke="rgb(3,3,3)" stroke-width="1" opacity="1" d="M 425.5 331 L 429 332.5 L 427.5 333 L 425.5 331 Z " /><path fill="rgb(3,3,3)" stroke="rgb(3,3,3)" stroke-width="1" opacity="1" d="M 395.5 332 Q 399 336.5 398 345.5 L 397 345.5 Q 393.8 340.3 395.5 332 Z " /><path fill="rgb(3,3,3)" stroke="rgb(3,3,3)" stroke-width="1" opacity="1" d="M 360.5 336 L 361 341.5 L 357.5 351 L 357 345.5 L 360.5 336 Z " /><path fill="rgb(3,3,3)" stroke="rgb(3,3,3)" stroke-width="1" opacity="1" d="M 386.5 337 Q 389.1 336.2 388 339.5 Q 390.8 341.2 389 347.5 L 388 347.5 L 387 341.5 L 385.5 340 L 371.5 346 L 371.5 345 L 386.5 337 Z " /><path fill="rgb(3,3,3)" stroke="rgb(3,3,3)" stroke-width="1" opacity="1" d="M 413.5 337 L 413 338.5 L 411.5 341 L 412 339.5 L 413.5 337 Z " /><path fill="rgb(3,3,3)" stroke="rgb(3,3,3)" stroke-width="1" opacity="1" d="M 434.5 344 L 435 346.5 L 433 357.5 L 430.5 362 L 430 358.5 L 432 348.5 L 434.5 344 Z " /><path fill="rgb(3,3,3)" stroke="rgb(3,3,3)" stroke-width="1" opacity="1" d="M 414.5 345 L 416 348.5 L 415 348.5 L 414.5 347 L 413 347.5 L 414.5 345 Z " /><path fill="rgb(3,3,3)" stroke="rgb(3,3,3)" stroke-width="1" opacity="1" d="M 412.5 349 L 413 350.5 L 411.5 353 L 411 351.5 L 412.5 349 Z " /><path fill="rgb(3,3,3)" stroke="rgb(3,3,3)" stroke-width="1" opacity="1" d="M 366.5 353 Q 371.8 358.8 370 371.5 L 369 371.5 L 366.5 353 Z " /><path fill="rgb(3,3,3)" stroke="rgb(3,3,3)" stroke-width="1" opacity="1" d="M 401.5 355 L 402 358.5 L 401 358.5 L 401.5 355 Z " /><path fill="rgb(3,3,3)" stroke="rgb(3,3,3)" stroke-width="1" opacity="1" d="M 389 358 L 393 360.5 L 396 367.5 L 392 364.5 L 389 358 Z " /><path fill="rgb(3,3,3)" stroke="rgb(3,3,3)" stroke-width="1" opacity="1" d="M 384.5 359 L 385 365.5 L 381.5 374 L 381 368.5 L 384.5 359 Z " /><path fill="rgb(3,3,3)" stroke="rgb(3,3,3)" stroke-width="1" opacity="1" d="M 350.5 367 L 352 369.5 L 350 368.5 L 350.5 367 Z " /><path fill="rgb(3,3,3)" stroke="rgb(3,3,3)" stroke-width="1" opacity="1" d="M 411.5 371 L 414 372.5 L 412.5 373 L 411.5 371 Z " /><path fill="rgb(3,3,3)" stroke="rgb(3,3,3)" stroke-width="1" opacity="1" d="M 387.5 377 L 393 385.5 L 391.5 386 Q 387 382.8 387.5 377 Z " /></svg>