<svg viewBox="0 0 512 512" version="1.1" xmlns="http://www.w3.org/2000/svg" desc="Created with imagetracer.js version 1.2.6" ><path fill="rgb(254,254,254)" stroke="rgb(254,254,254)" stroke-width="1" opacity="1" d="M 0 0 L 512 0 L 512 512 L 0 512 L 0 0 Z M 279 39 Q 267 41 261 48 Q 238 68 225 97 L 215 126 L 212 143 L 212 150 L 211 151 L 211 165 L 210 166 L 211 206 L 212 207 L 212 217 L 213 218 L 215 244 L 216 245 L 216 254 L 217 255 L 217 269 L 218 270 L 217 274 L 216 303 L 211 332 L 211 338 L 210 339 L 210 345 L 209 346 L 208 365 L 207 366 L 207 389 L 208 390 L 209 409 Q 212 422 219 432 Q 226 441 239 444 Q 254 446 261 439 Q 269 433 273 423 L 276 414 L 277 401 L 278 400 L 277 370 L 275 361 L 274 346 L 273 345 L 273 338 L 272 337 L 272 330 L 268 311 L 271 308 Q 292 300 310 289 Q 325 277 329 255 L 329 236 L 327 227 Q 323 213 315 204 L 308 197 L 306 198 Q 297 206 291 218 Q 286 229 285 246 L 278 261 L 271 266 L 266 247 L 264 236 L 264 227 L 263 226 L 264 200 L 269 175 L 279 147 L 305 89 L 309 68 L 307 54 L 304 48 Q 299 41 291 39 L 279 39 Z " /><path fill="rgb(254,254,254)" stroke="rgb(254,254,254)" stroke-width="1" opacity="1" d="M 278.5 42 Q 296.4 39.6 302 49.5 L 306 61.5 L 306 72.5 L 302 90 L 300 90.5 L 300 92.5 L 299 97 L 296.5 97 L 292 100.5 L 293.5 101 L 297.5 99 L 297 100.5 Q 298.3 104.3 294.5 103 L 290 105 L 290.5 107 L 294.5 105 L 295 106.5 L 294 109 L 288 111.5 L 290.5 112 L 292.5 111 L 292 112.5 L 290.5 115 L 285 117.5 L 288.5 118 L 290 117.5 L 289 121 L 282 123.5 L 285.5 124 L 287 123.5 L 286 127 L 283.5 126 L 280 129.5 L 280 131.5 Q 272.3 144.3 268 160.5 L 269 160.5 L 273 149 Q 276.8 147.5 276 150.5 L 270 164.5 L 264 188.5 L 263 201.5 L 262 202.5 L 262 231.5 L 270 270 L 271.5 270 L 280 261.5 L 287 247.5 L 290 228.5 L 294 217.5 L 306.5 201 L 312 204.5 Q 320.2 213.3 324 226.5 Q 321.5 228 325 229.5 L 324.5 234 L 321.5 226 L 320 233.5 L 322 233.5 L 323 235.5 L 320 239.5 L 321.5 240 L 323 239.5 Q 323.6 244.1 321 245.5 L 323 246 Q 324 251.1 320 252.5 L 322 253 L 322 257 Q 319.3 255.9 320 258.5 L 321 260.5 L 319 265.5 L 324 262.5 L 321.5 267 L 317 270.5 L 318.5 271 L 321 269.5 L 320 273 L 316 275.5 L 318 276.5 L 308.5 287 L 270.5 306 L 267 309.5 L 267 314.5 L 270 325.5 L 273 363.5 L 274 364.5 L 275 400.5 L 274 401.5 L 273 413.5 L 270.5 420 L 268 419.5 L 271 414.5 L 268.5 413 L 265 417.5 L 267 418.5 L 264.5 422 L 263 422.5 L 264 424.5 L 260 427.5 Q 262.8 429.3 258.5 431 L 254.5 434 L 252 434 Q 253.1 436.7 250.5 436 L 246 437.5 L 252.5 439 L 252.5 438 L 251 437.5 L 255.5 436 L 258 437.5 Q 252.5 442.5 241.5 442 Q 229 439.5 222 431.5 Q 214 423 211 409.5 L 210 398.5 L 209 397.5 L 209 388.5 L 208 387.5 L 208 372.5 L 209 371.5 L 210 350.5 L 211 349.5 L 212 336.5 L 213 335.5 L 217 304.5 L 218 303.5 L 218 295.5 L 219 294.5 L 220 261.5 L 219 260.5 L 219 249.5 L 218 248.5 L 216 221.5 L 215 220.5 L 215 210.5 L 214 209.5 L 213 163.5 L 214 162.5 L 215 141.5 L 218 125.5 L 226 101.5 Q 239.4 70.9 262.5 50 L 278.5 42 Z M 271 47 L 269 50 L 272 48 L 271 47 Z M 261 57 L 252 67 L 261 59 L 261 57 Z M 252 67 Q 235 85 225 110 L 226 112 Q 235 87 252 69 L 252 67 Z M 302 73 L 301 76 L 302 76 L 302 73 Z M 302 78 L 299 83 L 302 81 L 302 78 Z M 301 85 L 299 88 L 301 87 L 301 85 Z M 299 91 L 297 94 L 300 92 L 299 91 Z M 225 112 L 224 115 L 225 115 L 225 112 Z M 268 161 L 267 164 L 268 164 L 268 161 Z M 301 210 L 297 218 L 298 220 L 303 211 L 301 210 Z M 315 212 L 314 215 L 315 215 L 315 212 Z M 318 216 L 317 222 L 318 222 L 318 216 Z M 321 221 Q 318 222 319 227 L 321 226 L 321 221 Z M 223 293 L 224 294 L 228 302 L 235 327 L 240 337 Q 244 343 252 345 L 256 345 L 262 342 L 269 332 L 269 330 L 267 333 L 265 334 L 265 336 Q 263 338 258 338 L 261 340 L 260 340 L 259 341 L 255 337 L 253 338 L 254 340 L 257 342 L 252 342 L 250 335 L 249 340 L 251 342 L 249 341 L 246 339 L 246 331 L 244 336 Q 240 334 242 328 L 240 329 Q 237 327 238 323 L 234 316 L 232 307 L 226 295 L 223 293 Z M 255 355 L 253 356 L 249 361 Q 248 367 253 369 L 254 369 L 252 366 Q 251 359 255 358 L 253 361 Q 252 366 255 367 L 257 367 L 255 363 Q 256 360 260 361 L 262 365 L 262 364 L 263 364 L 262 367 L 263 368 Q 267 367 265 360 Q 264 354 255 355 Z M 258 375 L 254 376 L 249 382 Q 248 390 254 392 L 257 392 L 256 391 Q 251 390 252 382 L 257 378 L 262 379 L 264 383 Q 265 387 263 389 L 264 390 L 266 387 L 266 381 L 264 377 L 258 375 Z M 257 379 L 253 383 Q 252 388 256 389 L 259 389 L 258 388 Q 255 387 256 384 L 260 382 Q 262 383 261 387 L 263 386 L 262 380 L 257 379 Z M 272 408 L 270 411 L 272 410 L 272 408 Z M 243 439 L 243 440 L 246 440 L 243 439 Z " /><path fill="rgb(254,254,254)" stroke="rgb(254,254,254)" stroke-width="1" opacity="1" d="M 283.5 129 L 284 131.5 L 281.5 133 L 282 131.5 L 283.5 129 Z " /><path fill="rgb(254,254,254)" stroke="rgb(254,254,254)" stroke-width="1" opacity="1" d="M 281.5 135 L 281 136.5 L 278.5 140 L 278 138.5 L 279 136 L 281.5 135 Z " /><path fill="rgb(254,254,254)" stroke="rgb(254,254,254)" stroke-width="1" opacity="1" d="M 277.5 142 L 279 142.5 L 274.5 148 L 275 146.5 L 277.5 142 Z " /><path fill="rgb(254,254,254)" stroke="rgb(254,254,254)" stroke-width="1" opacity="1" d="M 325.5 235 L 326 239.5 L 324 238.5 L 325.5 235 Z " /><path fill="rgb(254,254,254)" stroke="rgb(254,254,254)" stroke-width="1" opacity="1" d="M 325.5 242 L 326 246.5 L 325 246.5 L 325.5 242 Z " /><path fill="rgb(254,254,254)" stroke="rgb(254,254,254)" stroke-width="1" opacity="1" d="M 325.5 249 L 326 254 Q 322.7 255.3 324 250.5 L 325.5 249 Z " /><path fill="rgb(254,254,254)" stroke="rgb(254,254,254)" stroke-width="1" opacity="1" d="M 325.5 255 L 325 256.5 Q 325.8 260.3 323.5 261 Q 321.3 261.8 322 259.5 L 325.5 255 Z " /><path fill="rgb(254,254,254)" stroke="rgb(254,254,254)" stroke-width="1" opacity="1" d="M 269.5 421 L 270 422.5 L 267.5 426 Q 264.2 427.1 265 424.5 L 269.5 421 Z " /><path fill="rgb(254,254,254)" stroke="rgb(254,254,254)" stroke-width="1" opacity="1" d="M 266.5 427 L 266 428.5 L 264.5 431 L 261 430.5 L 266.5 427 Z " /><path fill="rgb(254,254,254)" stroke="rgb(254,254,254)" stroke-width="1" opacity="1" d="M 258.5 433 L 262 433.5 L 258.5 436 L 256 434.5 L 258.5 433 Z " /><path fill="rgb(173,173,173)" stroke="rgb(173,173,173)" stroke-width="1" opacity="1" d="M 283.5 41 L 286 41.5 L 283.5 42 L 283.5 41 Z " /><path fill="rgb(173,173,173)" stroke="rgb(173,173,173)" stroke-width="1" opacity="1" d="M 261.5 56 L 261 57.5 L 257.5 62 L 252.5 66 L 261.5 56 Z " /><path fill="rgb(173,173,173)" stroke="rgb(173,173,173)" stroke-width="1" opacity="1" d="M 308.5 65 L 309 67.5 L 308 67.5 L 308.5 65 Z " /><path fill="rgb(173,173,173)" stroke="rgb(173,173,173)" stroke-width="1" opacity="1" d="M 301.5 73 L 302 75.5 L 301 75.5 L 301.5 73 Z " /><path fill="rgb(173,173,173)" stroke="rgb(173,173,173)" stroke-width="1" opacity="1" d="M 293.5 99 L 294 101 L 292 100.5 L 293.5 99 Z " /><path fill="rgb(173,173,173)" stroke="rgb(173,173,173)" stroke-width="1" opacity="1" d="M 224.5 114 L 224 115.5 L 223.5 117 L 223 115.5 L 224.5 114 Z " /><path fill="rgb(173,173,173)" stroke="rgb(173,173,173)" stroke-width="1" opacity="1" d="M 214.5 147 L 215 149.5 L 214 149.5 L 214.5 147 Z " /><path fill="rgb(173,173,173)" stroke="rgb(173,173,173)" stroke-width="1" opacity="1" d="M 276.5 147 L 277 149 L 274 148.5 L 276.5 147 Z " /><path fill="rgb(173,173,173)" stroke="rgb(173,173,173)" stroke-width="1" opacity="1" d="M 211.5 150 L 212 152.5 L 211 152.5 L 211.5 150 Z " /><path fill="rgb(173,173,173)" stroke="rgb(173,173,173)" stroke-width="1" opacity="1" d="M 213.5 159 L 214 162.5 L 213 162.5 L 213.5 159 Z " /><path fill="rgb(173,173,173)" stroke="rgb(173,173,173)" stroke-width="1" opacity="1" d="M 267.5 161 L 268 163.5 L 267 163.5 L 267.5 161 Z " /><path fill="rgb(173,173,173)" stroke="rgb(173,173,173)" stroke-width="1" opacity="1" d="M 210.5 165 L 211 188.5 L 210 188.5 L 210.5 165 Z " /><path fill="rgb(173,173,173)" stroke="rgb(173,173,173)" stroke-width="1" opacity="1" d="M 213.5 194 L 214 198.5 L 213 198.5 L 213.5 194 Z " /><path fill="rgb(173,173,173)" stroke="rgb(173,173,173)" stroke-width="1" opacity="1" d="M 211.5 202 L 212 205.5 L 211 205.5 L 211.5 202 Z " /><path fill="rgb(173,173,173)" stroke="rgb(173,173,173)" stroke-width="1" opacity="1" d="M 262.5 202 L 263 204.5 L 262 204.5 L 262.5 202 Z " /><path fill="rgb(173,173,173)" stroke="rgb(173,173,173)" stroke-width="1" opacity="1" d="M 263.5 206 L 264 208.5 L 263 208.5 L 263.5 206 Z " /><path fill="rgb(173,173,173)" stroke="rgb(173,173,173)" stroke-width="1" opacity="1" d="M 214.5 210 L 215 212.5 L 214 212.5 L 214.5 210 Z " /><path fill="rgb(173,173,173)" stroke="rgb(173,173,173)" stroke-width="1" opacity="1" d="M 314.5 212 L 315 214.5 L 314 214.5 L 314.5 212 Z " /><path fill="rgb(173,173,173)" stroke="rgb(173,173,173)" stroke-width="1" opacity="1" d="M 320.5 221 L 320 222.5 L 319.5 224 L 319 222.5 L 320.5 221 Z " /><path fill="rgb(173,173,173)" stroke="rgb(173,173,173)" stroke-width="1" opacity="1" d="M 263.5 226 L 264 228.5 L 263 228.5 L 263.5 226 Z " /><path fill="rgb(173,173,173)" stroke="rgb(173,173,173)" stroke-width="1" opacity="1" d="M 264.5 236 L 265 237.5 L 263 238.5 L 264.5 236 Z " /><path fill="rgb(173,173,173)" stroke="rgb(173,173,173)" stroke-width="1" opacity="1" d="M 324.5 239 Q 328.3 240.3 327 246.5 L 327 248.5 L 326.5 250 L 326 248 Q 322.7 249.3 324 244.5 L 325 244.5 L 325.5 247 L 326 241 Q 322.8 242 324.5 239 Z " /><path fill="rgb(173,173,173)" stroke="rgb(173,173,173)" stroke-width="1" opacity="1" d="M 265.5 242 L 265 243.5 L 264.5 245 L 264 243.5 L 265.5 242 Z " /><path fill="rgb(173,173,173)" stroke="rgb(173,173,173)" stroke-width="1" opacity="1" d="M 216.5 251 L 217 253.5 L 216 253.5 L 216.5 251 Z " /><path fill="rgb(173,173,173)" stroke="rgb(173,173,173)" stroke-width="1" opacity="1" d="M 320.5 252 Q 323.8 250.9 323 253.5 L 323.5 255 L 320.5 252 Z " /><path fill="rgb(173,173,173)" stroke="rgb(173,173,173)" stroke-width="1" opacity="1" d="M 219.5 261 L 220 265.5 L 219 265.5 L 219.5 261 Z " /><path fill="rgb(173,173,173)" stroke="rgb(173,173,173)" stroke-width="1" opacity="1" d="M 275.5 263 L 272.5 267 L 271 266.5 L 275.5 263 Z " /><path fill="rgb(173,173,173)" stroke="rgb(173,173,173)" stroke-width="1" opacity="1" d="M 217.5 264 L 218 268.5 L 217 268.5 L 217.5 264 Z " /><path fill="rgb(173,173,173)" stroke="rgb(173,173,173)" stroke-width="1" opacity="1" d="M 320.5 267 L 322 269.5 L 321 269.5 L 320.5 267 Z " /><path fill="rgb(173,173,173)" stroke="rgb(173,173,173)" stroke-width="1" opacity="1" d="M 217.5 273 L 218 282.5 L 217 282.5 L 217.5 273 Z " /><path fill="rgb(173,173,173)" stroke="rgb(173,173,173)" stroke-width="1" opacity="1" d="M 219.5 279 L 220 282.5 L 219 282.5 L 219.5 279 Z " /><path fill="rgb(173,173,173)" stroke="rgb(173,173,173)" stroke-width="1" opacity="1" d="M 216.5 293 L 217 295.5 L 216 295.5 L 216.5 293 Z " /><path fill="rgb(173,173,173)" stroke="rgb(173,173,173)" stroke-width="1" opacity="1" d="M 268.5 312 L 268 313.5 L 267.5 315 L 267 313.5 L 268.5 312 Z " /><path fill="rgb(173,173,173)" stroke="rgb(173,173,173)" stroke-width="1" opacity="1" d="M 269.5 317 L 270 319 L 268 318.5 L 269.5 317 Z " /><path fill="rgb(173,173,173)" stroke="rgb(173,173,173)" stroke-width="1" opacity="1" d="M 268.5 330 L 269 332 L 267 331.5 L 268.5 330 Z " /><path fill="rgb(173,173,173)" stroke="rgb(173,173,173)" stroke-width="1" opacity="1" d="M 245.5 331 L 246 333 L 244 332.5 L 245.5 331 Z " /><path fill="rgb(173,173,173)" stroke="rgb(173,173,173)" stroke-width="1" opacity="1" d="M 245.5 337 L 248 340.5 L 245 338.5 L 245.5 337 Z " /><path fill="rgb(173,173,173)" stroke="rgb(173,173,173)" stroke-width="1" opacity="1" d="M 253.5 337 L 256 338.5 L 254 339.5 L 254.5 338 L 253.5 337 Z " /><path fill="rgb(173,173,173)" stroke="rgb(173,173,173)" stroke-width="1" opacity="1" d="M 262.5 337 L 261.5 339 L 260 338.5 L 262.5 337 Z " /><path fill="rgb(173,173,173)" stroke="rgb(173,173,173)" stroke-width="1" opacity="1" d="M 253.5 344 L 256 344.5 L 253.5 345 L 253.5 344 Z " /><path fill="rgb(173,173,173)" stroke="rgb(173,173,173)" stroke-width="1" opacity="1" d="M 208.5 353 L 210 357.5 L 209 357.5 L 208.5 353 Z " /><path fill="rgb(173,173,173)" stroke="rgb(173,173,173)" stroke-width="1" opacity="1" d="M 256.5 357 L 258 357.5 L 255.5 359 L 256.5 357 Z " /><path fill="rgb(173,173,173)" stroke="rgb(173,173,173)" stroke-width="1" opacity="1" d="M 207.5 365 Q 209.8 366.8 209 371.5 L 208 371.5 L 207.5 365 Z " /><path fill="rgb(173,173,173)" stroke="rgb(173,173,173)" stroke-width="1" opacity="1" d="M 253.5 365 L 254.5 367 L 252 366.5 L 253.5 365 Z " /><path fill="rgb(173,173,173)" stroke="rgb(173,173,173)" stroke-width="1" opacity="1" d="M 274.5 372 L 275 375.5 L 274 375.5 L 274.5 372 Z " /><path fill="rgb(173,173,173)" stroke="rgb(173,173,173)" stroke-width="1" opacity="1" d="M 277.5 381 L 278 384.5 L 277 384.5 L 277.5 381 Z " /><path fill="rgb(173,173,173)" stroke="rgb(173,173,173)" stroke-width="1" opacity="1" d="M 251.5 383 L 252 385.5 L 251 385.5 L 251.5 383 Z " /><path fill="rgb(173,173,173)" stroke="rgb(173,173,173)" stroke-width="1" opacity="1" d="M 207.5 385 L 209 389.5 L 207 388.5 L 207.5 385 Z " /><path fill="rgb(173,173,173)" stroke="rgb(173,173,173)" stroke-width="1" opacity="1" d="M 261 385 L 263 385.5 L 261 386.5 L 261 385 Z " /><path fill="rgb(173,173,173)" stroke="rgb(173,173,173)" stroke-width="1" opacity="1" d="M 277.5 396 L 278 399.5 L 277 399.5 L 277.5 396 Z " /><path fill="rgb(173,173,173)" stroke="rgb(173,173,173)" stroke-width="1" opacity="1" d="M 274.5 401 L 275 403.5 L 274 403.5 L 274.5 401 Z " /><path fill="rgb(173,173,173)" stroke="rgb(173,173,173)" stroke-width="1" opacity="1" d="M 268.5 413 L 269.5 415 L 267.5 416 L 268 414.5 L 268.5 413 Z " /><path fill="rgb(173,173,173)" stroke="rgb(173,173,173)" stroke-width="1" opacity="1" d="M 256.5 436 L 259 436.5 L 256.5 437 L 256.5 436 Z " /><path fill="rgb(67,67,67)" stroke="rgb(67,67,67)" stroke-width="1" opacity="1" d="M 281.5 39 L 288 39.5 L 281.5 40 L 281.5 39 Z " /><path fill="rgb(67,67,67)" stroke="rgb(67,67,67)" stroke-width="1" opacity="1" d="M 306.5 64 L 307 68.5 L 306 68.5 L 306.5 64 Z " /><path fill="rgb(67,67,67)" stroke="rgb(67,67,67)" stroke-width="1" opacity="1" d="M 248.5 71 L 246 74.5 L 245.5 76 L 245 74.5 L 248.5 71 Z " /><path fill="rgb(67,67,67)" stroke="rgb(67,67,67)" stroke-width="1" opacity="1" d="M 235.5 89 L 236 90.5 L 234.5 93 L 234 91.5 L 235.5 89 Z " /><path fill="rgb(67,67,67)" stroke="rgb(67,67,67)" stroke-width="1" opacity="1" d="M 299.5 91 L 298.5 93 L 296.5 94 L 297.5 92 L 299.5 91 Z " /><path fill="rgb(67,67,67)" stroke="rgb(67,67,67)" stroke-width="1" opacity="1" d="M 299.5 96 L 298.5 98 L 297 97.5 L 299.5 96 Z " /><path fill="rgb(67,67,67)" stroke="rgb(67,67,67)" stroke-width="1" opacity="1" d="M 293.5 104 L 292.5 106 L 291 105.5 L 293.5 104 Z " /><path fill="rgb(67,67,67)" stroke="rgb(67,67,67)" stroke-width="1" opacity="1" d="M 294.5 108 L 295.5 110 L 294 109.5 L 295 111.5 L 293.5 111 L 292 110.5 L 294.5 108 Z " /><path fill="rgb(67,67,67)" stroke="rgb(67,67,67)" stroke-width="1" opacity="1" d="M 275.5 142 L 276 143.5 L 274 144.5 L 275.5 142 Z " /><path fill="rgb(67,67,67)" stroke="rgb(67,67,67)" stroke-width="1" opacity="1" d="M 212.5 145 L 213 147.5 L 212 147.5 L 212.5 145 Z " /><path fill="rgb(67,67,67)" stroke="rgb(67,67,67)" stroke-width="1" opacity="1" d="M 272.5 149 L 273 150.5 L 271.5 153 L 271 151.5 L 272.5 149 Z " /><path fill="rgb(67,67,67)" stroke="rgb(67,67,67)" stroke-width="1" opacity="1" d="M 213.5 153 L 214 155.5 L 213 155.5 L 213.5 153 Z " /><path fill="rgb(67,67,67)" stroke="rgb(67,67,67)" stroke-width="1" opacity="1" d="M 211.5 156 L 212 158.5 L 211 158.5 L 211.5 156 Z " /><path fill="rgb(67,67,67)" stroke="rgb(67,67,67)" stroke-width="1" opacity="1" d="M 212.5 171 L 213 184.5 L 212 184.5 L 212.5 171 Z " /><path fill="rgb(67,67,67)" stroke="rgb(67,67,67)" stroke-width="1" opacity="1" d="M 211.5 196 L 212 199.5 L 211 199.5 L 211.5 196 Z " /><path fill="rgb(67,67,67)" stroke="rgb(67,67,67)" stroke-width="1" opacity="1" d="M 263.5 201 L 264 203.5 L 263 203.5 L 263.5 201 Z " /><path fill="rgb(67,67,67)" stroke="rgb(67,67,67)" stroke-width="1" opacity="1" d="M 213.5 202 L 214 204.5 L 213 204.5 L 213.5 202 Z " /><path fill="rgb(67,67,67)" stroke="rgb(67,67,67)" stroke-width="1" opacity="1" d="M 262.5 208 L 263 227.5 L 262 227.5 L 262.5 208 Z " /><path fill="rgb(67,67,67)" stroke="rgb(67,67,67)" stroke-width="1" opacity="1" d="M 212.5 210 L 213 212.5 L 212 212.5 L 212.5 210 Z " /><path fill="rgb(67,67,67)" stroke="rgb(67,67,67)" stroke-width="1" opacity="1" d="M 302.5 210 L 301 212.5 L 300.5 214 L 300 212.5 L 302.5 210 Z " /><path fill="rgb(67,67,67)" stroke="rgb(67,67,67)" stroke-width="1" opacity="1" d="M 214.5 215 L 215 217.5 L 214 217.5 L 214.5 215 Z " /><path fill="rgb(67,67,67)" stroke="rgb(67,67,67)" stroke-width="1" opacity="1" d="M 317.5 217 L 318 219.5 L 317 219.5 L 317.5 217 Z " /><path fill="rgb(67,67,67)" stroke="rgb(67,67,67)" stroke-width="1" opacity="1" d="M 213.5 220 L 214 222.5 L 213 222.5 L 213.5 220 Z " /><path fill="rgb(67,67,67)" stroke="rgb(67,67,67)" stroke-width="1" opacity="1" d="M 320.5 224 L 320 225.5 L 319.5 227 L 319 225.5 L 320.5 224 Z " /><path fill="rgb(67,67,67)" stroke="rgb(67,67,67)" stroke-width="1" opacity="1" d="M 215.5 225 L 216 227.5 L 215 227.5 L 215.5 225 Z " /><path fill="rgb(67,67,67)" stroke="rgb(67,67,67)" stroke-width="1" opacity="1" d="M 322.5 228 L 323 232.5 L 322 232.5 L 321 230.5 L 322.5 228 Z " /><path fill="rgb(67,67,67)" stroke="rgb(67,67,67)" stroke-width="1" opacity="1" d="M 263.5 232 L 264 235.5 L 263 235.5 L 263.5 232 Z " /><path fill="rgb(67,67,67)" stroke="rgb(67,67,67)" stroke-width="1" opacity="1" d="M 323.5 238 L 324 241 L 326.5 240 L 325.5 242 Q 320.8 243.2 323.5 238 Z " /><path fill="rgb(67,67,67)" stroke="rgb(67,67,67)" stroke-width="1" opacity="1" d="M 328.5 238 L 329 240.5 L 328 240.5 L 328.5 238 Z " /><path fill="rgb(67,67,67)" stroke="rgb(67,67,67)" stroke-width="1" opacity="1" d="M 264.5 239 L 265 241.5 L 264 241.5 L 264.5 239 Z " /><path fill="rgb(67,67,67)" stroke="rgb(67,67,67)" stroke-width="1" opacity="1" d="M 217.5 243 L 218 245.5 L 217 245.5 L 217.5 243 Z " /><path fill="rgb(67,67,67)" stroke="rgb(67,67,67)" stroke-width="1" opacity="1" d="M 265.5 244 L 266 247.5 L 265 247.5 L 265.5 244 Z " /><path fill="rgb(67,67,67)" stroke="rgb(67,67,67)" stroke-width="1" opacity="1" d="M 323.5 246 L 324 248 L 326 248.5 Q 324.5 251.5 323 248.5 L 323.5 246 Z " /><path fill="rgb(67,67,67)" stroke="rgb(67,67,67)" stroke-width="1" opacity="1" d="M 328.5 248 L 329 250.5 L 328 250.5 L 328.5 248 Z " /><path fill="rgb(67,67,67)" stroke="rgb(67,67,67)" stroke-width="1" opacity="1" d="M 322.5 250 L 324 252.5 L 322.5 252 L 321 251.5 L 322.5 250 Z " /><path fill="rgb(67,67,67)" stroke="rgb(67,67,67)" stroke-width="1" opacity="1" d="M 218.5 253 L 219 256.5 L 217.5 260 L 217 257.5 L 218.5 253 Z " /><path fill="rgb(67,67,67)" stroke="rgb(67,67,67)" stroke-width="1" opacity="1" d="M 322.5 255 L 325 255.5 L 322.5 256 L 322.5 255 Z " /><path fill="rgb(67,67,67)" stroke="rgb(67,67,67)" stroke-width="1" opacity="1" d="M 277.5 263 L 272.5 269 L 270 267.5 L 271.5 267 L 272.5 268 L 277.5 263 Z " /><path fill="rgb(67,67,67)" stroke="rgb(67,67,67)" stroke-width="1" opacity="1" d="M 320.5 272 L 320 273.5 L 321 275.5 L 319 274.5 L 320.5 272 Z " /><path fill="rgb(67,67,67)" stroke="rgb(67,67,67)" stroke-width="1" opacity="1" d="M 315.5 280 L 317 281.5 L 311.5 287 L 309 286.5 L 314 283.5 Q 311.2 281.8 315.5 280 Z " /><path fill="rgb(67,67,67)" stroke="rgb(67,67,67)" stroke-width="1" opacity="1" d="M 217.5 287 L 219 290.5 L 217 289.5 L 217.5 287 Z " /><path fill="rgb(67,67,67)" stroke="rgb(67,67,67)" stroke-width="1" opacity="1" d="M 223.5 293 L 227 297.5 L 226 297.5 L 223.5 293 Z " /><path fill="rgb(67,67,67)" stroke="rgb(67,67,67)" stroke-width="1" opacity="1" d="M 273.5 305 L 272.5 307 L 270.5 308 L 271.5 306 L 273.5 305 Z " /><path fill="rgb(67,67,67)" stroke="rgb(67,67,67)" stroke-width="1" opacity="1" d="M 268.5 308 L 268 309.5 L 267.5 312 L 267 309.5 L 268.5 308 Z " /><path fill="rgb(67,67,67)" stroke="rgb(67,67,67)" stroke-width="1" opacity="1" d="M 268.5 314 L 269 316.5 L 268 316.5 L 268.5 314 Z " /><path fill="rgb(67,67,67)" stroke="rgb(67,67,67)" stroke-width="1" opacity="1" d="M 214.5 319 L 215 320.5 L 213 321.5 L 214.5 319 Z " /><path fill="rgb(67,67,67)" stroke="rgb(67,67,67)" stroke-width="1" opacity="1" d="M 213.5 325 L 214 326.5 L 212.5 329 L 212 327.5 L 213.5 325 Z " /><path fill="rgb(67,67,67)" stroke="rgb(67,67,67)" stroke-width="1" opacity="1" d="M 267.5 332 L 267 333.5 L 265.5 337 L 265 335.5 L 267.5 332 Z " /><path fill="rgb(67,67,67)" stroke="rgb(67,67,67)" stroke-width="1" opacity="1" d="M 271.5 332 L 272 334.5 L 271 334.5 L 271.5 332 Z " /><path fill="rgb(67,67,67)" stroke="rgb(67,67,67)" stroke-width="1" opacity="1" d="M 244.5 334 L 245 337.5 L 244 337.5 L 244.5 334 Z " /><path fill="rgb(67,67,67)" stroke="rgb(67,67,67)" stroke-width="1" opacity="1" d="M 271.5 337 L 273 341.5 L 272 341.5 L 271.5 337 Z " /><path fill="rgb(67,67,67)" stroke="rgb(67,67,67)" stroke-width="1" opacity="1" d="M 249.5 338 L 252 342.5 L 251 342.5 L 249.5 338 Z " /><path fill="rgb(67,67,67)" stroke="rgb(67,67,67)" stroke-width="1" opacity="1" d="M 209.5 348 L 210 350.5 L 209 350.5 L 209.5 348 Z " /><path fill="rgb(67,67,67)" stroke="rgb(67,67,67)" stroke-width="1" opacity="1" d="M 274.5 356 L 275 357.5 L 273.5 360 L 273 357.5 L 274.5 356 Z " /><path fill="rgb(67,67,67)" stroke="rgb(67,67,67)" stroke-width="1" opacity="1" d="M 208.5 358 L 209 364.5 L 208 364.5 L 208.5 358 Z " /><path fill="rgb(67,67,67)" stroke="rgb(67,67,67)" stroke-width="1" opacity="1" d="M 263.5 362 L 265 364.5 L 263 365 L 263.5 362 Z " /><path fill="rgb(67,67,67)" stroke="rgb(67,67,67)" stroke-width="1" opacity="1" d="M 251.5 367 L 254 368.5 L 252.5 368 L 251.5 367 Z " /><path fill="rgb(67,67,67)" stroke="rgb(67,67,67)" stroke-width="1" opacity="1" d="M 274.5 367 L 275 369.5 L 274 369.5 L 274.5 367 Z " /><path fill="rgb(67,67,67)" stroke="rgb(67,67,67)" stroke-width="1" opacity="1" d="M 276.5 374 L 277 376.5 L 276 376.5 L 276.5 374 Z " /><path fill="rgb(67,67,67)" stroke="rgb(67,67,67)" stroke-width="1" opacity="1" d="M 261.5 378 Q 263.3 381.1 265 379.5 L 263.5 381 L 261.5 378 Z " /><path fill="rgb(67,67,67)" stroke="rgb(67,67,67)" stroke-width="1" opacity="1" d="M 275.5 381 L 276 396.5 L 275 396.5 L 275.5 381 Z " /><path fill="rgb(67,67,67)" stroke="rgb(67,67,67)" stroke-width="1" opacity="1" d="M 265.5 382 L 266 384.5 L 264.5 388 L 264 383.5 L 265.5 382 Z " /><path fill="rgb(67,67,67)" stroke="rgb(67,67,67)" stroke-width="1" opacity="1" d="M 208.5 393 L 209 397.5 L 208 397.5 L 208.5 393 Z " /><path fill="rgb(67,67,67)" stroke="rgb(67,67,67)" stroke-width="1" opacity="1" d="M 209.5 402 L 210 406.5 L 209 406.5 L 209.5 402 Z " /><path fill="rgb(67,67,67)" stroke="rgb(67,67,67)" stroke-width="1" opacity="1" d="M 276.5 403 L 277 405.5 L 276 405.5 L 276.5 403 Z " /><path fill="rgb(67,67,67)" stroke="rgb(67,67,67)" stroke-width="1" opacity="1" d="M 270.5 414 L 269.5 416 L 268 415.5 L 270.5 414 Z " /><path fill="rgb(67,67,67)" stroke="rgb(67,67,67)" stroke-width="1" opacity="1" d="M 265.5 426 L 268 427.5 L 266.5 427 L 264.5 428 L 265.5 426 Z " /><path fill="rgb(67,67,67)" stroke="rgb(67,67,67)" stroke-width="1" opacity="1" d="M 256.5 433 L 256.5 436 L 254.5 436 L 251.5 437 L 252.5 435 L 256.5 433 Z " /><path fill="rgb(131,131,131)" stroke="rgb(131,131,131)" stroke-width="1" opacity="1" d="M 250.5 69 L 249.5 71 L 248 70.5 L 250.5 69 Z " /><path fill="rgb(131,131,131)" stroke="rgb(131,131,131)" stroke-width="1" opacity="1" d="M 301.5 79 L 301 80.5 L 300.5 82 L 300 80.5 L 301.5 79 Z " /><path fill="rgb(131,131,131)" stroke="rgb(131,131,131)" stroke-width="1" opacity="1" d="M 295.5 103 L 296 105.5 L 295 105.5 L 295.5 103 Z " /><path fill="rgb(131,131,131)" stroke="rgb(131,131,131)" stroke-width="1" opacity="1" d="M 225.5 110 L 226 111.5 L 224.5 114 L 224 112.5 L 225.5 110 Z " /><path fill="rgb(131,131,131)" stroke="rgb(131,131,131)" stroke-width="1" opacity="1" d="M 287.5 121 L 288 123.5 L 287 123.5 L 287.5 121 Z " /><path fill="rgb(131,131,131)" stroke="rgb(131,131,131)" stroke-width="1" opacity="1" d="M 211.5 153 L 212 155.5 L 211 155.5 L 211.5 153 Z " /><path fill="rgb(131,131,131)" stroke="rgb(131,131,131)" stroke-width="1" opacity="1" d="M 213.5 156 L 214 158.5 L 213 158.5 L 213.5 156 Z " /><path fill="rgb(131,131,131)" stroke="rgb(131,131,131)" stroke-width="1" opacity="1" d="M 213.5 199 L 214 201.5 L 213 201.5 L 213.5 199 Z " /><path fill="rgb(131,131,131)" stroke="rgb(131,131,131)" stroke-width="1" opacity="1" d="M 263.5 204 L 264 205.5 L 262.5 208 L 262 205.5 L 263.5 204 Z " /><path fill="rgb(131,131,131)" stroke="rgb(131,131,131)" stroke-width="1" opacity="1" d="M 262.5 228 L 264 231.5 L 263 231.5 L 262.5 228 Z " /><path fill="rgb(131,131,131)" stroke="rgb(131,131,131)" stroke-width="1" opacity="1" d="M 321 238 L 323 238.5 L 321 239.5 L 321 238 Z " /><path fill="rgb(131,131,131)" stroke="rgb(131,131,131)" stroke-width="1" opacity="1" d="M 323.5 253 L 326 254.5 L 324.5 255 L 322 254.5 L 323.5 253 Z " /><path fill="rgb(131,131,131)" stroke="rgb(131,131,131)" stroke-width="1" opacity="1" d="M 323.5 256 L 322 258.5 L 323 261.5 L 321 260.5 L 320 258.5 L 323.5 256 Z " /><path fill="rgb(131,131,131)" stroke="rgb(131,131,131)" stroke-width="1" opacity="1" d="M 217.5 260 L 218 263.5 L 217 263.5 L 217.5 260 Z " /><path fill="rgb(131,131,131)" stroke="rgb(131,131,131)" stroke-width="1" opacity="1" d="M 219.5 266 L 220 278.5 L 219 278.5 L 219.5 266 Z " /><path fill="rgb(131,131,131)" stroke="rgb(131,131,131)" stroke-width="1" opacity="1" d="M 217.5 283 L 218 286.5 L 217 286.5 L 217.5 283 Z " /><path fill="rgb(131,131,131)" stroke="rgb(131,131,131)" stroke-width="1" opacity="1" d="M 214.5 312 L 216 315.5 L 215 315.5 L 214.5 312 Z " /><path fill="rgb(131,131,131)" stroke="rgb(131,131,131)" stroke-width="1" opacity="1" d="M 241.5 327 L 242 331 Q 239.3 332.1 240 329.5 L 241.5 327 Z " /><path fill="rgb(131,131,131)" stroke="rgb(131,131,131)" stroke-width="1" opacity="1" d="M 244.5 333 Q 247.5 332.1 246 336.5 L 245 336.5 L 244.5 333 Z " /><path fill="rgb(131,131,131)" stroke="rgb(131,131,131)" stroke-width="1" opacity="1" d="M 272.5 339 L 272 340.5 L 271.5 342 L 271 340.5 L 272.5 339 Z " /><path fill="rgb(131,131,131)" stroke="rgb(131,131,131)" stroke-width="1" opacity="1" d="M 252.5 342 L 255 342.5 L 252.5 343 L 252.5 342 Z " /><path fill="rgb(131,131,131)" stroke="rgb(131,131,131)" stroke-width="1" opacity="1" d="M 209.5 354 L 210 355.5 L 208.5 358 L 208 356.5 L 209.5 354 Z " /><path fill="rgb(131,131,131)" stroke="rgb(131,131,131)" stroke-width="1" opacity="1" d="M 258.5 357 L 261 358.5 L 259.5 359 L 258.5 357 Z " /><path fill="rgb(131,131,131)" stroke="rgb(131,131,131)" stroke-width="1" opacity="1" d="M 249.5 361 L 250 363.5 L 249 363.5 L 249.5 361 Z " /><path fill="rgb(131,131,131)" stroke="rgb(131,131,131)" stroke-width="1" opacity="1" d="M 207.5 369 L 208 375.5 L 207 375.5 L 207.5 369 Z " /><path fill="rgb(131,131,131)" stroke="rgb(131,131,131)" stroke-width="1" opacity="1" d="M 276.5 371 L 277 373.5 L 276 373.5 L 276.5 371 Z " /><path fill="rgb(131,131,131)" stroke="rgb(131,131,131)" stroke-width="1" opacity="1" d="M 207.5 377 L 208 384.5 L 207 384.5 L 207.5 377 Z " /><path fill="rgb(131,131,131)" stroke="rgb(131,131,131)" stroke-width="1" opacity="1" d="M 260.5 378 L 259.5 380 L 257 379.5 L 260.5 378 Z " /><path fill="rgb(131,131,131)" stroke="rgb(131,131,131)" stroke-width="1" opacity="1" d="M 277.5 385 L 278 395.5 L 277 395.5 L 277.5 385 Z " /><path fill="rgb(131,131,131)" stroke="rgb(131,131,131)" stroke-width="1" opacity="1" d="M 208.5 390 L 209 392.5 L 208 392.5 L 208.5 390 Z " /><path fill="rgb(131,131,131)" stroke="rgb(131,131,131)" stroke-width="1" opacity="1" d="M 208.5 398 L 210 401.5 L 208 400.5 L 208.5 398 Z " /><path fill="rgb(131,131,131)" stroke="rgb(131,131,131)" stroke-width="1" opacity="1" d="M 260.5 430 L 263.5 432 L 265 431.5 Q 263.8 434.3 258.5 433 L 257.5 431 L 260 432 L 260.5 430 Z " /><path fill="rgb(131,131,131)" stroke="rgb(131,131,131)" stroke-width="1" opacity="1" d="M 250.5 436 L 252 438.5 L 250 439 L 250.5 436 Z " /><path fill="rgb(5,5,5)" stroke="rgb(5,5,5)" stroke-width="1" opacity="1" d="M 277.5 40 L 291.5 40 Q 298.9 42.1 303 47.5 Q 309.1 55.9 308 71.5 L 306 82.5 L 301 97.5 L 280.5 142 L 280 139.5 L 283 134.5 L 282.5 133 Q 284.8 133.8 284 131.5 L 286 128.5 L 285.5 127 Q 288.1 127.8 287 124.5 L 302 91.5 L 306 76.5 L 307 64.5 L 304 51.5 L 298.5 45 L 289.5 41 L 279.5 41 Q 260.9 46.4 251 60.5 Q 229.4 84.4 219 119.5 L 216 131.5 L 214 152.5 L 213 153.5 L 212 184.5 L 213 185.5 L 214 217.5 L 215 218.5 L 215 227.5 L 216 228.5 L 218 256.5 L 219 257.5 L 219 287.5 L 218 287.5 L 218 257.5 L 217 256.5 L 217 247.5 L 216 246.5 L 213 210.5 L 212 209.5 L 212 196.5 L 211 195.5 L 211 159.5 L 212 158.5 L 212 148.5 L 213 147.5 L 213 139.5 L 215 128.5 L 224 100.5 Q 237.6 69.1 261.5 48 L 277.5 40 Z " /><path fill="rgb(5,5,5)" stroke="rgb(5,5,5)" stroke-width="1" opacity="1" d="M 279.5 143 L 280 144.5 L 277.5 149 L 277 146.5 L 279.5 143 Z " /><path fill="rgb(5,5,5)" stroke="rgb(5,5,5)" stroke-width="1" opacity="1" d="M 276.5 150 L 277 151.5 L 274.5 157 L 274 154.5 L 276.5 150 Z " /><path fill="rgb(5,5,5)" stroke="rgb(5,5,5)" stroke-width="1" opacity="1" d="M 306.5 198 L 315 204.5 Q 323.2 214.2 327 228.5 L 329 247.5 L 328 248.5 L 328 256.5 L 324 269.5 Q 318.8 281.8 308.5 289 L 286.5 300 L 286.5 299 Q 304.5 293 316 280.5 Q 328.7 265.7 327 236.5 Q 324.6 221.9 318 211.5 L 307.5 200 L 303 203.5 L 292 220.5 L 284 253.5 Q 279.7 263.2 271.5 269 L 278 261.5 L 285 247.5 L 290 221.5 Q 295.8 207.3 306.5 198 Z " /><path fill="rgb(5,5,5)" stroke="rgb(5,5,5)" stroke-width="1" opacity="1" d="M 323.5 235 L 324 238 L 322 237.5 L 323.5 235 Z " /><path fill="rgb(5,5,5)" stroke="rgb(5,5,5)" stroke-width="1" opacity="1" d="M 324.5 242 L 324 243.5 Q 324.8 245.8 322.5 245 L 324.5 242 Z " /><path fill="rgb(5,5,5)" stroke="rgb(5,5,5)" stroke-width="1" opacity="1" d="M 217.5 290 L 218 297.5 L 217 297.5 L 217.5 290 Z " /><path fill="rgb(5,5,5)" stroke="rgb(5,5,5)" stroke-width="1" opacity="1" d="M 227.5 298 L 229 301.5 L 228 301.5 L 227.5 298 Z " /><path fill="rgb(5,5,5)" stroke="rgb(5,5,5)" stroke-width="1" opacity="1" d="M 216.5 300 L 217 305.5 L 216 305.5 L 216.5 300 Z " /><path fill="rgb(5,5,5)" stroke="rgb(5,5,5)" stroke-width="1" opacity="1" d="M 229.5 303 L 235 320.5 L 238 324.5 L 239 331 Q 242 329.8 241 333.5 L 248.5 342 L 255.5 343 L 260.5 341 L 264.5 337 L 260.5 342 Q 257.2 345.2 249.5 344 L 243 339.5 L 236 327.5 L 229 305.5 L 229.5 303 Z " /><path fill="rgb(5,5,5)" stroke="rgb(5,5,5)" stroke-width="1" opacity="1" d="M 215.5 308 L 216 312.5 L 215 312.5 L 215.5 308 Z " /><path fill="rgb(5,5,5)" stroke="rgb(5,5,5)" stroke-width="1" opacity="1" d="M 214.5 315 L 215 318.5 L 214 318.5 L 214.5 315 Z " /><path fill="rgb(5,5,5)" stroke="rgb(5,5,5)" stroke-width="1" opacity="1" d="M 213.5 322 L 214 324.5 L 213 324.5 L 213.5 322 Z " /><path fill="rgb(5,5,5)" stroke="rgb(5,5,5)" stroke-width="1" opacity="1" d="M 212.5 329 L 213 331.5 L 212 331.5 L 212.5 329 Z " /><path fill="rgb(5,5,5)" stroke="rgb(5,5,5)" stroke-width="1" opacity="1" d="M 272.5 342 L 273 346.5 L 272 346.5 L 272.5 342 Z " /><path fill="rgb(5,5,5)" stroke="rgb(5,5,5)" stroke-width="1" opacity="1" d="M 273.5 350 L 274 356.5 L 273 356.5 L 273.5 350 Z " /><path fill="rgb(5,5,5)" stroke="rgb(5,5,5)" stroke-width="1" opacity="1" d="M 256.5 355 Q 262.1 355.5 264 359.5 L 265 363.5 L 264 363.5 L 261.5 359 L 261 360.5 L 262 363.5 L 261 363.5 L 259.5 360 Q 255.8 359.3 255 361.5 L 254 363.5 L 256 366.5 L 254 365.5 L 253 361.5 L 257.5 358 L 260.5 359 L 259.5 357 Q 252.3 355.8 251 360.5 Q 249.7 365.3 252 366.5 L 250 365.5 Q 248.5 357.5 253.5 356 L 256.5 355 Z " /><path fill="rgb(5,5,5)" stroke="rgb(5,5,5)" stroke-width="1" opacity="1" d="M 274.5 358 L 276 366.5 L 276 376.5 L 277 377.5 L 277 402.5 L 272 423.5 Q 267.7 433.2 259.5 439 Q 253.3 444.3 241.5 444 Q 226.8 440.8 219 430.5 L 216 425.5 L 218 426.5 L 222 433 L 230.5 439 L 237.5 442 L 250.5 442 Q 260.5 438.5 266 430.5 L 274 412.5 L 275 397.5 L 276 396.5 L 276 381.5 L 275 380.5 L 274.5 358 Z " /><path fill="rgb(5,5,5)" stroke="rgb(5,5,5)" stroke-width="1" opacity="1" d="M 255.5 376 Q 262 375 264 378.5 L 265 382.5 L 264 382.5 Q 264.5 378.5 261.5 378 Q 253.7 376.3 252 380.5 L 251 386.5 L 254 390.5 L 250 387.5 Q 248.3 378.8 253.5 377 L 255.5 376 Z " /><path fill="rgb(5,5,5)" stroke="rgb(5,5,5)" stroke-width="1" opacity="1" d="M 256.5 380 Q 261 379 262 381.5 L 261.5 383 L 257.5 381 Q 254.3 381.8 255 386.5 L 256.5 389 Q 253 388 254 382.5 L 256.5 380 Z " /><path fill="rgb(5,5,5)" stroke="rgb(5,5,5)" stroke-width="1" opacity="1" d="M 263.5 426 L 264 428 L 261.5 429 L 263.5 426 Z " /><path fill="rgb(5,5,5)" stroke="rgb(5,5,5)" stroke-width="1" opacity="1" d="M 258.5 431 L 260 431.5 L 257.5 433 L 258.5 431 Z " /></svg>